<svg id="Bat_SVG" data-name="Bat SVG" xmlns="http://www.w3.org/2000/svg" width="8.3in" height="2.96in" viewBox="0 0 597.46 213.13"><defs><style>.cls-1{fill:#fff;stroke:#231f20;stroke-miterlimit:10;}</style></defs><path class="cls-1" d="M286.71,302.4c-.74-3-1.61-5.82-2.11-8.69-3-17.39-1.38-34.16,6.88-50a5.29,5.29,0,0,1,2.31-2.13,2.27,2.27,0,0,1,2.86,1c3.9,5.2,6.07,11.17,7.63,17.36.92,3.63,1.46,7.35,2.18,11a48.76,48.76,0,0,1,32.21-1.62c.3-2.26.49-4.6.93-6.89,1.53-8,3.75-15.8,8.62-22.54,1.63-2.26,3.84-2.09,5.23.38A66.26,66.26,0,0,1,361,263.17a78.86,78.86,0,0,1-1.76,33.1c0,.09,0,.19.09.45,1.57-1.25,3.06-2.47,4.59-3.65,18.72-14.57,39.64-25,62-32.6A270.22,270.22,0,0,1,474.51,249,289.66,289.66,0,0,1,523.74,246c32.14.86,63.36,6.5,93.35,18.34.42.16.83.35,1.26.51,1,.4,1.93,1,1.82,2.27a2.86,2.86,0,0,1-2,2.71c-1.91.63-3.83,1.21-5.69,1.95a80.12,80.12,0,0,0-22,13.75c-9.45,8-17.5,17.26-23.28,28.33a40.22,40.22,0,0,0-4.49,13c-.14,1-.14,2-.2,3a2.09,2.09,0,0,1-3.13,2,43.94,43.94,0,0,0-20.85-2.55c-23.11,2.34-44.74,21.38-51.88,47a108.15,108.15,0,0,0-2.16,11.65c-.35,2.17-1.86,3.25-3.84,2.42-15-6.34-29.8-4.82-44.08,2.09-16.93,8.18-28.7,21.16-34.07,39.41-1.11,3.8-1.28,7.88-1.88,11.84-.07.49.06,1.08-.18,1.47-.35.58-.89,1.33-1.46,1.45a3,3,0,0,1-1.93-.75c-.4-.3-.54-.94-.78-1.44-5-10.37-12.35-18.32-23-22.95a15.8,15.8,0,0,0-9.25-1.34,3.81,3.81,0,0,0-2.77,1.77c-5.12,7.77-12.47,12.69-21.07,15.77-14,5-28.08,5.22-42-.37a34.6,34.6,0,0,1-15.38-11.69c-1.48-2-3.85-2-5.92-1.68a27.87,27.87,0,0,0-7.74,2.18c-9.87,4.69-16.79,12.35-21.45,22.14-.19.4-.27,1-.59,1.19-.67.48-1.52,1.14-2.21,1.05s-1.32-1.07-1.44-1.75c-.33-1.81-.29-3.69-.51-5.53a54.61,54.61,0,0,0-11.72-27.61c-9.6-12.28-21.92-20.46-37.22-23.9-10.35-2.33-20.51-1.81-30.35,2.43-2.36,1-4,0-4.22-2.49a66.73,66.73,0,0,0-22.05-43.53,56.2,56.2,0,0,0-27.89-14.25,44.33,44.33,0,0,0-25.14,2,2,2,0,0,1-2.89-1.64c-.31-9.75-4.89-17.79-10.28-25.42a97,97,0,0,0-35.66-31.23c-2.8-1.41-5.85-2.34-8.78-3.49-.37-.15-.78-.21-1.15-.36a2.85,2.85,0,0,1-1.83-2.7c-.08-1.19.72-1.8,1.74-2.17,5.41-2,10.77-4.11,16.24-5.89a264.77,264.77,0,0,1,46-10.38,284.92,284.92,0,0,1,46.69-2.62c38.38,1.05,75.29,8.63,110.12,25.22a186.75,186.75,0,0,1,41.4,26.63C286.11,302,286.36,302.14,286.71,302.4Z" transform="translate(-23.22 -237.85)"/></svg>