<svg id="CrowFly_SVG" data-name="CrowFly SVG" xmlns="http://www.w3.org/2000/svg" width="6.02in" height="6.53in" viewBox="0 0 433.64 469.95"><defs><style>.cls-1{fill:#fff;stroke:#231f20;stroke-miterlimit:10;}</style></defs><path class="cls-1" d="M327.12,550.83c2.49,2.27,4.82,4.65,7.43,6.65a15,15,0,0,0,5.18,2.33c1.68.46,2.94-.51,3.37-2.22a7.07,7.07,0,0,0,.23-3c-1.39-6.91-4.83-12.39-11.21-15.78a30.82,30.82,0,0,1-4.24-2.39,4.92,4.92,0,0,1-1.83-2.66,32.45,32.45,0,0,1,3.57-22.53,110,110,0,0,1,6.82-10.44c4.42-6.09,9.92-11.21,15.65-16,8-6.73,16.23-13.28,24.52-19.7,7.09-5.49,14.34-10.8,21.68-16,6-4.25,12.34-8.17,18.54-12.23a7,7,0,0,1,5.47-1,53.8,53.8,0,0,0,7.17.88c7.34.52,14.67,1,22,1.41a60.28,60.28,0,0,1,25.57,7c6.42,3.43,12.74,7.16,19.86,9a83,83,0,0,0,11.1,2.34c2.86.35,4.37-2.25,3.13-4.9a17.74,17.74,0,0,0-2-3q-5.55-7.23-11.15-14.44a25.19,25.19,0,0,1-4.94-13.2c-1.11-10.84-6-19.7-14.06-26.89-6.7-6-14.66-9.88-22.59-13.86l-1.74-.85a46.76,46.76,0,0,1,3.74-3c5.91-3.85,11.77-7.78,17.81-11.4,23.55-14.13,40.75-33.88,52.08-58.78,7.75-17,7.15-34.4,1.52-51.83a14.82,14.82,0,0,0-3.22-5.13c-1.61-1.79-4.05-1.19-5,1.08a14.66,14.66,0,0,0-.75,3.69c-.45,3.55-.82,7.12-1.23,10.68-.56-.28-.74-.52-.84-.79a38.74,38.74,0,0,0-8.07-13,23.47,23.47,0,0,0-5.52-4.57c-2.6-1.48-5.28-.44-6.4,2.35a30.6,30.6,0,0,0-1.47,6.11c-.65,3.81-1.16,7.65-1.73,11.48l-.54.06c-.32-.55-.61-1.12-1-1.64a63.2,63.2,0,0,0-4.31-6.23c-2.85-3.3-6-2.67-7.64,1.36-.3.72-.54,1.46-.77,2.21-.73,2.42-1.32,4.89-2.19,7.26a93.66,93.66,0,0,1-3.81,9.14c-.94,1.89-1.94,1.91-3.64.67-1.27-.93-2.51-1.9-3.83-2.73-2.55-1.61-4.59-1.16-6.08,1.47-1.1,1.93-2,4-2.88,6-2.57,5.66-5.26,11.24-9.07,16.21a5.89,5.89,0,0,1-5.57,2.67,12.33,12.33,0,0,0-2.71.11c-4.15.52-6.5,3.44-8.57,6.62-4.19,6.44-9.57,11.4-16.82,14.26a36,36,0,0,0-12.79,8.37A110,110,0,0,1,382.31,349c-5.71,3.57-11.68,6.73-17.54,10.05a3,3,0,0,1-3.41-.1,51.93,51.93,0,0,1-4.86-3.71c-6.34-5.87-11.27-12.88-15.58-20.31-4.72-8.13-9.42-16.29-13.77-24.61a167.85,167.85,0,0,0-34-44.51,611.89,611.89,0,0,1-54.72-58.54c-10.57-13-20.89-26.17-28.28-41.25-7.1-14.48-13.51-29.3-20.25-44-1.88-4.1-3.81-8.18-5.9-12.17-.83-1.59-2.32-2.76-4.34-2.21s-2.42,2.18-2.69,3.91a6,6,0,0,0-.07,1.63c.39,3.35.6,6.73,1.26,10,2.29,11.5,6.48,22.42,10.78,33.28.56,1.4,1.14,2.79,1.71,4.19l-.53.31c-6.6-8.83-13.4-17.53-19.76-26.53-6.93-9.81-12.55-20.43-18-31.1a46.9,46.9,0,0,0-4.28-6.89,3.54,3.54,0,0,0-3.1-1c-.88.28-1.57,1.63-2,2.66a4.44,4.44,0,0,0,0,2.5,81,81,0,0,0,2.32,9.82c6,17.09,13.8,33.37,22.42,49.28.53,1,1.07,1.95,1.61,2.92a2.46,2.46,0,0,1-1.57-.51c-5.15-4-10.43-7.8-15.39-12-6.89-5.85-13.54-12-20.31-18a16.4,16.4,0,0,0-2.94-2.1c-2.62-1.4-5,.09-4.79,3.05a12.82,12.82,0,0,0,.67,3.16c4,11.91,10.17,22.6,17.72,32.56,1.79,2.36,3.76,4.6,5.65,6.89a4.94,4.94,0,0,1-2.08-.72c-6.08-3.69-12.13-7.43-18.24-11.07-4-2.37-8-4.63-12.1-6.86a9.21,9.21,0,0,0-3.06-1c-3.36-.48-5.48,1.74-4.61,5a24,24,0,0,0,2.44,5.79c3.78,6.5,8.75,12.11,13.75,17.68.4.45.77.93,1.42,1.71-1.57-.11-2.65-.24-3.73-.26-4.16-.09-8.32-.31-12.47-.15-3.67.14-5.74,3-4.76,6.09a8,8,0,0,0,1.38,2.72c3.21,3.74,6.37,7.54,9.83,11.05a79,79,0,0,0,7.15,5.86c-2.34,2.7-4.72,5.29-6.91,8a5,5,0,0,0-.35,5.79,14.55,14.55,0,0,0,2.25,3.26c3.38,3.44,6.83,6.81,10.31,10.16,1.69,1.62,3.49,3.12,5.43,4.84-1.23.91-2.3,1.67-3.33,2.48-3.28,2.56-5,5.77-4.22,10.06A37.05,37.05,0,0,0,133.17,271c2.42,3.38,5,6.67,7.36,10.08a2.67,2.67,0,0,1,.28,2.21A11.5,11.5,0,0,0,142.22,296a33.89,33.89,0,0,0,5,4.9c2.21,1.87,4.57,3.56,6.81,5.38.74.6,1.39,1.25.82,2.47-2.74,5.83-1.53,11.15,2.36,16a71,71,0,0,0,13.64,13.41,47.5,47.5,0,0,1,4.46,3.67,7.77,7.77,0,0,1,2.62,5.59,29.77,29.77,0,0,0,11.31,23.11,20,20,0,0,1,6.58,9.08,25.91,25.91,0,0,0,1.11,2.47,44.36,44.36,0,0,0,16.46,18.79,35.45,35.45,0,0,1,6,5.13c6.44,6.65,13.69,12.08,22.71,14.58,7.11,2,14.37,3.44,21.55,5.19,2.53.61,5,1.36,7.6,2.06-3.15,6.13-10.17,13.55-16.69,19.36-5.87,5.23-12.86,8.64-19.68,12.4a279.84,279.84,0,0,1-49.4,21.64c-15.06,4.86-30.29,9.15-45.44,13.72a220.52,220.52,0,0,0-32,11.83,12.75,12.75,0,0,0-5.71,4.78c-1.91,3.1-1,5.73,2.68,6.39a55.24,55.24,0,0,0,16,.62c2.1-.22,4.2-.37,6.3-.55a4,4,0,0,1-1.15,1.39,67.61,67.61,0,0,0-5.14,4.55c-2,2.07-1.39,4.54,1.18,5.76a11.09,11.09,0,0,0,3.44,1c2.93.33,5.88.5,8.82.73l10.27.83c-1.29,1-2.36,1.78-3.34,2.65-3.08,2.73-2.48,5.68,1.43,7.09a4.35,4.35,0,0,0,1,.31c5.88.48,11.76,1,17.64,1.37a21.7,21.7,0,0,0,3.71-.39c-.22.53-.28.75-.39,1-2.13,4-1.13,6,3.37,6.47,2.81.31,5.65.47,8.47.65s5.85.34,8.76.5c.22,3.55,1.22,4.8,4.54,5.7a32.32,32.32,0,0,0,3.36.7,17.84,17.84,0,0,1,6.24,2c4.49,2.53,9.28,4.35,14.67,3.08,4.68-1.1,9.43-1.93,14.08-3.15a29.84,29.84,0,0,1,13.72-.48,37.49,37.49,0,0,0,11.82.34c6.85-.85,12.87-4.27,18.89-7.43a30.7,30.7,0,0,0,13.85-13.81c.84-1.73,1.89-3.36,2.83-5,3-5.41,6.72-10,12.68-12.63,4.09-1.79,7.44-1.06,9.64,2.86,1.8,3.2,1.95,6.64,1.94,10.17a8.44,8.44,0,0,1-3.28,7.1c-3.29,2.54-6.4,5.35-9.85,7.66-4.42,3-5.87,7.45-7.1,12.14a2.36,2.36,0,0,0,1.63,3,2.19,2.19,0,0,0,2.95-1.39,9.53,9.53,0,0,1,5.17-5c4.29-2,8.69-3.81,12.66-5.54,0,2.52-.15,5.29.08,8a4,4,0,0,0,1.71,2.65c1.12.68,2.33,0,3.14-1a15.25,15.25,0,0,0,1.19-1.81C323.8,557,325.48,553.85,327.12,550.83Z" transform="translate(-100.96 -94.9)"/><path class="cls-1" d="M327.12,550.83c-1.64,3-3.32,6.13-5,9.23a15.25,15.25,0,0,1-1.19,1.81c-.81,1.06-2,1.7-3.14,1a4,4,0,0,1-1.71-2.65c-.23-2.74-.08-5.51-.08-8-4,1.73-8.37,3.52-12.66,5.54a9.53,9.53,0,0,0-5.17,5,2.19,2.19,0,0,1-2.95,1.39,2.36,2.36,0,0,1-1.63-3c1.23-4.69,2.68-9.19,7.1-12.14,3.45-2.31,6.56-5.12,9.85-7.66a8.44,8.44,0,0,0,3.28-7.1c0-3.53-.14-7-1.94-10.17-2.2-3.92-5.55-4.65-9.64-2.86-6,2.61-9.64,7.22-12.68,12.63-.94,1.68-2,3.31-2.83,5a30.7,30.7,0,0,1-13.85,13.81c-6,3.16-12,6.58-18.89,7.43a37.49,37.49,0,0,1-11.82-.34,29.84,29.84,0,0,0-13.72.48c-4.65,1.22-9.4,2.05-14.08,3.15-5.39,1.27-10.18-.55-14.67-3.08a17.84,17.84,0,0,0-6.24-2,32.32,32.32,0,0,1-3.36-.7c-3.32-.9-4.32-2.15-4.54-5.7-2.91-.16-5.84-.3-8.76-.5s-5.66-.34-8.47-.65c-4.5-.5-5.5-2.49-3.37-6.47.11-.2.17-.42.39-1a21.7,21.7,0,0,1-3.71.39c-5.88-.39-11.76-.89-17.64-1.37a4.35,4.35,0,0,1-1-.31c-3.91-1.41-4.51-4.36-1.43-7.09,1-.87,2.05-1.63,3.34-2.65l-10.27-.83c-2.94-.23-5.89-.4-8.82-.73a11.09,11.09,0,0,1-3.44-1c-2.57-1.22-3.13-3.69-1.18-5.76a67.61,67.61,0,0,1,5.14-4.55,4,4,0,0,0,1.15-1.39c-2.1.18-4.2.33-6.3.55a55.24,55.24,0,0,1-16-.62c-3.64-.66-4.59-3.29-2.68-6.39a12.75,12.75,0,0,1,5.71-4.78,220.52,220.52,0,0,1,32-11.83c15.15-4.57,30.38-8.86,45.44-13.72a279.84,279.84,0,0,0,49.4-21.64c6.82-3.76,13.81-7.17,19.68-12.4,6.52-5.81,13.54-13.23,16.69-19.36-2.57-.7-5.07-1.45-7.6-2.06-7.18-1.75-14.44-3.22-21.55-5.19-9-2.5-16.27-7.93-22.71-14.58a35.45,35.45,0,0,0-6-5.13A44.36,44.36,0,0,1,197,382.13a25.91,25.91,0,0,1-1.11-2.47,20,20,0,0,0-6.58-9.08A29.77,29.77,0,0,1,178,347.47a7.77,7.77,0,0,0-2.62-5.59,47.5,47.5,0,0,0-4.46-3.67,71,71,0,0,1-13.64-13.41c-3.89-4.86-5.1-10.18-2.36-16,.57-1.22-.08-1.87-.82-2.47-2.24-1.82-4.6-3.51-6.81-5.38a33.89,33.89,0,0,1-5-4.9,11.5,11.5,0,0,1-1.41-12.73,2.67,2.67,0,0,0-.28-2.21c-2.39-3.41-4.94-6.7-7.36-10.08a37.05,37.05,0,0,1-6.68-14.89c-.79-4.29.94-7.5,4.22-10.06,1-.81,2.1-1.57,3.33-2.48-1.94-1.72-3.74-3.22-5.43-4.84-3.48-3.35-6.93-6.72-10.31-10.16a14.55,14.55,0,0,1-2.25-3.26,5,5,0,0,1,.35-5.79c2.19-2.74,4.57-5.33,6.91-8a79,79,0,0,1-7.15-5.86c-3.46-3.51-6.62-7.31-9.83-11.05a8,8,0,0,1-1.38-2.72c-1-3.13,1.09-5.95,4.76-6.09,4.15-.16,8.31.06,12.47.15,1.08,0,2.16.15,3.73.26-.65-.78-1-1.26-1.42-1.71-5-5.57-10-11.18-13.75-17.68A24,24,0,0,1,108.3,161c-.87-3.25,1.25-5.47,4.61-5a9.21,9.21,0,0,1,3.06,1c4.06,2.23,8.12,4.49,12.1,6.86,6.11,3.64,12.16,7.38,18.24,11.07a4.94,4.94,0,0,0,2.08.72c-1.89-2.29-3.86-4.53-5.65-6.89-7.55-10-13.76-20.65-17.72-32.56a12.82,12.82,0,0,1-.67-3.16c-.18-3,2.17-4.45,4.79-3.05a16.4,16.4,0,0,1,2.94,2.1c6.77,6,13.42,12.15,20.31,18,5,4.21,10.24,8,15.39,12a2.46,2.46,0,0,0,1.57.51c-.54-1-1.08-1.94-1.61-2.92-8.62-15.91-16.43-32.19-22.42-49.28a81,81,0,0,1-2.32-9.82,4.44,4.44,0,0,1,0-2.5c.43-1,1.12-2.38,2-2.66a3.54,3.54,0,0,1,3.1,1,46.9,46.9,0,0,1,4.28,6.89c5.49,10.67,11.11,21.29,18,31.1,6.36,9,13.16,17.7,19.76,26.53l.53-.31c-.57-1.4-1.15-2.79-1.71-4.19-4.3-10.86-8.49-21.78-10.78-33.28-.66-3.3-.87-6.68-1.26-10a6,6,0,0,1,.07-1.63c.27-1.73.78-3.39,2.69-3.91s3.51.62,4.34,2.21c2.09,4,4,8.07,5.9,12.17,6.74,14.66,13.15,29.48,20.25,44,7.39,15.08,17.71,28.28,28.28,41.25a611.89,611.89,0,0,0,54.72,58.54,167.85,167.85,0,0,1,34,44.51c4.35,8.32,9.05,16.48,13.77,24.61,4.31,7.43,9.24,14.44,15.58,20.31a51.93,51.93,0,0,0,4.86,3.71,3,3,0,0,0,3.41.1c5.86-3.32,11.83-6.48,17.54-10.05a110,110,0,0,0,21.16-16.9,36,36,0,0,1,12.79-8.37c7.25-2.86,12.63-7.82,16.82-14.26,2.07-3.18,4.42-6.1,8.57-6.62a12.33,12.33,0,0,1,2.71-.11,5.89,5.89,0,0,0,5.57-2.67c3.81-5,6.5-10.55,9.07-16.21.92-2,1.78-4.09,2.88-6,1.49-2.63,3.53-3.08,6.08-1.47,1.32.83,2.56,1.8,3.83,2.73,1.7,1.24,2.7,1.22,3.64-.67a93.66,93.66,0,0,0,3.81-9.14c.87-2.37,1.46-4.84,2.19-7.26.23-.75.47-1.49.77-2.21,1.68-4,4.79-4.66,7.64-1.36a63.2,63.2,0,0,1,4.31,6.23c.35.52.64,1.09,1,1.64l.54-.06c.57-3.83,1.08-7.67,1.73-11.48a30.6,30.6,0,0,1,1.47-6.11c1.12-2.79,3.8-3.83,6.4-2.35a23.47,23.47,0,0,1,5.52,4.57,38.74,38.74,0,0,1,8.07,13c.1.27.28.51.84.79.41-3.56.78-7.13,1.23-10.68a14.66,14.66,0,0,1,.75-3.69c.9-2.27,3.34-2.87,5-1.08a14.82,14.82,0,0,1,3.22,5.13c5.63,17.43,6.23,34.81-1.52,51.83C517,331.07,499.78,350.82,476.23,365c-6,3.62-11.9,7.55-17.81,11.4a46.76,46.76,0,0,0-3.74,3l1.74.85c7.93,4,15.89,7.89,22.59,13.86,8.08,7.19,12.95,16.05,14.06,26.89a25.19,25.19,0,0,0,4.94,13.2q5.6,7.22,11.15,14.44a17.74,17.74,0,0,1,2,3c1.24,2.65-.27,5.25-3.13,4.9a83,83,0,0,1-11.1-2.34c-7.12-1.88-13.44-5.61-19.86-9a60.28,60.28,0,0,0-25.57-7c-7.35-.4-14.68-.89-22-1.41a53.8,53.8,0,0,1-7.17-.88,7,7,0,0,0-5.47,1c-6.2,4.06-12.49,8-18.54,12.23-7.34,5.16-14.59,10.47-21.68,16-8.29,6.42-16.49,13-24.52,19.7-5.73,4.81-11.23,9.93-15.65,16a110,110,0,0,0-6.82,10.44,32.45,32.45,0,0,0-3.57,22.53,4.92,4.92,0,0,0,1.83,2.66,30.82,30.82,0,0,0,4.24,2.39c6.38,3.39,9.82,8.87,11.21,15.78a7.07,7.07,0,0,1-.23,3c-.43,1.71-1.69,2.68-3.37,2.22a15,15,0,0,1-5.18-2.33C331.94,555.48,329.61,553.1,327.12,550.83Z" transform="translate(-100.96 -94.9)"/></svg>