<svg id="CrowSit_SVG" data-name="CrowSit SVG" xmlns="http://www.w3.org/2000/svg" width="5.74in" height="5.73in" viewBox="0 0 413.58 412.65"><defs><style>.cls-1{fill:#fff;stroke:#231f20;stroke-miterlimit:10;}</style></defs><path class="cls-1" d="M496.66,420.28c4.44,4.44,8.83,8.93,13.32,13.31a130.73,130.73,0,0,1,17,20.47,6,6,0,0,1,1.2,2.21,3.47,3.47,0,0,1-.39,2.61,3.85,3.85,0,0,1-2.72.74,7.69,7.69,0,0,1-2.45-1.09q-6.4-3.13-12.81-6.25a3.11,3.11,0,0,0-1.69-.35c.76.8,1.49,1.64,2.28,2.42,8.29,8.13,15.13,17.42,21.74,26.91a6.79,6.79,0,0,1,.87,1.64,2.25,2.25,0,0,1-2.67,3.09,19.07,19.07,0,0,1-4.94-2.16c-6.25-3.88-12.34-8-18.64-11.79-11.9-7.18-23.63-14.73-35.95-21.13-11-5.69-22.64-10-34-15A220.79,220.79,0,0,0,410,425.65a102.43,102.43,0,0,0-38.82-3.37c-5.11.48-10.22,1-15.29,1.85-2.19.35-4.27,1.41-6.4,2.13a3.18,3.18,0,0,0-2.08,2.45c-.9,3.31-.57,6.62-.15,9.94.48,3.76,1,7.51,1.46,11.27a17.63,17.63,0,0,1-3.9,13.31c-4.79,6.08-9.19,12.51-14.31,18.31-7,7.9-12.56,16.73-18.11,25.59a54.4,54.4,0,0,0-2.83,6.12c1.62-.25,2.63-.43,3.66-.56,4.2-.54,8.39-1.3,12.61-1.54C336.22,510.54,344,517,346,527.52c.12.61.22,1.22.37,1.83.65,2.66-1,4.49-3.77,4.2a11.2,11.2,0,0,1-6.57-3.26c-4.19-3.94-9.39-5.11-14.85-5.26-13.79-.36-27.29,1.71-40.59,5.19-7.65,2-15.33,3.93-22.82,6.42a86.49,86.49,0,0,0-22.26,10.69,15.26,15.26,0,0,1-3.19,1.57c-2.89,1.13-4.89-.47-4.39-3.53a38.9,38.9,0,0,1,4-12.13,7.83,7.83,0,0,0,.41-.75c3.44-8.27,10-12.66,18.47-14.33,7.14-1.41,14.37-2.36,21.51-3.75a96.18,96.18,0,0,0,13.4-3.46,12.87,12.87,0,0,0,5.58-4.22,138.39,138.39,0,0,0,19.47-34.8c2.17-5.68,1.28-11.4-.05-17.18-1.79-7.74-5.57-14.44-9.62-21.17-6.13-10.18-15.65-16.53-25.06-23-13.78-9.45-27.47-19-39.83-30.3-10.34-9.47-19.53-19.74-24.39-33.16-2.7-7.43-5.13-15-7.56-22.49-3.55-11-4.91-22.4-5.43-33.9-.65-14.48-.93-29-1.8-43.44-.6-9.83-2.88-19.42-5.81-28.84a66.7,66.7,0,0,0-6.13-13.75,25.87,25.87,0,0,0-18.43-13.1,220.37,220.37,0,0,0-23.17-3.12,118.93,118.93,0,0,1-14.18-2.5,42.63,42.63,0,0,1-6.92-2c-1.82-.72-2.17-1.86-1.59-3.73a19.08,19.08,0,0,1,5.89-8.57c7.44-6.62,16.3-10.52,25.72-13.27,8.41-2.46,17-3.87,25.8-3.11a3.37,3.37,0,0,0,3.38-1.51c9.71-12.57,22.74-17.43,38.27-15.88,14.24,1.43,26.35,7.89,37.1,17,18,15.21,29.42,34.54,34.78,57.47a52.3,52.3,0,0,0,12.62,23.36c7.38,8.12,15.33,15.72,23.17,23.42,12.82,12.58,27.5,22.84,42.2,33,17.75,12.33,35.66,24.44,53.36,36.84,13.25,9.28,25,20.37,37.12,31,13.88,12.25,27.89,24.36,41.89,36.47,4.58,4,9.33,7.72,14,11.63a7.39,7.39,0,0,1,1.2,1.94,17.26,17.26,0,0,0,.92,1.56c4,5.3,8.15,10.55,12.12,15.91a18.86,18.86,0,0,1,2.56,4.94,3.32,3.32,0,0,1-.55,2.86c-.53.55-1.85.53-2.79.43a6.48,6.48,0,0,1-2.11-1c-6.66-3.61-13.26-7.35-20-10.78-3.35-1.7-7-2.82-10.48-4.21Z" transform="translate(-120.1 -137.11)"/></svg>