<svg xmlns="http://www.w3.org/2000/svg" width="3.51in" height="3.51in" viewBox="0 0 253 253"><defs><style>.cls-1{fill:none;stroke:#000;stroke-miterlimit:10;}</style></defs><g id="circle"><circle class="cls-1" cx="126.5" cy="126.5" r="126"/></g><g id="Layer_6" data-name="Layer 6"><path class="cls-1" d="M118.8,234.24l-1-.34c2.52-4,5.06-7.93,7.62-11.9.63-1,1-1,1.55-.16,2.58,4,5.13,8,7.73,12l-1,.41h-3.36c-1.32-2.19-2.63-4.39-4.07-6.79l-4.33,6.79Z" transform="translate(0.5 0.5)"/><path class="cls-1" d="M234.24,133.2c-.27.07-.64.29-.8.18-4-2.52-7.92-5.08-12-7.73l12.34-8,.47,1.35v2.88l-5,3c-.77.46-.8.93,0,1.4l5,3Z" transform="translate(0.5 0.5)"/><path class="cls-1" d="M18.24,119l.47-1.32L31,125.64c-4,2.63-8,5.2-11.95,7.74-.16.1-.53-.11-.81-.18v-3.84l5-3c.79-.47.77-.94,0-1.4l-5-3Z" transform="translate(0.5 0.5)"/><path class="cls-1" d="M133,18.24l.84.42c-.21.37-.42.73-.64,1.08-2,3.16-4,6.31-6,9.48-.72,1.13-1.11,1.14-1.85,0-2.18-3.48-4.34-7-6.56-10.51l.8-.43h3.36l3.32,5.7,3.4-5.7Z" transform="translate(0.5 0.5)"/><path class="cls-1" d="M96.53,22.33l3.47-1c1.47,5.61-.22,10.94-1.18,16.52,1-.23,1.8-.45,2.64-.61,7.83-1.52,15.5-1.44,22.81,2.26a4.27,4.27,0,0,0,3.61.21c4.2-1.35,8.21-3.61,12.74-3.56a81.51,81.51,0,0,1,8.92.94c1.31.16,2.59.47,4,.73-.47-2.76-1-5.48-1.39-8.22a22.19,22.19,0,0,1,.23-8.27l3.63,1c-.87,7.23,1.4,13.92,3,20.92-1-.23-1.84-.46-2.71-.61-4.72-.84-9.41-1.79-14.16-2.41a15.48,15.48,0,0,0-5.55.59c-2.58.64-5.07,1.62-7.84,2.53,1.47,1.64,2.69,3,4,4.4q6.93,7.31,13.9,14.57c.66.69,1.53,1.17,2.2,1.85,1.08,1.09,2,.87,3.24.13A106.23,106.23,0,0,1,161.83,59a51.17,51.17,0,0,1,7.83-2.55,2.88,2.88,0,0,0,2.41-2.31,48.49,48.49,0,0,1,7.77-17.38c.68-1,1.28-2,1.89-3a16.9,16.9,0,0,1,9.91,9.41,92.72,92.72,0,0,1,3.93,10.54,3.5,3.5,0,0,0,3.21,2.9c4.68.74,8.72,3.09,12.81,5.23,3,1.58,4.86,4.34,6.36,7.31.57,1.14-.65,1.64-1.2,2-2.52,1.67-5.17,3.15-7.8,4.67a41.52,41.52,0,0,1-10.79,3.86,3.08,3.08,0,0,0-2.59,2.8A39.42,39.42,0,0,1,190.48,95q-1.65,2.86-3.4,5.66a1.14,1.14,0,0,0,.08,1.58,54.16,54.16,0,0,0,3.69,4.41c5.53,5.25,11.16,10.41,16.75,15.59a6.45,6.45,0,0,0,.83.53,36.09,36.09,0,0,0,1.48-3.54c.67-2.17,1.28-4.36,1.76-6.58.79-3.72-.36-7.3-1.08-10.89-.47-2.35-1.12-4.66-1.65-7a14.08,14.08,0,0,1-.18-1.93c3.36.79,6.52,1.7,9.74,2.23,3.06.51,6.18.65,9.28.91.69.06,1.69-.34,2,0a5.91,5.91,0,0,1,.86,2.29c.11.33.16.68.27,1.17-5.69,1.27-11.14-.09-16.76-1.11.38,2.47.66,4.8,1.12,7.09,1.23,6.11-.22,11.83-2.59,17.38a6.92,6.92,0,0,0-.14,5.41,80.65,80.65,0,0,1,3,9.83,19.19,19.19,0,0,1,0,6.05c-.32,2.89-.9,5.76-1.4,8.83,5.63-.75,11.19-2.51,17.09-1-.29,1.1-.52,2.18-.88,3.2-.09.24-.65.42-1,.45a26.78,26.78,0,0,1-3.23,0c-4.64-.29-9,1-13.48,1.94-1.28.28-2.56.59-4,.92.22-.9.39-1.65.58-2.39a68.82,68.82,0,0,0,2.69-14.7,16.54,16.54,0,0,0-.7-4.82c-.64-2.38-1.51-4.71-2.29-7.05a5.17,5.17,0,0,0-.43-.84,24.14,24.14,0,0,0-1.95,1.46c-5.29,4.88-10.59,9.74-15.81,14.7a33.22,33.22,0,0,0-3.64,4.44,1.71,1.71,0,0,0,.07,1.46c2.06,3.88,4.3,7.66,6.22,11.61a43.66,43.66,0,0,1,2.24,6.8,3,3,0,0,0,2.46,2.35,44.21,44.21,0,0,1,8.33,2.91c3.53,1.73,6.87,3.89,10.25,5.93a13.4,13.4,0,0,1,1.95,1.77c-1.33,2.86-3,5.32-6,6.85-4.67,2.38-9.26,4.88-14.45,6a2.94,2.94,0,0,0-2.55,2.71c-.93,5-3.4,9.42-5.74,13.88a14.69,14.69,0,0,1-7.31,6.8c-.8-1.06-1.75-2.13-2.49-3.33-2.7-4.34-5.45-8.67-6.88-13.66-.43-1.53-.76-3.11-1.33-4.59a2.58,2.58,0,0,0-1.48-1.49,44.12,44.12,0,0,1-14.75-6.1c-1.74-1.05-3.5-2.07-5.31-3.14-8,6.32-14.5,14.06-21.37,21.81,1.2.51,2.27,1,3.34,1.43,6.27,2.75,12.64,2.11,19.05.62,2.48-.58,5-1.18,7.72-1.84-1.57,7.36-4.17,14.41-2.62,22-1.08.29-2,.57-2.9.79a.84.84,0,0,1-1.16-.84,55.32,55.32,0,0,1-.25-7.15c.24-3.06.91-6.08,1.43-9.28l-1.23.19c-3.19.51-6.37,1.27-9.58,1.47-4.67.28-9.13-1.07-13.34-2.92a7.44,7.44,0,0,0-6.57-.15,54.13,54.13,0,0,1-7.33,2.61c-3.8,1.07-7.61.52-11.39-.31-1.69-.38-3.39-.69-5.22-1,.56,3.37,1.2,6.42,1.52,9.51a34.65,34.65,0,0,1-.1,6.44c-.13,1.46-.61,1.66-2,1.31-.65-.16-1.29-.36-2-.57C97.54,222.5,95,215.43,93.38,208c1.61.41,3.09.8,4.58,1.15,4.47,1,8.93,2.2,13.59,2,3.86-.18,7.4-1.56,11-2.83,1.06-.37.56-1,.12-1.44-3.48-3.91-6.92-7.86-10.48-11.7-2.17-2.34-4.49-4.56-6.82-6.75-2.69-2.51-2.82-2.48-6-.71-1,.58-2.09,1.17-3.12,1.78a41.49,41.49,0,0,1-13.13,5.37c-1.66.31-2.38,1.22-2.78,2.91a33.08,33.08,0,0,1-2.57,7.44c-2.15,4.19-4.65,8.19-7,12.27-.45.79-1,.75-1.78.38a13.27,13.27,0,0,1-6.31-6.45c-2.38-4.62-4.88-9.18-5.86-14.36a2.34,2.34,0,0,0-2.2-2,34,34,0,0,1-10.52-3.88c-1.23-.67-2.37-1.51-3.64-2.08a12.88,12.88,0,0,1-6.21-6.19c-.4-.76-.36-1.2.33-1.7,5.92-4.26,12-8.13,19.37-9.52a3.24,3.24,0,0,0,3-3,32.86,32.86,0,0,1,3.92-10.37c1.65-3,3.41-5.86,5.16-8.86-2.32-2.43-4.58-5-7-7.32-4.47-4.28-9-8.47-13.59-12.66-1.23-1.13-1.46-1-2,.54-.7,2-1.34,4-2.07,6-1.35,3.65-.66,7.27.09,10.88.68,3.28,1.46,6.53,2.18,9.81a14.3,14.3,0,0,1,.15,1.73c-1.32-.32-2.52-.53-3.68-.89a66.43,66.43,0,0,0-15.61-2.27c-.77,0-2,.23-2.23-.14a12.32,12.32,0,0,1-1-3.24c5.84-1.43,11.33,0,17.05,1.07-.3-1.86-.56-3.57-.88-5.28A32.47,32.47,0,0,1,40.3,127a3.22,3.22,0,0,0,0-2.73A104.31,104.31,0,0,1,37,114c-.88-3.63-.13-7.31.57-10.94.29-1.52.56-3,.87-4.68-5.63.49-11.07,2.44-16.9,1,.3-1.08.56-2.18,1-3.23.08-.23.68-.42,1-.38,5.65.68,11-.75,16.41-2.09,1.22-.3,2.42-.63,3.94-1-.3,1.38-.54,2.37-.72,3.37-.85,4.68-1.77,9.34-2.46,14a10.84,10.84,0,0,0,.47,4.36c.72,2.57,1.68,5.08,2.54,7.61a5.88,5.88,0,0,0,.39.68,6.31,6.31,0,0,0,.81-.56C51,116.5,57,110.83,63.06,105.11a17,17,0,0,0,2.32-3,1.52,1.52,0,0,0-.09-1.24c-1.71-3.16-3.65-6.21-5.15-9.47a78.27,78.27,0,0,1-3.19-9,3.08,3.08,0,0,0-2.81-2.56c-4-.56-7.59-2.42-11.07-4.39C40.6,74,38.15,72.56,35.72,71.1a12.2,12.2,0,0,1-1.58-1.39c1.27-1.93,2.48-3.86,3.79-5.71a5.34,5.34,0,0,1,1.64-1.37c4.69-2.85,9.51-5.44,15-6.34a2.39,2.39,0,0,0,2.16-2.18c1-5,3.28-9.58,5.73-14,1.26-2.28,3.44-3.64,5.6-5,.48-.29,1-.54,1.44-.87a1.3,1.3,0,0,1,2.11.46C75,41.06,79.12,47,80.43,54.29a2.06,2.06,0,0,0,1.69,1.83c5.81.92,10.83,3.74,15.8,6.66.92.54,1.83,1.14,2.71,1.76a2.07,2.07,0,0,0,2.83-.2c.62-.57,1.24-1.13,1.84-1.71a239.19,239.19,0,0,0,17.4-18.2c.21-.26.38-.56.65-1-.6-.25-1.08-.42-1.53-.64-6.77-3.24-13.78-3-20.87-1.41-1.79.39-3.53,1-5.3,1.46-.68.18-1.38.25-2.33.41C95.22,36.28,96.69,29.48,96.53,22.33Zm2.26,76c0,.54.06,1.09.15,1.62.25,1.46.52,2.91.8,4.36.8,4.07,1.35,8.12-.22,12.16a60.56,60.56,0,0,1-2.22,6.19c-1.25,2.38-.67,4.4.22,6.68a47.73,47.73,0,0,1,2.76,9.13c.68,4.1-.25,8.19-1,12.23l-.51,2.53c1.75-.32,3.29-.58,4.81-.9,3.69-.75,7.44-1.51,11.15-.55,3.47.9,6.84,2.19,10.23,3.38a3.48,3.48,0,0,0,2.65,0c2.11-.84,4.27-1.57,6.39-2.37a21.79,21.79,0,0,1,11.55-1.11c2.67.45,5.33.92,8.12,1.4-.06-.41-.12-.79-.18-1.17-.38-2.41-.91-4.8-1.1-7.22-.23-3-.55-6,.34-8.93s1.82-5.53,2.76-8.28a5.57,5.57,0,0,0,0-3.84c-1.2-3.41-2.67-6.83-3.16-10.36-.44-3.17.23-6.5.51-9.76.16-1.76.52-3.5.79-5.28-1.57.29-3,.62-4.39.79a83.17,83.17,0,0,1-8.45.88c-4.59.08-8.6-2.24-12.85-3.57a3.92,3.92,0,0,0-3.27.06,32.2,32.2,0,0,1-19.11,3C103.3,99.14,101.12,98.68,98.79,98.28Zm24.73,60.55a5.22,5.22,0,0,0-.9-.59c-2.45-.84-4.88-1.77-7.37-2.48-4-1.14-8-.25-12,.41-3.21.54-6.37,1.43-9.69,2.19.07-.55.1-1.06.21-1.55.7-3.23,1.33-6.49,2.13-9.7A21.11,21.11,0,0,0,95,133.05c-.46-1.05-.78-2.17-1.16-3.27-.52-1.5-.75-1.59-1.9-.52-4.58,4.22-9.2,8.41-13.69,12.73-2.18,2.1-4.11,4.45-6.17,6.68a1.74,1.74,0,0,0-.16,2.5c1.45,2.2,2.76,4.49,4.09,6.77a34.36,34.36,0,0,1,4.37,11.21,2.68,2.68,0,0,0,2.42,2.5c5.13.87,9.68,3.17,14.08,5.82,1.47.88,2.92,1.81,4.42,2.63a1.62,1.62,0,0,0,1.39,0,25.08,25.08,0,0,0,3.56-2.82q6.17-6.3,12.2-12.72C120.15,162.78,121.75,160.84,123.52,158.83Zm35.38-66c-.1.53-.14.91-.23,1.27-.44,1.78-1,3.54-1.32,5.34a92.34,92.34,0,0,0-1.54,10.41c-.27,4.36,1.72,8.31,3,12.37.29.91.89.37,1.29,0,5.47-5,11-10,16.38-15.12,1.52-1.45,2.73-3.23,4.11-4.83a1.19,1.19,0,0,0,.07-1.68c-3.92-5.84-7.15-12-8.6-19a2.3,2.3,0,0,0-2-1.94,46.84,46.84,0,0,1-15.82-6.63c-1-.66-2.08-1.34-3.18-1.91a1.51,1.51,0,0,0-1.28,0,18.73,18.73,0,0,0-3,2.34q-6.58,6.74-13.05,13.57c-1.66,1.75-3.21,3.6-5,5.63,3,1,5.65,2,8.4,2.79a11,11,0,0,0,4.13.49c4.28-.48,8.55-1.12,12.8-1.82A48.09,48.09,0,0,0,158.9,92.85Zm-30,65.94c2.13,2.41,4.2,4.79,6.31,7.13a138.33,138.33,0,0,0,14.13,14,1.35,1.35,0,0,0,1.87.15c1.88-1.15,3.8-2.22,5.71-3.3,4.08-2.31,8.2-4.53,12.91-5.24a2.63,2.63,0,0,0,2.35-2.14A103.35,103.35,0,0,1,175.83,159a85.94,85.94,0,0,1,4.92-8.5,1.07,1.07,0,0,0-.08-1.47c-1-1.11-1.78-2.39-2.84-3.4C172,140.07,166,134.53,160.12,129a7.25,7.25,0,0,0-1-.63c-.56,1.51-1.06,2.91-1.6,4.31A21.64,21.64,0,0,0,156,143.92c.44,2.79,1,5.57,1.6,8.34.4,2,.88,4,1.34,6.09-3.52-.77-6.87-1.49-10.21-2.25A27.29,27.29,0,0,0,128.87,158.79ZM93.44,92.93c.55.07.91.08,1.25.16,3,.69,6,1.51,9,2.07a46.22,46.22,0,0,0,7.59.88c4,.09,7.66-1.73,11.4-3,.72-.24.83-.66.31-1.25-3.19-3.52-6.29-7.14-9.58-10.56-3-3.16-6.32-6.1-9.46-9.18-1.47-1.43-1.74-1.45-3.45-.36C94.72,75.35,88.83,78.68,82,80c-.63.12-1.25,1-1.57,1.71a13.61,13.61,0,0,0-.65,2.66c-1.26,5.08-4,9.47-6.58,13.91-2.1,3.56-2.15,3.62.69,6.69a213.59,213.59,0,0,0,18.35,17.37c.77.66,1.15.44,1.44-.45.5-1.56,1.09-3.09,1.61-4.64a18.5,18.5,0,0,0,1.29-8c-.36-3.18-.87-6.33-1.47-9.47C94.7,97.53,94,95.31,93.44,92.93Zm90.32,5.66c.71-1.15,1.33-2.11,1.91-3.09,2.3-3.84,4.53-7.71,5.7-12.08a11.5,11.5,0,0,0,.33-5.37h-16C175.42,86.05,180.09,92,183.76,98.59Zm.15-61.17c-2.81,4.75-5.76,9.09-7.24,14.16a40.42,40.42,0,0,0-1,5.27c-.14.89.28,1.23,1.24,1.21,4.24-.05,8.47,0,12.71,0h2.23C192.27,50,187.49,44.07,183.91,37.42ZM184,214c.39-.71.72-1.29,1-1.89,2-3.92,4-7.8,5.88-11.77a10.22,10.22,0,0,0,.76-7.06c-5,0-9.95,0-14.89.06-.36,0-1,.75-1,1.17a11.9,11.9,0,0,0,.3,3.2C177.44,203.61,180.74,208.63,184,214ZM68.6,98.54c3.88-6.5,8.17-12.61,8.15-20.49h-16a10.09,10.09,0,0,0,.59,6.24A76.55,76.55,0,0,0,68.6,98.54Zm7.86,94.7c-5,0-9.87,0-14.74,0-.89,0-1.29.49-1.22,1.26a14.1,14.1,0,0,0,.65,4.45c2,4.43,4.23,8.74,6.4,13.09a19.07,19.07,0,0,0,1.07,1.71L69.69,212c2.6-4.31,5.21-8.61,6.49-13.55A10.43,10.43,0,0,0,76.46,193.24Zm115.17-20c1.22-4.52-2.13-11.45-7.72-20.32-3.06,4.59-5.92,9.25-7.47,14.56a25.91,25.91,0,0,0-.69,4.83c0,.29.47.89.73.89C181.51,173.25,186.55,173.24,191.63,173.24Zm-115.15,0a9.8,9.8,0,0,0-.78-6.8c-2.1-4.43-4.35-8.8-6.53-13.2a3.47,3.47,0,0,1-.17-.45l-.41,0c-.13.24-.26.49-.4.73-2.45,4-5,8-6.49,12.52a44.22,44.22,0,0,0-1.19,6.19c-.08.5,0,1,.79,1C66.33,173.23,71.37,173.24,76.48,173.24ZM68.64,37.53c-1.06,1.75-2,3.34-3,4.94A43.07,43.07,0,0,0,61.1,52.59,11.06,11.06,0,0,0,60.65,58h16C76.83,50,72.3,44,68.64,37.53ZM38.26,183.38l3.5,2.1a47.45,47.45,0,0,0,11.57,5.39,10.85,10.85,0,0,0,5.23.29V175.87c0-.28,0-.55-.05-.83C52.76,175.18,42.8,179.26,38.26,183.38ZM173.7,76V59.9a26.46,26.46,0,0,0-4.06.3,43.53,43.53,0,0,0-12,5.24c-1.39.81-2.75,1.68-4.29,2.63,2.53,1.47,4.84,2.89,7.22,4.18,1.65.89,3.37,1.65,5.1,2.38A14.86,14.86,0,0,0,173.7,76ZM194,191.15c4.45.75,16.29-4,20.17-8-1.28-.75-2.56-1.47-3.8-2.24a40.67,40.67,0,0,0-11.76-5.28A37.24,37.24,0,0,0,194,175ZM58.51,59.84c-7.91.22-14,4.42-20.49,8.18.89.52,1.62.93,2.33,1.36a54.88,54.88,0,0,0,11.91,5.85,13.62,13.62,0,0,0,6.25.77ZM193.92,76.2a25.71,25.71,0,0,0,4.15-.3c5.94-1.46,11-4.8,16.3-7.83-5.08-3.26-10.21-6.16-16-7.76a25.16,25.16,0,0,0-4.5-.43Zm-40.65,107c1.68,1,3.16,1.86,4.62,2.76a38.85,38.85,0,0,0,11,4.88,37.32,37.32,0,0,0,4.79.56V175.08a21.07,21.07,0,0,0-4,.31C163.82,177,158.72,180.22,153.27,183.24Zm-74.49-107c8,.09,13.89-4.55,20.31-8.09a65.62,65.62,0,0,0-14.93-7.53,10,10,0,0,0-5.38-.47ZM99.11,183.3c-1.6-1-2.94-1.92-4.4-2.63-3.43-1.68-6.87-3.39-10.42-4.78-1.67-.66-3.62-.62-5.51-.91v16.53a24.46,24.46,0,0,0,4.93-.6A77.64,77.64,0,0,0,99.11,183.3Zm95.61-48c3.46-3.07,6.74-6,10-8.91.63-.56.6-1,0-1.58-3.32-2.89-6.62-5.79-10-8.75-2.64,3-5.24,6-7.8,9a1.18,1.18,0,0,0,0,1.14C189.45,129.23,192,132.18,194.72,135.33ZM79.47,116.08l-8.26,9.55,7.46,8.76a1,1,0,0,0,1.65.16q4.62-4.1,9.26-8.17c.59-.51.61-.92,0-1.45C86.23,122,82.9,119.09,79.47,116.08Zm-32.63,9.59c.92.76,1.8,1.44,2.62,2.18,2.44,2.19,4.85,4.4,7.27,6.6.48.43,1,1,1.6.24l7.69-9-8.29-9.57Zm69.83,68.44c3,3.41,5.83,6.72,8.69,10,.65.75,1.13.67,1.74,0,1.83-2.16,3.7-4.29,5.57-6.42,1-1.16,2.06-2.3,3.16-3.53l-9.62-8.29ZM173,135.25l8.29-9.61-8.3-9.57-10.85,9.58ZM135.8,78.93c-2.85-2.49-5.63-4.88-8.38-7.31a1.55,1.55,0,0,0-2.39,0c-2.64,2.32-5.33,4.58-8,6.85-.14.13-.39.13-.61.2l9.81,11.1Zm-19.22-21.8c3,2.59,5.86,5.07,8.72,7.56a1.35,1.35,0,0,0,2-.14c2.34-2.06,4.7-4.1,7.05-6.14.47-.41.92-.84,1.41-1.28L127,47.23c-.59-.66-1.16-.59-1.7.07-.69.83-1.36,1.67-2.08,2.47C121.07,52.2,118.87,54.62,116.58,57.13Zm19.24,115.19c-1-1.1-2-2.15-3-3.26q-2.88-3.28-5.7-6.64c-.65-.78-1.16-.79-1.79,0s-1.47,1.8-2.23,2.67c-2.13,2.42-4.28,4.83-6.44,7.26,3,2.58,5.88,5.11,8.79,7.67a1.07,1.07,0,0,0,1.59,0C129.93,177.47,132.84,174.92,135.82,172.32Zm48.06-49.55c2.14-2.49,4.17-4.9,6.25-7.26s1.85-2.27-.11-4.27c-2.14-2.18-4.2-4.45-6.31-6.7-.47.58-1,1.24-1.53,1.85q-2.7,2.88-5.45,5.73c-.67.69-1,1.35-.22,2.19C178.93,117.07,181.33,119.85,183.88,122.77Zm-45.53,68.5c3-2.59,5.77-5,8.55-7.37.67-.57.47-.92-.15-1.38a29.72,29.72,0,0,1-3.42-2.79c-1.52-1.53-2.9-3.2-4.43-4.9-3.23,2.76-6.08,5.19-8.92,7.63a.92.92,0,0,0,0,1.54C132.81,186.5,135.68,189,138.35,191.27Zm45.54-62.76-7.49,8.63a1.11,1.11,0,0,0,0,1.69q3.38,3.57,6.73,7.15a.83.83,0,0,0,1.41,0q3.21-3.48,6.45-6.93a1.36,1.36,0,0,0,.1-2Zm-6-66.47a1.53,1.53,0,0,0-.12.4c0,3.64,0,7.27,0,10.9,0,.79.45.79,1,.79H189a7.26,7.26,0,0,0,.74-.11V62ZM74.58,74.12V62.06h-12V74.12ZM62.64,177.18v12.07H74.58V177.18ZM177.8,189.24h12V177.19h-12ZM138.46,60.14a4.88,4.88,0,0,0-.93.58c-2.61,2.23-5.19,4.49-7.79,6.72-.65.56-.31.93.17,1.34,1.79,1.52,3.57,3.06,5.35,4.6l3.25,2.77c.34-.29.6-.48.83-.7,2.48-2.4,4.61-5.2,7.7-7a1.12,1.12,0,0,0-.07-1C144.2,65.05,141.39,62.66,138.46,60.14ZM114.18,175.36c-.16,0-.25,0-.31.1l-8.34,7.19c-.61.52-.43.9.13,1.32a33.72,33.72,0,0,1,3.33,2.72c1.55,1.54,3,3.22,4.45,4.84a2.26,2.26,0,0,1,.54-.37c2.88-2.46,5.76-4.91,8.6-7.42.17-.15.07-1-.17-1.16C119.69,180.13,116.91,177.74,114.18,175.36ZM123.35,68l-9.65-8.28a9,9,0,0,1-.73.93c-2.33,2.39-4.41,5.07-7.41,6.75-.72.4-.5.85.06,1.29,1.07.82,2.16,1.64,3.16,2.55,1.7,1.55,3.34,3.18,5.15,4.91ZM68.61,128.47c-2.33,2.74-4.55,5.36-6.77,8-1.4,1.64-1.41,1.7.15,3.17,2.15,2,4.41,3.94,5.88,6.57.43.78,1,.59,1.45.08,2.41-2.75,4.8-5.53,7.28-8.4Zm8.21-15.27c-.46-.42-.87-.74-1.22-1.12-2-2.15-4.08-4.25-6-6.5-1-1.2-1-1.27-2-.08-2.14,2.41-4.36,4.75-6.56,7.1a3.65,3.65,0,0,1-.77.48l8.34,9.76Z" transform="translate(0.5 0.5)"/><path class="cls-1" d="M106.36,125.64a10.89,10.89,0,0,1,1.07-.91c2.2-1.38,4.35-2.84,6.63-4.08a18.18,18.18,0,0,0,7.1-7.11c1.34-2.31,2.81-4.54,4.26-6.79.57-.9,1-.88,1.68.12,2,3.06,3.85,6.17,5.88,9.19a9.57,9.57,0,0,0,2.51,2.64c3.2,2.17,6.5,4.21,9.76,6.3.3.19.58.41,1,.7-.28.22-.49.43-.74.59-3.51,2.21-7,4.41-10.54,6.64a4.27,4.27,0,0,0-1.29,1.21q-3.3,5.09-6.5,10.2c-.75,1.19-1.12,1.21-1.92,0-2.14-3.37-4.26-6.76-6.45-10.1a5.84,5.84,0,0,0-1.71-1.61c-3.26-2.1-6.56-4.13-9.83-6.2A8.26,8.26,0,0,1,106.36,125.64Zm19.87,13.44c1.26-2.05,2.4-3.9,3.54-5.77a11.71,11.71,0,0,1,4.28-4.25c1.39-.78,2.72-1.68,4.06-2.54s1.26-1-.06-1.86c-1.15-.71-2.29-1.45-3.47-2.12a12.89,12.89,0,0,1-5.22-5.28c-.89-1.7-2.05-3.26-3.15-5-1.44,2.29-2.66,4.46-4.12,6.44a15.32,15.32,0,0,1-3.17,3c-1.53,1.15-3.2,2.1-4.79,3.17-1,.68-1,1,.07,1.62,1.37.89,2.75,1.77,4.15,2.62a13.38,13.38,0,0,1,4.71,4.83C124,135.62,125.07,137.22,126.23,139.08Z" transform="translate(0.5 0.5)"/></g></svg>