<svg id="Layer_2" data-name="Layer 2" xmlns="http://www.w3.org/2000/svg" width="10.83in" height="12.34in" viewBox="0 0 779.57 888.39"><defs><style>.cls-1,.cls-2,.cls-3,.cls-4,.cls-5,.cls-6,.cls-7,.cls-8{fill:#fff;stroke-miterlimit:10;}.cls-1{stroke:#5b449b;}.cls-2{stroke:#aa7a2c;}.cls-3{stroke:#2b7d7f;}.cls-4{stroke:#cc2e5c;}.cls-5{stroke:#79973c;}.cls-6{stroke:#dc4026;}.cls-7{stroke:#3661ad;}.cls-8{stroke:#166d3f;}</style></defs><rect class="cls-1" x="263.78" y="2.99" width="252" height="252" rx="12"/><path class="cls-1" d="M434.59,205.35a51,51,0,0,0,.52-7.4c0-21.34-11.62-46.86-29.1-58.74,10-5.75,16.59-15.79,16.59-27.22a30.06,30.06,0,0,0-7.31-19.52c10.84-1.94,31-65.56,18.18-71.26-11.23-4.36-42.6,39.17-43.11,58.64-1.22-.11-2.47-.17-3.73-.17s-2.5.06-3.72.17c-.51-19.47-31.88-63-43.11-58.64C327,26.91,347.14,90.53,358,92.47A30.07,30.07,0,0,0,350.66,112c0,11.14,6.28,21,15.82,26.77-17.7,12.12-29,39.58-29,61.4,0,28.88,19.75,36.93,48,36.93,17.56,0,32.42-4,41.17-13.87a10.29,10.29,0,1,0,7.89-17.87Z"/><rect class="cls-2" x="0.5" y="521.69" width="252" height="252" rx="12"/><g id="MXVjN7"><path class="cls-2" d="M94.19,758.73c3.1-12.07,12.53-9.55,17-9.77-3.27-3.34,2.27-8.72-2.28-13.36-1.43-1.63-5.19-4.1-6.43-2.57-.76,3.64-2.63,8.07-3.66,11.64-3.62,12.64-19.69,19.5-31.63,13.7-2.57-1.25-3-2.68-1.63-5.13,2.34-4.22,5.37-7.38,10.55-7.18,4.84.19,6.77-2.36,6.2-6.69C80,722.08,80,704.45,73.08,687.87,67.6,674.69,69,661,72.17,647.34c1-4.52,1.74-9.12,2.69-14.17l-6.52-1.11c-6.92-1.19-10.6-5.77-13.18-12-3.34-8,.36-12.82,5.36-17.87,9.69-9.77,9.64-9.82,32.6-17.11-1.34-19.81,3.55-37,20.34-49.75a2.12,2.12,0,0,1,3.36,1.4c2.39,16.16-6.4,29.87-7.66,44.81,7-16.27,23.85-19.7,36.49-29.64a2.55,2.55,0,0,1,4.12,1.72,16.53,16.53,0,0,1-2.6,11.1c-5.85,9.14-11.6,18.6-21.1,24.39-13.29,8.1-10.38,37.87,4.92,46.5,2.19,1.24,4.45,2.36,6.72,3.47,28.24,13.86,46,36.16,52.43,66.9,1.49,7.11-.14,14.88-.36,23.15-.28-.1.85.3,2,.72,8.69,3.22,9.69,7.52,3,14.23-6.17,6.2-13.58,9.3-22.55,8.36a7.25,7.25,0,0,0-5,1.82c-4.21,3.81-8.84,6-14.63,6-16.45-.14-32.9-.06-49.35-.23C100.35,760,97.41,759.21,94.19,758.73Z"/></g><rect class="cls-3" x="0.5" y="261.1" width="252" height="252" rx="12"/><path class="cls-3" d="M226.79,309.5c-1.76-2.8-10.31-.8-21.35,4.46,9.81-14.59,14.6-27.14,10.94-30s-15,5.21-27,18.76c2.75-12.92,2.71-22.56-.6-23.62-4-1.27-11.3,10.22-17.36,26.6-1.63-11.8-4.7-20-7.92-19.89-4.28.16-7.19,15-6.5,33.12a108,108,0,0,0,3,22.43c-15.34-7.24-31.91-.53-42.1,12.8C107,368.41,11.81,485.91,27.66,494.66S163,399.39,175.3,385.85c8.3-9.13,6.08-22.72-1.53-33a108.67,108.67,0,0,0,22.33-2.69c17.73-3.83,31.38-10.33,30.47-14.51-.68-3.15-9.4-4.1-21.23-2.74C219.7,323,229,313,226.79,309.5Z"/><rect class="cls-4" x="0.5" y="0.5" width="252" height="252" rx="12"/><g id="u0VWlr"><path class="cls-4" d="M206.28,145.86c-.47-4.93-.84-10.49-1.55-16-3.82-29.26-12.91-56.7-28.95-81.61-7.37-11.43-16.12-21.63-28.05-28.6-13.93-8.14-28-8.35-42.13-.36C94.37,25.65,85.72,34.81,78.81,45.47c-23.66,36.51-35,76.44-31.44,120,1.58,19.23,8.26,36.83,21.85,51.12,14.74,15.5,33.3,22.48,54.34,22.94,27.26.61,50.35-8.35,66.6-31.26C203.29,189.79,206.39,168.52,206.28,145.86Z"/></g><rect class="cls-5" x="527.07" y="261.1" width="252" height="252" rx="12"/><path class="cls-5" d="M669.86,279.47c6,3.64,9.78,9.24,12.65,15.41,1.59,3.41,2.49,7.14,3.7,10.72.06.18.13.36.27.77a14.69,14.69,0,0,1,7.47-8.71,24.42,24.42,0,0,1,11.44-2.32c-.3.48-.49.81-.71,1.12a27.37,27.37,0,0,0-5.38,18.08,158.72,158.72,0,0,1-2.1,34.76c-1.56,8.51-4,16.7-8.88,24-5.64,8.38-13.57,13.13-23.48,14.65-2.71.42-5.47.56-8.3.84v74.77a2.51,2.51,0,0,0,.25-.49c2-7.54,6.15-13.85,11.24-19.57a109.6,109.6,0,0,1,37.76-27.76,19.71,19.71,0,0,1,8.54-2.13c1.76.05,2.06.26,2.4,2,1.13,5.65-.06,11-2.43,16.07-3.1,6.71-7.71,12.31-12.95,17.41a114.69,114.69,0,0,1-30.83,21.52c-3.76,1.79-7.58,3.41-11.78,3.85-.71.07-1.44,0-2.28,0v20.31h-6.79V474.45c-4.85.18-9.07-1.56-13.19-3.51-14.51-6.87-27.31-16.09-37.68-28.45-4.25-5.07-7.64-10.65-9.18-17.18a23.7,23.7,0,0,1-.22-10,1.88,1.88,0,0,1,2-1.73,17.34,17.34,0,0,1,7.11,1.42,90.17,90.17,0,0,1,20.65,11.54A100.34,100.34,0,0,1,641.71,448a46.79,46.79,0,0,1,7.87,15.41V388.73c-2.29-.17-4.55-.27-6.8-.51-14.44-1.51-24.48-9.09-30.55-22.15A79.31,79.31,0,0,1,606,343.52a181,181,0,0,1-1.33-30.87,25.05,25.05,0,0,0-5.11-15.78c-.32-.44-.61-.89-1-1.5A23.86,23.86,0,0,1,610,297.64a14.62,14.62,0,0,1,7.5,8.78c.47-1.77.8-3.28,1.26-4.75a44.52,44.52,0,0,1,11.2-19,42.1,42.1,0,0,1,4.14-3.19h.48c.7.36,1.42.7,2.1,1.1a31.42,31.42,0,0,1,13.47,16c.74,1.86,1.24,3.81,1.87,5.77.08-.23.16-.41.21-.6,2.42-10,7.84-17.62,17.15-22.29Z"/><rect class="cls-6" x="263.78" y="521.69" width="252" height="252" rx="12"/><circle class="cls-6" cx="389.78" cy="647.69" r="61.89"/><polygon class="cls-6" points="389.78 531.03 376.43 577.29 403.14 577.29 389.78 531.03"/><polygon class="cls-6" points="307.29 565.2 330.56 607.36 349.45 588.47 307.29 565.2"/><polygon class="cls-6" points="273.12 647.69 319.38 661.05 319.38 634.34 273.12 647.69"/><polygon class="cls-6" points="307.29 730.18 349.45 706.92 330.56 688.03 307.29 730.18"/><polygon class="cls-6" points="389.78 764.35 403.14 718.09 376.43 718.09 389.78 764.35"/><polygon class="cls-6" points="472.27 730.18 449.01 688.03 430.12 706.92 472.27 730.18"/><polygon class="cls-6" points="506.44 647.69 460.18 634.34 460.18 661.05 506.44 647.69"/><polygon class="cls-6" points="472.27 565.2 430.12 588.47 449.01 607.36 472.27 565.2"/><rect class="cls-7" x="527.07" y="2.99" width="252" height="252" rx="12"/><path class="cls-7" d="M688.28,20.9h5.46a1.91,1.91,0,0,0,.49.21c8.15.89,14.61,4.92,20,10.82,5.83,6.31,9.7,13.79,12.77,21.73a2.25,2.25,0,0,0,1.66,1.55c5.2,1.45,10.39,3,15.58,4.46l9.61,2.79.21.38a11.37,11.37,0,0,0-1.31,1q-8.85,8.5-17.67,17a1.81,1.81,0,0,0-.53,1.35,189.6,189.6,0,0,1,2.27,31.93,121.29,121.29,0,0,1-4.67,32.69c-6.49,21.86-19.12,38.77-39.84,49.1a2.33,2.33,0,0,0-1,1.18c-1.43,3.83-2.82,7.68-4.14,11.54a2.06,2.06,0,0,0,.3,1.65c2.36,2.89,4.81,5.7,7.21,8.56a3.17,3.17,0,0,1-.33,4.81,10.69,10.69,0,0,1-1.17.94,3.06,3.06,0,0,1-4-.32c-.52-.51-1-1.09-1.44-1.64l-4-4.66c-1.32,3.63-2.46,7-3.79,10.34a5.22,5.22,0,0,1-2,2.37,3.3,3.3,0,0,1-3.91-.67,3.22,3.22,0,0,1-.93-3.73c.93-2.68,1.9-5.36,3-8.34-2.06,1-3.8,2-5.58,2.86-2.1,1-3.63.37-4.89-2.1-1.07-2.1-.61-3.77,1.4-4.81,4.12-2.11,8.26-4.2,12.38-6.31.23-.12.52-.28.6-.49.86-2.32,1.68-4.65,2.51-7-.17-.1-.21-.15-.24-.14l-2.61.77a89,89,0,0,1-22.28,3.57,2,2,0,0,0-2.21,1.63c-.87,2.77-1.9,5.49-3,8.2a2.16,2.16,0,0,0,.43,2.55c2.42,2.71,4.76,5.51,7.08,8.31,1.42,1.72,1.06,3.41-1,5.13-1.75,1.47-3.54,1.42-4.93-.16-.72-.82-1.41-1.67-2.12-2.5-1-1.11-1.91-2.21-3-3.46-1.21,3.37-2.38,6.47-3.43,9.61a5.49,5.49,0,0,1-2.63,3.42h-1.91c-2.92-1.42-3.43-2.71-2.33-5.78.84-2.32,1.67-4.65,2.63-7.3-2,1-3.6,1.86-5.25,2.68-2.34,1.17-3.91.67-5.07-1.58-1.28-2.48-.84-4.05,1.52-5.29,3-1.55,5.89-3.29,9-4.55a7.89,7.89,0,0,0,5.16-6,46.9,46.9,0,0,1,1.68-4.87c-1.88-.14-3.56-.23-5.23-.39s-3.44-.33-5.15-.58a122,122,0,0,1-52.42-20.52,103.38,103.38,0,0,1-32.65-35.69c-.23-.41-.41-.85-.65-1.34a5.25,5.25,0,0,1,.65-.2,75.23,75.23,0,0,0,21.75-7.26c23.07-11.67,41-28.9,54.61-50.77,3.91-6.28,6.47-13.19,9.59-19.84,5.78-12.32,13-23.66,22.94-33.07,5.64-5.33,11.91-9.72,19.37-12.11C683.32,21.89,685.83,21.48,688.28,20.9Z"/><rect class="cls-8" x="263.78" y="263.24" width="252" height="252" rx="12"/><path class="cls-8" d="M388.06,285.6h3.44a2.05,2.05,0,0,0,.37.13,16.75,16.75,0,0,1,6,2,25.41,25.41,0,0,1,9.6,9.94c4.46,7.77,6,16.22,5.78,25.08v1.14l.57-.17a49.86,49.86,0,0,1,18.8-3.29,33,33,0,0,1,15.4,3.79c4.8,2.65,8.21,6.43,9.37,11.94.18.87.28,1.76.41,2.64V340c-.19,1.17-.31,2.36-.58,3.52a26.79,26.79,0,0,1-7.48,12.74,46.55,46.55,0,0,1-18.49,11.23c-1.14.39-2.3.73-3.45,1.09a1.44,1.44,0,0,0,.07.22l.5.64c5.24,6.79,8.88,14.29,10,22.87a26.18,26.18,0,0,1-1.23,13.13c-2.61,6.71-7.52,10.46-14.73,11a25.44,25.44,0,0,1-12.1-2.25,44.75,44.75,0,0,1-16.7-12.84l-.82-1v48.5c2.31-1.48,4.59-3,6.89-4.41,4.48-2.81,8.93-5.67,13.46-8.38a19.27,19.27,0,0,1,7.39-2.74c2.72-.35,4.43.9,4.88,3.6a12.84,12.84,0,0,1-.65,6,53.15,53.15,0,0,1-12.19,20.57,14.14,14.14,0,0,1-19.46,1.12,2.92,2.92,0,0,0-.41-.21V479c0,3.33,0,6.66,0,10a3.74,3.74,0,0,1-4.19,3.85,3.81,3.81,0,0,1-3.38-4q0-11.41,0-22.84v-1l-.4.22c-6.13,4.23-13.51,3.64-18.69-1.69A53.22,53.22,0,0,1,354.49,445a18.7,18.7,0,0,1-1.43-6.92c.06-3.55,2-5.28,5.43-4.58a20.6,20.6,0,0,1,5.82,2.06c4,2.24,7.95,4.74,11.88,7.18,3,1.85,5.91,3.77,8.88,5.67v-46c-.28.29-.46.49-.64.69a46.86,46.86,0,0,1-9.64,8.18c-5.08,3.18-10.49,5.3-16.6,5.26a16.53,16.53,0,0,1-15.63-10.63c-2-5.11-2.07-10.38-1.08-15.69a48.13,48.13,0,0,1,9.73-20.84l.61-.81-.89-.26c-8.13-2.36-15.41-6.2-21.36-12.31a26.58,26.58,0,0,1-7.23-12.42c-.26-1.07-.39-2.17-.58-3.26v-1.8a1.74,1.74,0,0,0,.13-.36,16.14,16.14,0,0,1,6.37-11.71c5-4,11-5.55,17.27-5.92a49,49,0,0,1,20.05,3.18c.22.08.45.14.73.22,0-.27,0-.46,0-.65A52.47,52.47,0,0,1,367,312.4a40.46,40.46,0,0,1,7.44-18.2,21.19,21.19,0,0,1,11.06-8C386.31,286,387.19,285.79,388.06,285.6Z"/></svg>