<svg id="Layer_2" data-name="Layer 2" xmlns="http://www.w3.org/2000/svg" width="12.8in" height="1.87in" viewBox="0 0 921.88 134.45"><defs><style>.cls-1{fill:none;stroke:#000;stroke-miterlimit:10;}</style></defs><path class="cls-1" d="M925.2,33.36c-.69,1.28-1.43,2.54-2.07,3.85-3.26,6.62-6.49,13.25-9.8,20a6.68,6.68,0,0,1-.49-.7c-3.74-7.41-7.5-14.81-11.2-22.24a2.5,2.5,0,0,1-.1-1.86c3.65-8,7.36-15.92,11.06-23.88A3.87,3.87,0,0,1,913,8c1.3,2.65,2.56,5.2,3.8,7.77q4,8.28,8,16.59a2.59,2.59,0,0,0,.44.51Zm-12,17.21a5.09,5.09,0,0,0,.34-.46c2.61-5.29,5.2-10.59,7.84-15.87a2.51,2.51,0,0,0-.11-2.46c-2.31-4.72-4.58-9.47-6.87-14.2-.42-.87-.87-1.71-1.37-2.68a4.81,4.81,0,0,0-.36.5q-4,8.61-8,17.23a1.61,1.61,0,0,0,0,1.2c2.62,5.25,5.26,10.47,7.91,15.7C912.74,49.84,912.93,50.13,913.18,50.57Z" transform="translate(-3.82 -4.99)"/><path class="cls-1" d="M925.2,111.36c-.93,1.74-1.9,3.47-2.77,5.24-3,6.14-6,12.31-9.12,18.62-.53-1-1-1.81-1.45-2.68-3.39-6.68-6.76-13.39-10.17-20.06a2.47,2.47,0,0,1,0-2.44c3.65-7.75,7.24-15.53,10.85-23.3.09-.21.23-.41.45-.8l.91,1.93q5.39,11.14,10.79,22.28a4.75,4.75,0,0,0,.54.73ZM913,92.82c-.26.44-.46.72-.6,1-2.54,5.45-5,10.91-7.62,16.35a2,2,0,0,0,0,2c2.27,4.43,4.5,8.89,6.75,13.34.5,1,1,1.93,1.63,3a5.64,5.64,0,0,0,.36-.5c2.68-5.48,5.37-11,8-16.45a1.71,1.71,0,0,0-.12-1.3c-1.56-3.32-3.16-6.61-4.76-9.91C915.51,97.9,914.3,95.45,913,92.82Z" transform="translate(-3.82 -4.99)"/><path class="cls-1" d="M4.32,7.68C5.38,5.79,6,5.53,8.2,6,17.52,8.24,24,13.72,27.34,22.73c.78,2.09,1.47,4.21,2.2,6.32A2.66,2.66,0,0,1,29.18,32c-.87.92-1.94.76-3,.52C16.31,30.25,9.84,24.27,6.5,14.8c-.72-2.05-1.45-4.11-2.18-6.16ZM7.77,9.11c1.37,9.81,10.8,20,18.76,20.31C24.79,19.28,15.51,9.23,7.77,9.11Z" transform="translate(-3.82 -4.99)"/><path class="cls-1" d="M4.32,85c1-1.94,1.7-2.25,3.94-1.7a26.6,26.6,0,0,1,13.45,7.35A31,31,0,0,1,28,101.51c.58,1.57,1.08,3.17,1.59,4.76a2.51,2.51,0,0,1-3.21,3.46c-5.21-1.28-10-3.4-13.72-7.35a30.76,30.76,0,0,1-6.38-11c-.66-1.82-1.3-3.65-1.95-5.48Zm3.35,1.25c2.44,11,10.93,20.16,18.78,20.36C25.7,97.45,16.49,87.42,7.67,86.21Z" transform="translate(-3.82 -4.99)"/><path class="cls-1" d="M4.32,58.56c.73-2.06,1.42-4.13,2.19-6.17,2.14-5.68,5.22-10.66,10.53-14a30.15,30.15,0,0,1,9.73-3.83c2-.43,3.5,1,2.93,3C28.18,42.87,26.38,48,22.91,52.4c-4,5.05-9.49,7.64-15.65,9-1.51.33-2.35-.61-2.94-1.85ZM26.56,37.64c-4.68,1.18-8.8,3.12-12,6.62C11,48.2,9.17,53.08,7.64,58.15,16.14,57.37,24.6,48.17,26.56,37.64Z" transform="translate(-3.82 -4.99)"/><path class="cls-1" d="M4.32,135.84c1.07-2.9,2-5.85,3.23-8.7,3.65-8.71,10.44-13.54,19.52-15.4a2.24,2.24,0,0,1,2.66,2.75c-2.29,8.27-5.32,16.11-13.37,20.69a30.57,30.57,0,0,1-9.15,3.38c-1.48.3-2.26-.63-2.89-1.76Zm3.35-.34c4.83-1.26,9-3.26,12.26-6.92,3.45-3.9,5.17-8.66,6.67-13.66C16.2,117.26,10.86,123.69,7.67,135.5Z" transform="translate(-3.82 -4.99)"/><path class="cls-1" d="M146.25,8.17c4,8.3,8,16.44,11.87,24.6a1.59,1.59,0,0,1,0,1.21q-5.58,11.51-11.24,23a4.22,4.22,0,0,1-.3.46c-.16-.28-.29-.47-.39-.67q-5.64-11.16-11.3-22.32a2,2,0,0,1,0-2c3.64-7.75,7.24-15.53,10.86-23.3C145.88,8.89,146,8.61,146.25,8.17Zm.23,42.65a7.56,7.56,0,0,0,.48-.7c2.53-5.16,5-10.34,7.61-15.47a2.78,2.78,0,0,0-.07-2.78c-1.68-3.4-3.3-6.82-5-10.23-1-2.15-2.1-4.29-3.19-6.51a4.64,4.64,0,0,0-.39.49q-4,8.63-8,17.26a1.61,1.61,0,0,0,0,1.2c2.58,5.18,5.2,10.34,7.82,15.5C146,50,146.22,50.34,146.48,50.82Z" transform="translate(-3.82 -4.99)"/><path class="cls-1" d="M745.72,72.56c-2.66,1.27-5.19,2.49-7.73,3.69-5.26,2.5-10.53,5-15.76,7.5a3.31,3.31,0,0,1-3.32,0c-7-3.61-14.12-7.1-21.18-10.64-.36-.17-.7-.37-1.18-.63.48-.27.84-.49,1.21-.68,7.32-3.64,14.64-7.26,22-10.92a1.65,1.65,0,0,1,1.64,0c7.95,3.79,15.92,7.54,23.88,11.31A5.18,5.18,0,0,1,745.72,72.56Zm-42.63,0c5.44,2.72,10.66,5.28,15.83,7.94a3.23,3.23,0,0,0,3.3,0c3.74-1.88,7.55-3.6,11.33-5.4,1.74-.82,3.46-1.67,5.31-2.58a3.82,3.82,0,0,0-.53-.37c-5.58-2.64-11.17-5.26-16.74-7.93a2.06,2.06,0,0,0-2.09,0c-5.08,2.59-10.19,5.12-15.29,7.68C703.9,72.07,703.61,72.26,703.09,72.55Z" transform="translate(-3.82 -4.99)"/><path class="cls-1" d="M759.65,86.33c4,8.27,7.92,16.35,11.8,24.44a1.68,1.68,0,0,1,.06,1.3q-5.58,11.52-11.24,23c-.07.14-.17.26-.3.47-.15-.24-.28-.42-.38-.62q-5.65-11.16-11.27-22.34a2.3,2.3,0,0,1-.12-1.74c3.63-7.94,7.33-15.85,11-23.76A8.1,8.1,0,0,1,759.65,86.33Zm.1,6.94a3.58,3.58,0,0,0-.38.43c-2.69,5.78-5.39,11.56-8,17.35a1.62,1.62,0,0,0,.06,1.22c2.62,5.24,5.28,10.47,7.94,15.7.16.31.35.6.57,1a5,5,0,0,0,.33-.46c2.68-5.49,5.37-11,8-16.47a1.73,1.73,0,0,0-.07-1.3c-1.11-2.39-2.26-4.76-3.41-7.13C763.11,100.18,761.46,96.78,759.75,93.27Z" transform="translate(-3.82 -4.99)"/><path class="cls-1" d="M209.63,72.42c-2.42,1.17-4.66,2.27-6.92,3.34Q194,79.9,185.19,84a1.87,1.87,0,0,1-1.4.11c-7.69-3.78-15.36-7.61-23-11.43-.1,0-.19-.14-.43-.31l2.47-1.19Q173,66.09,183.24,61a2.14,2.14,0,0,1,2.12-.07q10.95,5.24,21.92,10.43Zm-42.78,0c.29.18.38.26.49.31,5.5,2.75,11,5.51,16.51,8.23a1.83,1.83,0,0,0,1.31-.11c4.4-2,8.8-4.14,13.19-6.22,1.42-.68,2.83-1.38,4.4-2.15-.47-.25-.7-.4-.95-.51-5.05-2.39-10.13-4.7-15.12-7.21a4.36,4.36,0,0,0-4.5,0C177.2,67.35,172.12,69.77,166.85,72.38Z" transform="translate(-3.82 -4.99)"/><path class="cls-1" d="M684.08,57.67c-.35-.64-.68-1.18-1-1.75-3.5-6.9-7-13.82-10.5-20.71a2.9,2.9,0,0,1-.07-2.89c3.67-7.75,7.25-15.53,10.86-23.31a3.8,3.8,0,0,1,.36-.53c.3.61.54,1.13.79,1.65Q690,21.38,695.43,32.65a2.14,2.14,0,0,1,.12,1.62c-3.66,7.59-7.37,15.14-11.07,22.7C684.38,57.18,684.25,57.37,684.08,57.67ZM684,51.05a5.54,5.54,0,0,0,.37-.6c2.56-5.23,5.08-10.47,7.69-15.67a2.53,2.53,0,0,0,0-2.55c-1.65-3.27-3.21-6.59-4.81-9.89-1.11-2.3-2.23-4.59-3.39-7a2.93,2.93,0,0,0-.35.38c-2.69,5.77-5.39,11.54-8,17.34a1.8,1.8,0,0,0,.14,1.41c2.42,4.89,4.89,9.77,7.36,14.64C683.26,49.74,683.61,50.31,684,51.05Z" transform="translate(-3.82 -4.99)"/><path class="cls-1" d="M438.85,72l-9.57,4.57c-5,2.37-10,4.75-15,7.08a1.82,1.82,0,0,1-1.41,0Q401.47,78,390.16,72.31c-.14-.07-.27-.16-.54-.31.37-.22.64-.42.94-.57q11-5.49,21.95-11a1.92,1.92,0,0,1,1.89-.08c6,2.87,12,5.69,17.93,8.52ZM396.2,71.9a5.6,5.6,0,0,0,.6.44q8.08,4.05,16.17,8.07a1.75,1.75,0,0,0,1.31,0q6.45-3,12.86-6.06c1.56-.74,3.11-1.5,4.88-2.35-6.16-2.92-12-5.73-18-8.49a1.59,1.59,0,0,0-1.2.12C407.31,66.33,401.8,69.1,396.2,71.9Z" transform="translate(-3.82 -4.99)"/><path class="cls-1" d="M773.46,72.12c1-.53,2-1,2.94-1.49,6.64-3.32,13.28-6.66,20-9.94a2.49,2.49,0,0,1,1.86-.17c7.88,3.67,15.73,7.41,23.58,11.14.25.12.49.26.89.48-2.38,1.15-4.64,2.26-6.91,3.34C810,78.21,804.24,81,798.45,83.63a2.34,2.34,0,0,1-1.76.08c-7.61-3.72-15.18-7.5-22.76-11.27C773.8,72.37,773.68,72.27,773.46,72.12Zm6.52-.07a5.62,5.62,0,0,0,.62.43c5.43,2.7,10.86,5.41,16.31,8.07a1.89,1.89,0,0,0,1.41-.1c2.73-1.23,5.43-2.52,8.13-3.8,3.1-1.47,6.18-3,9.4-4.49-.45-.25-.75-.45-1.07-.6-5.55-2.64-11.09-5.28-16.66-7.87a2,2,0,0,0-1.52.15c-3.91,1.91-7.79,3.87-11.68,5.81C783.32,70.44,781.7,71.21,780,72.05Z" transform="translate(-3.82 -4.99)"/><path class="cls-1" d="M849.77,72.11l11.66-5.83c3.78-1.88,7.58-3.74,11.36-5.65a2.05,2.05,0,0,1,2-.06c6.61,3.17,13.24,6.3,19.87,9.44l4.44,2.11c-2.78,1.34-5.39,2.61-8,3.85-5.11,2.43-10.25,4.8-15.34,7.28a3.76,3.76,0,0,1-3.77,0c-7-3.59-14-7-21-10.54Zm6.7,0a3.39,3.39,0,0,0,.49.36c5.41,2.71,10.82,5.43,16.26,8.1a1.7,1.7,0,0,0,1.31,0c4.12-1.9,8.22-3.85,12.33-5.79,1.75-.82,3.49-1.67,5.31-2.53a2.9,2.9,0,0,0-.39-.33c-5.55-2.62-11.11-5.21-16.63-7.89a2.73,2.73,0,0,0-2.75.07c-4.89,2.51-9.82,4.95-14.73,7.41Z" transform="translate(-3.82 -4.99)"/><path class="cls-1" d="M606.82,57.52c-.16-.28-.34-.54-.48-.81q-5.54-11-11.09-21.89a2.34,2.34,0,0,1,0-2.32c3.61-7.68,7.17-15.38,10.76-23.08.14-.32.33-.61.56-1,1.82,3.73,3.58,7.33,5.33,11,2.13,4.41,4.24,8.84,6.4,13.24a1.78,1.78,0,0,1,0,1.77q-5.64,11.48-11.24,23C607,57.41,606.93,57.44,606.82,57.52Zm-.16-42.19a2.38,2.38,0,0,0-.37.42c-2.71,5.81-5.43,11.63-8.11,17.46a1.49,1.49,0,0,0,.13,1.08q3.86,7.71,7.74,15.4c.21.41.47.81.79,1.36.28-.53.49-.91.68-1.3,2.47-5,4.92-10.11,7.43-15.14a2.23,2.23,0,0,0,0-2.22c-1.08-2.18-2.12-4.38-3.18-6.56C610.08,22.35,608.39,18.87,606.66,15.33Z" transform="translate(-3.82 -4.99)"/><path class="cls-1" d="M760,57.63c-1.2-2.31-2.31-4.43-3.4-6.56q-4.17-8.22-8.31-16.45a2,2,0,0,1-.13-1.52c3.75-8.19,7.55-16.35,11.45-24.75.54,1,1,1.89,1.42,2.77,3.34,6.89,6.64,13.79,10,20.67a3.39,3.39,0,0,1,0,3.4c-3.55,7.05-7,14.16-10.45,21.25C760.41,56.8,760.22,57.14,760,57.63Zm-.19-42.3c-.21.16-.3.19-.33.25-2.68,5.74-5.38,11.48-8,17.24a2.34,2.34,0,0,0,.09,1.76c2.61,5.25,5.28,10.47,7.94,15.69a6.87,6.87,0,0,0,.45.65c.11-.11.19-.16.22-.22q4.1-8.33,8.16-16.66a1.43,1.43,0,0,0,0-1.09c-.93-2-1.9-4-2.87-6.05C763.52,23.06,761.66,19.23,759.78,15.33Z" transform="translate(-3.82 -4.99)"/><path class="cls-1" d="M606.82,135.58c-3-6-6-11.83-8.94-17.66-.9-1.78-1.77-3.57-2.73-5.32a1.86,1.86,0,0,1,0-1.89q4.25-9,8.45-18.09c1-2,1.91-4.09,3-6.34.85,1.72,1.6,3.24,2.34,4.76q4.73,9.79,9.42,19.62a1.86,1.86,0,0,1,.12,1.4q-5.58,11.52-11.23,23C607.09,135.2,607,135.32,606.82,135.58Zm0-6.57c.2-.31.32-.47.41-.64,2.63-5.37,5.27-10.74,7.86-16.13a2.17,2.17,0,0,0-.06-1.64c-2.12-4.51-4.3-9-6.47-13.48-.62-1.27-1.26-2.53-2-3.93l-.37.66c-2.63,5.63-5.29,11.25-7.87,16.91a2.32,2.32,0,0,0,.1,1.75c1.93,3.94,3.92,7.85,5.9,11.77C605.12,125.8,605.93,127.31,606.81,129Z" transform="translate(-3.82 -4.99)"/><path class="cls-1" d="M146.59,135.41c-.52-1-1-1.79-1.4-2.63-3.4-6.69-6.76-13.39-10.19-20.06a2.48,2.48,0,0,1-.05-2.43c3.69-7.82,7.32-15.66,11-23.5a6.34,6.34,0,0,1,.35-.59c1.36,2.8,2.69,5.51,4,8.23q3.15,6.51,6.29,13a10.51,10.51,0,0,0,.93,1.94c1.11,1.45.61,2.72-.11,4.16-3.47,7-6.86,14-10.28,20.94C147,134.77,146.81,135,146.59,135.41Zm-.08-6.62a4.47,4.47,0,0,0,.39-.54c2.66-5.44,5.34-10.89,8-16.36a1.91,1.91,0,0,0-.1-1.42c-1.55-3.32-3.16-6.62-4.76-9.93-1.2-2.46-2.41-4.93-3.68-7.51-.23.41-.41.68-.54,1-2.53,5.42-5,10.85-7.59,16.26a2.43,2.43,0,0,0,.08,2.43c2.23,4.32,4.4,8.68,6.6,13C145.38,126.7,145.92,127.67,146.51,128.79Z" transform="translate(-3.82 -4.99)"/><path class="cls-1" d="M453,57.06c-1.79-3.49-3.53-6.89-5.26-10.3-2.09-4.13-4.14-8.28-6.28-12.38a2.6,2.6,0,0,1,0-2.56c3.11-6.6,6.18-13.21,9.27-19.81l2-4.23c1.23,2.5,2.37,4.79,3.49,7.09q4.15,8.61,8.28,17.25a1.85,1.85,0,0,1,.13,1.39q-5.62,11.63-11.35,23.21A3,3,0,0,1,453,57.06Zm0-6.53c.32-.63.57-1.08.8-1.55,2.37-4.87,4.7-9.76,7.14-14.6a2.82,2.82,0,0,0,0-2.86c-2.33-4.71-4.59-9.46-6.88-14.2-.4-.83-.85-1.64-1.39-2.68l-1.31,2.83c-2.28,4.87-4.58,9.74-6.82,14.63a2.22,2.22,0,0,0-.11,1.65c2.63,5.32,5.33,10.61,8,15.91C452.56,49.9,452.73,50.12,453,50.53Z" transform="translate(-3.82 -4.99)"/><path class="cls-1" d="M592.72,72.52l-12.69,6c-3.85,1.83-7.69,3.67-11.57,5.45a2.31,2.31,0,0,1-1.74.12c-7.6-3.72-15.16-7.5-22.73-11.27a5.31,5.31,0,0,1-.52-.34c.43-.24.77-.47,1.14-.66,7.32-3.64,14.65-7.26,21.95-10.92a1.8,1.8,0,0,1,1.77,0q9.75,4.67,19.55,9.28C589.41,70.93,591,71.67,592.72,72.52Zm-42.67,0c.48.28.81.48,1.16.65,5,2.5,10,5,14.95,7.51a2.66,2.66,0,0,0,2.66,0c3.8-1.85,7.62-3.64,11.44-5.45l5.47-2.62a3.65,3.65,0,0,0-.56-.43c-5.65-2.69-11.29-5.38-17-8a2.15,2.15,0,0,0-1.63,0c-5.19,2.54-10.36,5.14-15.53,7.74C550.74,72.09,550.46,72.28,550.05,72.52Z" transform="translate(-3.82 -4.99)"/><path class="cls-1" d="M132.44,72.35c-3.42,1.64-6.72,3.23-10,4.8-4.39,2.09-8.81,4.13-13.18,6.26a3.84,3.84,0,0,1-3.88.09c-7.19-3.69-14.47-7.24-21.71-10.84-.14-.07-.27-.17-.5-.31.43-.23.8-.43,1.17-.61C91.48,68.15,98.65,64.58,105.8,61a2.62,2.62,0,0,1,2.57-.06q11.05,5.31,22.14,10.55Zm-7,.06a4.76,4.76,0,0,0-.55-.41q-8.31-3.94-16.63-7.89a2.29,2.29,0,0,0-2.24,0c-5,2.57-10.06,5.06-15.09,7.59l-1.16.62a2.32,2.32,0,0,0,.36.31c5.46,2.74,10.92,5.49,16.39,8.19a1.76,1.76,0,0,0,1.33-.08c2.62-1.18,5.21-2.41,7.8-3.64Z" transform="translate(-3.82 -4.99)"/><path class="cls-1" d="M299.37,8.22,306,21.86c1.72,3.56,3.44,7.12,5.1,10.7a2.16,2.16,0,0,1,0,1.62c-2.39,5-4.85,10-7.28,15q-1.86,3.82-3.7,7.65c-.1.2-.24.39-.43.69l-5.58-11c-2-3.91-4-7.84-6-11.72a2.4,2.4,0,0,1,0-2.43Q293.52,20.71,298.91,9C299,8.82,299.14,8.63,299.37,8.22Zm.06,6.87a6.86,6.86,0,0,0-.42.68q-4,8.57-7.94,17.15a1.9,1.9,0,0,0,.14,1.43c1.66,3.36,3.37,6.69,5.07,10,1.08,2.13,2.18,4.26,3.32,6.49.2-.31.35-.49.45-.69q4-8.11,7.91-16.25a2,2,0,0,0-.12-1.42c-1.31-2.82-2.66-5.63-4-8.43S301,18.21,299.43,15.09Z" transform="translate(-3.82 -4.99)"/><path class="cls-1" d="M299.64,135.43l-6.84-13.52c-1.58-3.13-3.14-6.28-4.77-9.39a2.1,2.1,0,0,1,0-2.1c3.11-6.6,6.18-13.22,9.26-19.82.67-1.44,1.34-2.88,2.09-4.47,2.42,5,4.76,9.79,7.09,14.61,1.57,3.23,3.14,6.46,4.65,9.71a2,2,0,0,1,.1,1.52c-3.66,7.58-7.37,15.13-11.07,22.68C300,134.86,299.87,135.05,299.64,135.43Zm-.17-42.31c-.16.15-.28.21-.32.31-2.69,5.77-5.39,11.54-8,17.33a1.89,1.89,0,0,0,0,1.44c2.61,5.24,5.27,10.46,7.93,15.68.15.3.35.59.58,1,.19-.31.32-.51.42-.72,2.63-5.37,5.27-10.73,7.85-16.11a1.91,1.91,0,0,0,0-1.43c-1.12-2.46-2.31-4.9-3.49-7.34C302.77,99.88,301.13,96.52,299.47,93.12Z" transform="translate(-3.82 -4.99)"/><path class="cls-1" d="M223.8,57.52c-.29-.5-.52-.87-.72-1.26q-5.49-10.84-10.93-21.7a2.46,2.46,0,0,1-.1-1.86c3.7-8,7.46-16.05,11.2-24.06,0-.07.1-.11.25-.27.65,1.31,1.28,2.58,1.89,3.85q4.92,10.17,9.8,20.36a2,2,0,0,1,.09,1.51c-3.68,7.61-7.41,15.19-11.13,22.78C224.06,57.05,224,57.22,223.8,57.52Zm-.05-6.62a3,3,0,0,0,.28-.37c2.7-5.52,5.41-11,8.07-16.57a1.9,1.9,0,0,0-.14-1.41c-1.05-2.29-2.16-4.54-3.26-6.8-1.7-3.49-3.4-7-5.18-10.62-.18.32-.29.48-.37.65-2.63,5.63-5.28,11.26-7.86,16.91a2.34,2.34,0,0,0,.08,1.76c2.4,4.87,4.86,9.71,7.31,14.55C223,49.63,223.37,50.23,223.75,50.9Z" transform="translate(-3.82 -4.99)"/><path class="cls-1" d="M669.83,72.64l-9.44,4.49c-5,2.36-9.94,4.72-14.93,7a2.06,2.06,0,0,1-1.54,0Q632.43,78.55,621,72.81c-.07,0-.12-.1-.25-.22.27-.16.5-.33.76-.46,7.35-3.68,14.7-7.38,22.08-11a2.55,2.55,0,0,1,2-.07c7.94,3.7,15.86,7.48,23.78,11.24A5.11,5.11,0,0,1,669.83,72.64Zm-6.85,0a4.38,4.38,0,0,0-.57-.41c-5.65-2.68-11.29-5.38-17-8a2.32,2.32,0,0,0-1.75.1c-4.79,2.34-9.56,4.75-14.33,7.14l-2.08,1.07a3.84,3.84,0,0,0,.44.35c5.45,2.73,10.9,5.47,16.37,8.16A1.73,1.73,0,0,0,645.4,81q5.31-2.45,10.6-5C658.3,74.9,660.59,73.79,663,72.65Z" transform="translate(-3.82 -4.99)"/><path class="cls-1" d="M376.59,135c-.83-1.58-1.62-3.05-2.38-4.54-3.08-6.08-6.17-12.16-9.22-18.27a2.36,2.36,0,0,1-.15-1.74q5.51-12,11.11-24a5.83,5.83,0,0,1,.37-.57c.91,1.86,1.79,3.62,2.65,5.4q3.31,6.82,6.61,13.68c.85,1.75,1.71,3.51,2.49,5.3a1.76,1.76,0,0,1,.06,1.31q-5.61,11.56-11.3,23.1A2,2,0,0,1,376.59,135Zm-.2-42.28a9.75,9.75,0,0,0-.53.87c-2.59,5.56-5.19,11.12-7.73,16.71a2.31,2.31,0,0,0,.07,1.73c1.91,3.9,3.89,7.77,5.86,11.64.81,1.58,1.64,3.14,2.46,4.74a2.4,2.4,0,0,0,.24-.18c2.74-5.58,5.49-11.16,8.2-16.76a1.56,1.56,0,0,0-.1-1.19c-.81-1.78-1.66-3.54-2.52-5.29C380.4,100.93,378.45,96.92,376.39,92.68Z" transform="translate(-3.82 -4.99)"/><path class="cls-1" d="M452.69,85.83c1.95,4,3.84,7.89,5.71,11.77,2,4.16,4,8.32,6,12.51a2,2,0,0,1,.09,1.5c-3.68,7.61-7.41,15.2-11.13,22.79-.09.18-.19.35-.34.62-.41-.75-.8-1.41-1.15-2.1q-5.31-10.47-10.57-20.95a2.29,2.29,0,0,1,0-1.76q5.52-12,11.14-24A5.07,5.07,0,0,1,452.69,85.83Zm.3,42.65c2.82-5.75,5.59-11.36,8.31-17a2,2,0,0,0-.14-1.42c-1-2.1-2-4.17-3-6.25l-5.45-11.21c-.24.44-.42.73-.56,1-2.56,5.48-5.13,11-7.64,16.47a2.33,2.33,0,0,0,0,1.76c2.32,4.72,4.71,9.41,7.09,14.11C452,126.8,452.49,127.58,453,128.48Z" transform="translate(-3.82 -4.99)"/><path class="cls-1" d="M684.08,135.67c-.74-1.41-1.39-2.63-2-3.87-3.17-6.23-6.31-12.46-9.49-18.68a2.56,2.56,0,0,1-.14-2.56c3.69-7.82,7.31-15.68,11-23.53.07-.14.18-.26.38-.57.87,1.76,1.69,3.41,2.49,5.07,2.8,5.78,5.51,11.61,8.43,17.33a5.22,5.22,0,0,1,0,5.39c-3.51,6.81-6.78,13.74-10.14,20.62C684.43,135.08,684.3,135.28,684.08,135.67ZM684,129a5.37,5.37,0,0,0,.37-.54c2.69-5.48,5.38-11,8-16.45a1.76,1.76,0,0,0-.13-1.3c-1.49-3.17-3-6.33-4.55-9.49-1.26-2.6-2.53-5.2-3.87-7.94a5,5,0,0,0-.47.7c-2.64,5.66-5.29,11.33-7.88,17a2,2,0,0,0,.13,1.52c1.87,3.79,3.78,7.56,5.7,11.33C682.16,125.55,683,127.2,684,129Z" transform="translate(-3.82 -4.99)"/><path class="cls-1" d="M530.56,8.21c.68,1.42,1.25,2.64,1.84,3.85,3.22,6.64,6.43,13.28,9.69,19.9a2.93,2.93,0,0,1,0,2.91c-3.55,7.14-7,14.32-10.54,21.48-.17.36-.37.7-.65,1.22-1.24-2.44-2.42-4.72-3.59-7-2.71-5.34-5.43-10.67-8.11-16a2,2,0,0,1-.15-1.54C522.81,24.81,526.63,16.65,530.56,8.21Zm.05,6.89c-.27.54-.41.78-.53,1-2.55,5.49-5.08,11-7.67,16.46a1.88,1.88,0,0,0,0,1.88c2.69,5.25,5.34,10.52,8,15.78a5.65,5.65,0,0,0,.42.63c.2-.32.34-.5.44-.71,2.63-5.37,5.26-10.74,7.84-16.13a1.83,1.83,0,0,0-.07-1.41c-1.91-4.08-3.86-8.13-5.82-12.19C532.43,18.74,531.57,17,530.61,15.1Z" transform="translate(-3.82 -4.99)"/><path class="cls-1" d="M223.79,135.49c-.66-1.26-1.31-2.45-1.92-3.65-3.14-6.19-6.25-12.4-9.44-18.57a3.36,3.36,0,0,1,0-3.41c3.64-7.63,7.16-15.31,10.73-23,.06-.15.14-.28.33-.65.85,1.73,1.63,3.31,2.4,4.9q4.71,9.75,9.38,19.51a1.9,1.9,0,0,1,.08,1.4q-5.51,11.37-11.09,22.68C224.1,135,224,135.2,223.79,135.49Zm-.06-6.61c.16-.25.25-.37.32-.5,2.66-5.39,5.33-10.79,7.94-16.21a2.15,2.15,0,0,0-.05-1.63c-1.49-3.22-3.05-6.4-4.59-9.59-1.24-2.57-2.5-5.14-3.8-7.83-.22.35-.39.57-.51.81-2.6,5.6-5.22,11.19-7.77,16.81a2.17,2.17,0,0,0,.06,1.64c2.06,4.19,4.18,8.35,6.29,12.5C222.28,126.19,223,127.47,223.73,128.88Z" transform="translate(-3.82 -4.99)"/><path class="cls-1" d="M285.58,72.36c-8.3,3.93-16.41,7.77-24.53,11.57a2,2,0,0,1-1.55,0c-7.65-3.77-15.27-7.6-22.9-11.42a1.41,1.41,0,0,1-.32-.25L251,65c2.6-1.3,5.23-2.56,7.79-3.94a2.91,2.91,0,0,1,2.91,0c5.78,2.79,11.58,5.54,17.38,8.3C281.17,70.29,283.3,71.29,285.58,72.36Zm-7,0a3.14,3.14,0,0,0-.51-.33c-5.61-2.67-11.24-5.32-16.84-8a2,2,0,0,0-2,0q-6.78,3.44-13.59,6.81c-.92.46-1.85.9-2.8,1.36.11.14.13.19.16.2,5.56,2.8,11.12,5.61,16.7,8.37a1.8,1.8,0,0,0,1.32-.1c2.72-1.24,5.42-2.52,8.12-3.8Z" transform="translate(-3.82 -4.99)"/><path class="cls-1" d="M836.56,85.88,841,95.07c2.44,5.06,4.89,10.12,7.29,15.2a2,2,0,0,1,.06,1.53q-5.54,11.48-11.17,22.89a3.74,3.74,0,0,1-.24.4,4.76,4.76,0,0,1-.47-.65c-3.76-7.39-7.53-14.77-11.25-22.18a2.31,2.31,0,0,1-.12-1.76C828.86,102.36,832.66,94.24,836.56,85.88Zm.23,42.63a3.08,3.08,0,0,0,.37-.45c2.67-5.43,5.35-10.86,8-16.33a2.18,2.18,0,0,0-.14-1.63c-1.93-4.11-3.91-8.19-5.89-12.28-.79-1.63-1.59-3.25-2.46-5a7.28,7.28,0,0,0-.42.68c-2.53,5.46-5,10.93-7.62,16.36a2.73,2.73,0,0,0,0,2.76c1.86,3.52,3.62,7.1,5.42,10.65C834.94,125,835.84,126.69,836.79,128.51Z" transform="translate(-3.82 -4.99)"/><path class="cls-1" d="M376.31,7.83,382,19.52c2,4.16,4,8.32,6,12.51a2.31,2.31,0,0,1,.06,1.75C384.39,41.4,380.67,49,377,56.58c-.07.14-.18.26-.31.47-.48-.87-1-1.69-1.39-2.54-3.38-6.65-6.73-13.31-10.12-19.95a2.77,2.77,0,0,1-.09-2.77c3.65-7.7,7.22-15.45,10.81-23.18C376,8.4,376.09,8.21,376.31,7.83Zm.25,42.62c.2-.29.28-.38.33-.48,2.68-5.48,5.38-10.95,8-16.44a1.89,1.89,0,0,0-.12-1.41c-1.6-3.42-3.25-6.83-4.9-10.24-1.13-2.34-2.29-4.67-3.52-7.17-.26.44-.44.7-.57,1-2.55,5.49-5.09,11-7.67,16.47a1.88,1.88,0,0,0,0,1.88c2.32,4.55,4.61,9.11,6.92,13.66C375.53,48.57,376,49.43,376.56,50.45Z" transform="translate(-3.82 -4.99)"/><path class="cls-1" d="M530.59,86.29c1.79,3.65,3.52,7.18,5.24,10.73,2.1,4.34,4.15,8.7,6.3,13a2.66,2.66,0,0,1,0,2.67c-2.48,5-4.91,9.94-7.35,14.91-1.26,2.58-2.5,5.16-3.83,7.9a8.22,8.22,0,0,1-.53-.83c-3.7-7.29-7.37-14.59-11.08-21.87a2.41,2.41,0,0,1-.08-2.42c3.65-7.75,7.24-15.53,10.85-23.3C530.24,86.86,530.39,86.64,530.59,86.29Zm.09,6.9a3.37,3.37,0,0,0-.36.47q-4.07,8.72-8.12,17.45a1.27,1.27,0,0,0,.08,1q4,7.92,8,15.8c.15.3.35.57.62,1,.3-.54.52-.91.71-1.29,2.45-5,4.86-10,7.35-15a2.31,2.31,0,0,0,0-2.33c-1.76-3.53-3.44-7.1-5.16-10.65C532.8,97.49,531.78,95.43,530.68,93.19Z" transform="translate(-3.82 -4.99)"/><path class="cls-1" d="M836.56,7.92c1.38,2.84,2.69,5.52,4,8.21,2.57,5.32,5.14,10.63,7.67,16a2.38,2.38,0,0,1,.13,1.75q-5.46,11.32-11,22.59c-.1.21-.22.4-.42.73-.54-1-1-1.9-1.51-2.81q-5.1-10-10.19-20.06a2.08,2.08,0,0,1,0-2C829,24.23,832.71,16.17,836.56,7.92Zm.28,42.7a6.78,6.78,0,0,0,.44-.65q4-8.11,7.91-16.24a1.91,1.91,0,0,0-.1-1.42c-2.16-4.57-4.37-9.13-6.57-13.69-.6-1.24-1.23-2.45-1.93-3.84-2.84,6.06-5.59,11.9-8.27,17.77a2.22,2.22,0,0,0,.18,1.66c2.12,4.3,4.29,8.56,6.46,12.83C835.53,48.18,836.14,49.3,836.84,50.62Z" transform="translate(-3.82 -4.99)"/><path class="cls-1" d="M362.39,72c-3.88,1.86-7.54,3.62-11.21,5.36-4.32,2-8.65,4.07-13,6.15a2,2,0,0,1-2,0c-7.27-3.66-14.56-7.26-21.84-10.89-.38-.19-.75-.41-1.29-.7l3.21-1.62q10-5,19.95-9.89a2,2,0,0,1,1.52-.15c7.94,3.72,15.86,7.49,23.78,11.25C361.79,71.64,362,71.77,362.39,72Zm-6.83,0c-.4-.25-.53-.34-.67-.41-5.68-2.7-11.36-5.41-17.07-8.07a1.84,1.84,0,0,0-1.41.12c-5.2,2.54-10.37,5.12-15.55,7.69-.33.16-.64.38-1.07.63.31.19.46.31.63.39,5.39,2.69,10.77,5.38,16.18,8a1.91,1.91,0,0,0,1.41,0c3.83-1.77,7.64-3.6,11.46-5.41Z" transform="translate(-3.82 -4.99)"/><path class="cls-1" d="M7.22,72.3c.36-.2.62-.37.9-.51q11.12-5.57,22.25-11.1a1.87,1.87,0,0,1,1.4-.13C39.64,64.25,47.48,68,55.33,71.72c.32.15.62.33,1.09.58-3.17,1.52-6.19,3-9.23,4.42-5,2.39-10.09,4.78-15.15,7.12a2,2,0,0,1-1.53.07c-7.59-3.72-15.16-7.5-22.73-11.26C7.62,72.57,7.47,72.45,7.22,72.3Zm42.33,0c-.48-.29-.73-.48-1-.61C43,69.09,37.46,66.44,31.89,63.86a2.05,2.05,0,0,0-1.53.12c-3.78,1.82-7.53,3.7-11.28,5.56l-5.43,2.72c1.23.63,2.21,1.14,3.19,1.63,4.32,2.17,8.65,4.31,13,6.5a2.67,2.67,0,0,0,2.78,0C34.22,79.51,36,78.8,37.65,78Z" transform="translate(-3.82 -4.99)"/><path class="cls-1" d="M70.28,8.08c1.69,3.46,3.28,6.72,4.86,10,2.2,4.56,4.38,9.13,6.63,13.67a3,3,0,0,1,0,3c-3.55,7.1-7,14.25-10.5,21.38-.19.39-.4.77-.67,1.31-1.16-2.24-2.26-4.35-3.34-6.48C64.53,45.49,61.79,40,59,34.61a2.31,2.31,0,0,1-.06-2.25C62.69,24.35,66.43,16.32,70.28,8.08Zm.32,42.68a4,4,0,0,0,.31-.46c2.68-5.48,5.38-11,8-16.46a1.7,1.7,0,0,0-.1-1.3q-2.92-6.22-5.94-12.41c-.8-1.67-1.63-3.32-2.5-5.07a2.7,2.7,0,0,0-.34.41c-2.66,5.71-5.34,11.41-7.95,17.14a2.28,2.28,0,0,0,.11,1.75c2.57,5.19,5.21,10.34,7.84,15.49C70.19,50.12,70.36,50.38,70.6,50.76Z" transform="translate(-3.82 -4.99)"/><path class="cls-1" d="M467.43,72.41c7.32-3.66,14.48-7.17,21.57-10.83a4.6,4.6,0,0,1,4.71-.15c7.44,3.67,15,7.16,22.46,10.72.1,0,.19.14.45.31-.65.33-1.22.63-1.79.9q-11.36,5.39-22.71,10.73a1.68,1.68,0,0,1-1.3,0q-11.38-5.61-22.72-11.28C467.93,72.73,467.77,72.62,467.43,72.41Zm42.42.07c-.35-.22-.47-.31-.61-.38-5.7-2.71-11.38-5.43-17.1-8.08a2.22,2.22,0,0,0-1.64.17c-5.13,2.52-10.23,5.08-15.34,7.64-.32.16-.63.37-1,.59a2.9,2.9,0,0,0,.39.33c5.46,2.72,10.92,5.45,16.4,8.13a1.76,1.76,0,0,0,1.31-.08c3.44-1.59,6.86-3.22,10.29-4.84Z" transform="translate(-3.82 -4.99)"/><path class="cls-1" d="M70.61,135.38c-1.5-2.93-2.92-5.69-4.32-8.46-2.45-4.84-4.91-9.68-7.31-14.55a2.33,2.33,0,0,1-.12-1.75c3.67-8,7.4-16,11.11-24,.07-.14.17-.25.34-.51,1.17,2.39,2.29,4.67,3.39,7q4.2,8.67,8.36,17.35a1.89,1.89,0,0,1,.12,1.39c-3.7,7.65-7.45,15.28-11.19,22.91C70.9,134.9,70.79,135.07,70.61,135.38Zm-.09-6.61c.22-.35.34-.5.42-.66,2.6-5.26,5.17-10.53,7.79-15.78a2.48,2.48,0,0,0-.15-2.46c-1.72-3.51-3.39-7-5.1-10.56-1-2.06-2-4.11-3.11-6.33a8,8,0,0,0-.44.68c-2.41,5.17-4.74,10.38-7.27,15.49a4.34,4.34,0,0,0,.15,4.48C65.44,118.56,67.89,123.57,70.52,128.77Z" transform="translate(-3.82 -4.99)"/><path class="cls-1" d="M672.43,8.54a1.78,1.78,0,0,1,0,.58c-1.69,5.5-3.5,10.94-7.32,15.44-3.63,4.27-8.36,6.68-13.69,8.05a6.15,6.15,0,0,1-2.54.26,2.14,2.14,0,0,1-1.7-2.82c1.68-5.63,3.55-11.19,7.51-15.73s9.33-7,15.19-8.22A2.28,2.28,0,0,1,672.43,8.54Zm-22,21.15c7.74-.16,17.65-10.91,18.66-20.26C661.37,9.57,651.41,20.38,650.43,29.69Z" transform="translate(-3.82 -4.99)"/><path class="cls-1" d="M799.91,29.72c.41-1.27.91-2.91,1.47-4.53,1.67-4.87,3.87-9.45,7.75-13a27.29,27.29,0,0,1,13.62-6.52,2.28,2.28,0,0,1,2.51,2.82c-1.7,5.66-3.54,11.27-7.55,15.86-3.58,4.09-8.18,6.39-13.32,7.79-.54.14-1.09.27-1.63.38C801.21,32.8,799.87,31.67,799.91,29.72ZM822,8.78c-4.87,1.24-9.11,3.32-12.35,7.07s-5,8.54-6.5,13.41C811.42,28.68,820.57,18.73,822,8.78Z" transform="translate(-3.82 -4.99)"/><path class="cls-1" d="M543.49,83.27a31.35,31.35,0,0,1,8.47,3c6.37,3.33,9.9,8.93,12.25,15.45.63,1.72,1.2,3.46,1.69,5.23.57,2.06-.9,3.52-3,3.06-9.26-2-15.92-7.24-19.47-16.14-1-2.4-1.79-4.86-2.58-7.32C540.21,84.63,541.31,83.19,543.49,83.27Zm.53,3.24c.71,9,11.32,20.51,18.72,20.28C561.29,97,552,86.9,544,86.51Z" transform="translate(-3.82 -4.99)"/><path class="cls-1" d="M592.74,83.26a2.28,2.28,0,0,1,2.36,3.2c-1,3.09-2.1,6.18-3.42,9.16a22.32,22.32,0,0,1-10.93,11.59,51.61,51.61,0,0,1-8,2.84,2.26,2.26,0,0,1-2.86-2.75c1.64-5.86,3.64-11.58,7.82-16.2,3.93-4.34,9-6.6,14.62-7.81A2.08,2.08,0,0,1,592.74,83.26Zm-.8,3.09c-4.78,1.24-9,3.25-12.2,6.9-3.44,3.91-5.18,8.66-6.67,13.62C581.46,106.18,590.83,96,591.94,86.35Z" transform="translate(-3.82 -4.99)"/><path class="cls-1" d="M796.1,30a2.38,2.38,0,0,1-2.91,2.5c-9.59-2-16.38-7.35-19.9-16.6-.88-2.31-1.68-4.66-2.41-7-.64-2,.7-3.54,2.78-3.12,9.68,1.92,16.37,7.46,19.94,16.7.86,2.22,1.56,4.51,2.33,6.78A5.9,5.9,0,0,1,796.1,30ZM774,8.86c1.27,9.7,11.74,21,18.76,20.31C789.67,18,784.7,11.34,774,8.86Z" transform="translate(-3.82 -4.99)"/><path class="cls-1" d="M490.1,37.45c-.41,1.28-.92,2.95-1.49,4.61-1.64,4.71-3.75,9.14-7.42,12.67-3.91,3.76-8.67,5.74-13.87,6.84a2.31,2.31,0,0,1-2.58-2.88c1.73-5.74,3.64-11.4,7.74-16a25.37,25.37,0,0,1,11.45-7.09,30,30,0,0,1,3.36-.85C488.78,34.42,490.07,35.5,490.1,37.45Zm-22.05,21a23.53,23.53,0,0,0,11.36-6c4-4,5.86-9.14,7.47-14.48C478.3,38.81,469.06,48.88,468.05,58.42Z" transform="translate(-3.82 -4.99)"/><path class="cls-1" d="M365,8.3c-.39,1.23-.88,2.9-1.46,4.55-1.61,4.63-3.66,9-7.22,12.51a27.19,27.19,0,0,1-13.67,7,2.32,2.32,0,0,1-2.94-2.91c1.63-5.52,3.46-11,7.29-15.45,4-4.69,9.26-7.17,15.18-8.4C363.8,5.22,365,6.26,365,8.3Zm-3.32.44c-4.16.55-9.62,3.7-12.56,7.24-3.19,3.84-4.85,8.39-6.29,13.17C351.52,28.17,360.82,18,361.68,8.74Z" transform="translate(-3.82 -4.99)"/><path class="cls-1" d="M339.65,106.68c.36-1.1.86-2.69,1.39-4.27,1.65-4.8,3.75-9.34,7.49-12.91a27.31,27.31,0,0,1,13.88-6.81A2.2,2.2,0,0,1,365,85.45c-2.14,7.56-4.8,14.85-11.66,19.61a29.29,29.29,0,0,1-10.88,4.48C340.9,109.86,339.64,108.76,339.65,106.68Zm22-20.75C353,87,344.41,96.38,343,106.23,350.21,106.65,360.12,95.94,361.69,85.93Z" transform="translate(-3.82 -4.99)"/><path class="cls-1" d="M59,135.74c0,2.08-1.21,3.1-2.82,2.79-10.11-2-16.86-7.87-20.36-17.53-.7-1.94-1.31-3.92-2-5.88a2.48,2.48,0,0,1,3-3.34c10.83,2.31,17.41,9.09,20.73,19.39C58.07,132.83,58.59,134.5,59,135.74Zm-3.33-.46C54.52,125.81,44.38,114.82,37,115,38.11,124.52,48,135.25,55.66,135.28Z" transform="translate(-3.82 -4.99)"/><path class="cls-1" d="M212.17,58.76c0,2-1.27,3.06-2.84,2.74a27.23,27.23,0,0,1-13.48-6.58A27.79,27.79,0,0,1,189,44.09c-.78-2.05-1.44-4.14-2.1-6.24a2.37,2.37,0,0,1,2.89-3.09C200.66,37,207.31,43.69,210.64,54,211.19,55.71,211.74,57.41,212.17,58.76ZM209,58.28c-2-6-4-11.83-9.14-15.89a25.12,25.12,0,0,0-9.77-4.58C191.7,48,200.83,57.85,209,58.28Z" transform="translate(-3.82 -4.99)"/><path class="cls-1" d="M235.92,61.47c-1.62,0-2.79-1.21-2.38-2.69,1.91-6.8,4.22-13.42,9.82-18.24a28.32,28.32,0,0,1,12.42-5.87,2.38,2.38,0,0,1,2.94,3.17c-1.65,5.56-3.54,11-7.46,15.48s-9.1,6.87-14.85,8.1A4,4,0,0,1,235.92,61.47Zm19.62-23.56c-7.72.09-18,11.33-18.68,20.32C245.23,57.4,254.12,47.74,255.54,37.91Z" transform="translate(-3.82 -4.99)"/><path class="cls-1" d="M464.68,85.68a2.39,2.39,0,0,1,2.74-2.51C476.49,85,483.29,89.83,487,98.52c1.13,2.68,2,5.45,2.94,8.22.69,2.12-.77,3.64-3,3.18a27.21,27.21,0,0,1-13.14-6.48,28,28,0,0,1-6.94-11c-.74-2-1.36-4-2-6C464.76,86.09,464.71,85.78,464.68,85.68Zm22.13,21.13c-1.83-7-5-13.43-10.24-16.83a24.6,24.6,0,0,0-8.63-3.67C471.33,98.39,476.61,104.52,486.81,106.81Z" transform="translate(-3.82 -4.99)"/><path class="cls-1" d="M212.18,85.93c-.41,1.28-.92,2.95-1.49,4.61-1.69,4.87-3.89,9.43-7.76,13a27.75,27.75,0,0,1-13.51,6.5,2.36,2.36,0,0,1-2.59-2.9c1.74-5.87,3.72-11.65,8-16.28A25.28,25.28,0,0,1,206,84.06c1.06-.34,2.15-.6,3.23-.85C210.82,82.85,212.17,83.94,212.18,85.93Zm-22.1,20.85c8.28-.65,17.7-10.92,18.74-20.33C201.06,86.61,192.05,96.36,190.08,106.78Z" transform="translate(-3.82 -4.99)"/><path class="cls-1" d="M519.31,59a2.37,2.37,0,0,1-2.93,2.49c-10.28-2.09-17.05-8.17-20.49-18-.63-1.81-1.24-3.62-1.79-5.46-.65-2.15.72-3.67,2.92-3.21q14.81,3.06,20,17.26c.76,2.1,1.43,4.23,2.13,6.35A4.09,4.09,0,0,1,519.31,59ZM497.08,37.86c2,6.33,4.2,12.32,9.67,16.38a24.14,24.14,0,0,0,9.3,4.16C512.8,46.68,507.67,40.28,497.08,37.86Z" transform="translate(-3.82 -4.99)"/><path class="cls-1" d="M640.57,112.05c1.79,0,2.73.94,2.63,2.42a8.48,8.48,0,0,1-.48,2.08c-1.57,5-3.38,9.82-6.82,13.88-4,4.72-9.31,7.15-15.21,8.45a2.28,2.28,0,0,1-2.7-3,46.6,46.6,0,0,1,5.29-12.78c3.72-5.85,9.26-9.07,15.83-10.75C639.68,112.21,640.27,112.11,640.57,112.05Zm-.54,3.07c-4.8,1.24-9,3.22-12.23,6.87-3.47,3.92-5.25,8.69-6.72,13.7C629.73,134.74,637.71,126.07,640,115.12Z" transform="translate(-3.82 -4.99)"/><path class="cls-1" d="M901.64,8.51c-.45,1.35-1,3.21-1.66,5-1.65,4.62-3.8,9-7.45,12.38-3.84,3.62-8.54,5.5-13.59,6.62a2.28,2.28,0,0,1-2.61-2.85c1.76-6.16,3.83-12.22,8.51-16.9a26.46,26.46,0,0,1,14.1-7.09C900.45,5.41,901.62,6.46,901.64,8.51ZM898.28,9c-7.87.29-17.93,11.23-18.63,20.26C887.32,29.14,897.37,18.22,898.28,9Z" transform="translate(-3.82 -4.99)"/><path class="cls-1" d="M849.67,61.22c-1.82,0-3-1.27-2.57-2.78,1.67-5.64,3.54-11.18,7.46-15.75A25.42,25.42,0,0,1,867.14,35c.68-.2,1.38-.39,2.08-.54,2.31-.49,3.75,1,3,3.34s-1.48,4.55-2.36,6.77c-2,5-4.92,9.39-9.55,12.41a31.09,31.09,0,0,1-10,4.13A4.63,4.63,0,0,1,849.67,61.22Zm.68-3.16a23.13,23.13,0,0,0,12.28-6.88c3.38-3.92,5.13-8.62,6.62-13.54C861,38.17,852.11,47.8,850.35,58.06Z" transform="translate(-3.82 -4.99)"/><path class="cls-1" d="M872.43,107.2a2.24,2.24,0,0,1-2.72,2.46,28.8,28.8,0,0,1-4.26-1.14c-8.31-2.7-13.38-8.61-16.28-16.61-.72-2-1.39-4-2-6a2.28,2.28,0,0,1,2.76-3c7.93,1.71,14.45,5.55,18.19,13,1.67,3.33,2.78,6.94,4.13,10.43A3.6,3.6,0,0,1,872.43,107.2Zm-22-21.06c1.12,9.51,10.75,20,18.74,20.33C867.55,96.46,858.29,86.41,850.42,86.14Z" transform="translate(-3.82 -4.99)"/><path class="cls-1" d="M212.17,8.64c-.11.39-.28,1-.48,1.69-1.56,5-3.36,9.89-6.81,14-4,4.74-9.27,7.19-15.16,8.49a2.33,2.33,0,0,1-2.87-2.89c1.56-5.19,3.26-10.34,6.67-14.7,4-5.14,9.46-7.81,15.66-9.15C211,5.67,212.21,6.72,212.17,8.64Zm-3.27.52c-10.61,2.4-16,9.41-18.74,20.39C198.15,29.17,207.09,19.47,208.9,9.16Z" transform="translate(-3.82 -4.99)"/><path class="cls-1" d="M595.22,136c0,2.05-1.21,3.06-2.86,2.73-9.62-1.94-16.37-7.35-19.92-16.57-.93-2.42-1.74-4.88-2.5-7.35a2.32,2.32,0,0,1,2.65-2.89c6.36,1.39,12,4.07,16.07,9.39a39.21,39.21,0,0,1,5.79,12.13C594.76,134.45,595,135.44,595.22,136Zm-3.3-.41c-1.26-9.7-11-20.29-18.73-20.37C576.12,126.49,581.46,133.22,591.92,135.62Z" transform="translate(-3.82 -4.99)"/><path class="cls-1" d="M748.34,86.06c-.4,1.24-.92,2.91-1.48,4.56-1.66,4.84-3.85,9.36-7.67,12.92a27.52,27.52,0,0,1-13.38,6.54A2.31,2.31,0,0,1,723.1,107c1.63-5.61,3.54-11.11,7.49-15.6s9.08-6.9,14.85-8.07C747.17,83,748.34,84,748.34,86.06Zm-3.3.28c-4.77,1.26-9,3.26-12.2,6.91-3.45,3.91-5.17,8.67-6.66,13.62C734.65,106.14,743.66,96.33,745,86.34Z" transform="translate(-3.82 -4.99)"/><path class="cls-1" d="M419,34.3a28.53,28.53,0,0,1,8.34,3c6.18,3.28,9.76,8.66,12.08,15,.66,1.8,1.25,3.62,1.8,5.46.67,2.22-.76,3.7-3.05,3.21q-14.86-3.21-20-17.52c-.71-2-1.37-4-2-6C415.58,35.64,416.64,34.27,419,34.3Zm.29,3.2c2.52,11,11.33,20.5,18.79,20.26C436.49,47.81,427.44,38,419.26,37.5Z" transform="translate(-3.82 -4.99)"/><path class="cls-1" d="M540.7,136c.39-1.23.91-2.94,1.49-4.63,1.61-4.64,3.7-9,7.29-12.49,3.9-3.79,8.72-5.79,13.95-6.92a2.36,2.36,0,0,1,2.6,2.8c-1.6,5.48-3.4,10.9-7.13,15.4-4.07,4.89-9.46,7.45-15.56,8.68C541.87,139.1,540.69,138,540.7,136Zm22.09-20.89c-4.78,1.22-8.94,3.21-12.16,6.81-3.51,3.92-5.25,8.71-6.75,13.75C554.42,133.26,559.75,126.56,562.79,115.07Z" transform="translate(-3.82 -4.99)"/><path class="cls-1" d="M543.41,61.64c-1.91,0-3.08-1.22-2.66-2.73,2.22-8.13,5.18-15.83,12.94-20.48a30.11,30.11,0,0,1,9.21-3.58,2.4,2.4,0,0,1,3,3.23,50.2,50.2,0,0,1-5,12.12c-3.48,5.63-8.61,9-14.85,10.76C545,61.25,544,61.48,543.41,61.64Zm19.42-23.79c-4.86,1.26-9.11,3.28-12.34,7-3.39,3.9-5.14,8.62-6.64,13.65.56-.12.9-.18,1.24-.27C555.5,55.45,560.22,47.7,562.83,37.85Z" transform="translate(-3.82 -4.99)"/><path class="cls-1" d="M82.9,5.81c1,.27,2.13.57,3.28.9a24.58,24.58,0,0,1,16.73,15.16c1,2.51,1.75,5.13,2.74,7.65a2.5,2.5,0,0,1-2.86,3.2c-10.28-2.15-17-8.24-20.43-18.1-.64-1.84-1.29-3.69-1.85-5.56A2.45,2.45,0,0,1,82.9,5.81Zm.83,3.38c1.13,9.46,11.56,20.73,18.73,20.23C100.56,19.13,91.51,9.34,83.73,9.19Z" transform="translate(-3.82 -4.99)"/><path class="cls-1" d="M519.33,85.87c-.44,1.37-.93,3-1.48,4.55A33.76,33.76,0,0,1,512,101.55c-3.61,4.28-8.35,6.69-13.68,8.08a6.77,6.77,0,0,1-2.43.3,2.13,2.13,0,0,1-1.87-2.78c1.53-5.35,3.31-10.6,6.86-15,3.66-4.58,8.56-7.2,14.16-8.58a6.92,6.92,0,0,1,2.78-.2C518.9,83.55,519.31,84.52,519.33,85.87Zm-3.25.38c-4.42,1.14-8.3,2.89-11.42,6-4,4-5.92,9.18-7.55,14.59C507.4,104.54,512.73,98.31,516.08,86.25Z" transform="translate(-3.82 -4.99)"/><path class="cls-1" d="M649.89,112.06a30.62,30.62,0,0,1,8.25,2.9c6.59,3.39,10.22,9.14,12.59,15.89.56,1.57,1.11,3.16,1.58,4.76a2.4,2.4,0,0,1-3,3.22,27.93,27.93,0,0,1-13.11-6.51,27.33,27.33,0,0,1-6.73-10.47c-.85-2.19-1.6-4.42-2.27-6.67C646.68,113.39,647.78,112,649.89,112.06Zm19.19,23.55c-.45-8.76-11.21-20.41-18.7-20.26C651.75,125.05,661.11,135.18,669.08,135.61Z" transform="translate(-3.82 -4.99)"/><path class="cls-1" d="M879,109.7c-2,0-3.18-1.34-2.71-3,1.65-5.55,3.51-11,7.37-15.54,3.52-4.12,8.11-6.48,13.25-7.89.58-.15,1.15-.33,1.74-.44a2.33,2.33,0,0,1,2.87,3c-1.76,6.08-3.84,12-8.41,16.69a25.91,25.91,0,0,1-11.87,6.62C880.44,109.4,879.58,109.57,879,109.7ZM898.37,86c-5,1.3-9.28,3.4-12.53,7.27s-4.91,8.45-6.38,13.29C890,104.22,895.44,97.31,898.37,86Z" transform="translate(-3.82 -4.99)"/><path class="cls-1" d="M672.44,86c-.24.82-.56,2.06-1,3.26-1.47,4.32-3.15,8.54-6.11,12.11-4,4.83-9.29,7.43-15.31,8.69a2.34,2.34,0,0,1-2.88-3c1.4-4.63,3-9.19,5.7-13.24,4-6,9.93-9,16.73-10.45C671.22,83,672.42,84.06,672.44,86ZM650.27,107.1c5.29-1.33,9.78-3.65,13.09-7.87,2.93-3.74,4.57-8.09,5.89-12.74C658.4,89.08,653.58,95.45,650.27,107.1Z" transform="translate(-3.82 -4.99)"/><path class="cls-1" d="M872.42,114.29c-.1.38-.28,1.07-.49,1.75-1.49,4.78-3.22,9.45-6.4,13.42-4,5-9.48,7.65-15.65,8.94a2.26,2.26,0,0,1-2.69-3,45.1,45.1,0,0,1,5.68-13.36c3.74-5.56,9.19-8.56,15.52-10.19a7.7,7.7,0,0,1,1.65-.28C871.5,111.55,872.43,112.51,872.42,114.29Zm-3.15.37c-4.65,1.16-8.72,3.07-11.92,6.48-3.71,4-5.51,8.9-7.07,14C858.77,134.46,866.25,126.36,869.27,114.66Z" transform="translate(-3.82 -4.99)"/><path class="cls-1" d="M333.19,34.29c1.82,0,3,1.13,2.55,2.69-2.29,8.22-5.29,16-13.25,20.62a30.63,30.63,0,0,1-9.24,3.46,2.34,2.34,0,0,1-2.79-2.76c1.56-5.41,3.36-10.74,7-15.2,3.92-4.84,9.17-7.4,15.11-8.76A3.76,3.76,0,0,1,333.19,34.29Zm-.68,3.17c-8.55.92-17.61,10.8-18.74,20.35C321.72,57.44,330.65,47.78,332.51,37.46Z" transform="translate(-3.82 -4.99)"/><path class="cls-1" d="M441.38,85.47c-.49,1.5-1.06,3.41-1.73,5.28a31.55,31.55,0,0,1-6.26,11.06,25.63,25.63,0,0,1-11.31,6.88c-1,.33-2.08.57-3.12.81a2.37,2.37,0,0,1-2.93-2.83c1.56-5.21,3.28-10.35,6.67-14.73,4.1-5.3,9.77-7.91,16.12-9.28C440.13,82.38,441.38,83.64,441.38,85.47Zm-22.05,20.94a23.07,23.07,0,0,0,11.45-6.09c3.92-4,5.78-9.09,7.39-14.39C429.67,86.72,420.23,97,419.33,106.41Z" transform="translate(-3.82 -4.99)"/><path class="cls-1" d="M563.25,32.89a30.7,30.7,0,0,1-8.74-3.16c-5.75-3.1-9.22-8.1-11.51-14-.79-2-1.47-4.13-2.1-6.23-.71-2.35.65-3.8,3-3.29,10.25,2.16,16.86,8.39,20.24,18.19.62,1.81,1.22,3.63,1.77,5.47S565.26,33,563.25,32.89ZM544,9.29c1.5,10,10.51,19.72,18.76,20.37C561.47,20,552.58,10.27,544,9.29Z" transform="translate(-3.82 -4.99)"/><path class="cls-1" d="M312.94,138.27c-1.72,0-2.92-1.28-2.5-2.73,1.6-5.53,3.45-11,7.2-15.5a25.23,25.23,0,0,1,12.67-7.93c.77-.23,1.54-.43,2.32-.59,2.2-.46,3.66,1,3,3.18S334.3,119,333.5,121c-2,5.07-4.77,9.55-9.35,12.71a29.82,29.82,0,0,1-10.62,4.46C313.3,138.25,313.06,138.25,312.94,138.27Zm.78-3.09c5.18-1.36,9.69-3.61,13-7.82,2.94-3.75,4.56-8.13,5.93-12.79-.41.07-.61.09-.79.13C322.64,116.89,314.93,125.56,313.72,135.18Z" transform="translate(-3.82 -4.99)"/><path class="cls-1" d="M365,135.67c0,2-1.29,3-3.11,2.49a47.59,47.59,0,0,1-6.68-2.23c-6.25-2.73-10.29-7.62-12.81-13.84-.91-2.25-1.66-4.56-2.45-6.86a2.73,2.73,0,0,1,.36-3.12c.89-.91,1.9-.75,3-.49a27.64,27.64,0,0,1,12.38,6.19,27.23,27.23,0,0,1,6.92,10.61c.85,2.15,1.51,4.36,2.25,6.55A3.84,3.84,0,0,1,365,135.67Zm-3.3-.64c-1.27-9.65-11.51-20.69-18.73-20.27C344.14,124.29,353.06,134,361.69,135Z" transform="translate(-3.82 -4.99)"/><path class="cls-1" d="M572.65,34.79a30,30,0,0,1,9.45,3.56c5.37,3.12,8.62,7.95,10.81,13.59.8,2.08,1.5,4.21,2.15,6.35s-.73,3.71-3,3.22c-10.29-2.17-16.92-8.42-20.29-18.28-.61-1.78-1.2-3.56-1.74-5.35S570.63,34.72,572.65,34.79Zm19.23,23.55c-.75-9.11-11.08-20.3-18.74-20.29C575.19,48.55,583.81,57.89,591.88,58.34Z" transform="translate(-3.82 -4.99)"/><path class="cls-1" d="M342.73,34.3c.78.21,2.1.52,3.39.93C354,37.74,359.36,43,362.36,50.67c.9,2.3,1.68,4.65,2.44,7s-.66,3.79-3,3.3c-10.58-2.22-17.17-8.76-20.49-18.86-.52-1.59-1.1-3.16-1.55-4.77C339.25,35.54,340.32,34.26,342.73,34.3Zm.21,3.16c1.65,10.09,11.51,20.74,18.74,20.29C360.18,47.85,351.59,38.49,342.94,37.46Z" transform="translate(-3.82 -4.99)"/><path class="cls-1" d="M572.32,32.9a2.33,2.33,0,0,1-2.42-2.8c1.52-5.22,3.26-10.36,6.64-14.75,4-5.24,9.59-7.9,15.88-9.26a2.21,2.21,0,0,1,2.74,2.76c-2.09,7.55-4.77,14.79-11.59,19.54a29.81,29.81,0,0,1-10.51,4.44A4.43,4.43,0,0,1,572.32,32.9Zm.66-3c4.9-1.29,9.12-3.26,12.35-6.91,3.46-3.9,5.2-8.67,6.75-13.72a6.86,6.86,0,0,0-.76.1,24.94,24.94,0,0,0-9.2,4.47C577.05,17.89,575,23.68,573,29.86Z" transform="translate(-3.82 -4.99)"/><path class="cls-1" d="M802.36,111.27c2.54.91,5.14,1.67,7.6,2.75,5.82,2.59,9.73,7.12,12.2,12.88,1.14,2.67,2,5.44,2.93,8.2.71,2.19-.78,3.74-3,3.25-9.77-2.15-16.46-7.85-19.92-17.27q-1.12-3.09-2.1-6.22a2.34,2.34,0,0,1,2.19-3.28ZM822,135.2c-2-10.54-10.69-19.94-18.75-20.37C804.34,124.34,813.53,134.36,822,135.2Z" transform="translate(-3.82 -4.99)"/><path class="cls-1" d="M620.72,83.34A31.53,31.53,0,0,1,630.31,87c5.14,3.07,8.29,7.71,10.45,13.12.87,2.18,1.6,4.42,2.3,6.66s-.76,3.82-3,3.29a28.08,28.08,0,0,1-12.84-6.3,27.58,27.58,0,0,1-7-10.74c-.87-2.18-1.56-4.44-2.25-6.69C617.47,84.65,618.63,83.25,620.72,83.34ZM640.11,107c-2-6.35-4.22-12.41-9.78-16.46a23.6,23.6,0,0,0-9.22-4.09C624.52,98.56,629.66,104.58,640.11,107Z" transform="translate(-3.82 -4.99)"/><path class="cls-1" d="M693.81,85.88c0-1.76.93-2.77,2.41-2.59a23.47,23.47,0,0,1,3.93,1c8,2.41,13.25,7.68,16.3,15.31.93,2.33,1.68,4.73,2.51,7.1s-1.19,3.84-3.15,3.35a28.57,28.57,0,0,1-13.15-6.7,22.3,22.3,0,0,1-5.2-7.38c-1.28-3-2.3-6-3.41-9.05A6.68,6.68,0,0,1,693.81,85.88Zm3.22.54c2.25,10.82,11.1,20.37,18.81,20.38C712.77,95.37,707.62,88.9,697,86.42Z" transform="translate(-3.82 -4.99)"/><path class="cls-1" d="M647.09,37.44A2.35,2.35,0,0,1,650,34.88c8.08,1.77,14.66,5.72,18.37,13.39a96.89,96.89,0,0,1,4,10.25c.69,2-.76,3.55-2.87,3.1C661.7,60,655.3,56.23,651.59,49c-1.79-3.48-2.94-7.3-4.37-11A2.43,2.43,0,0,1,647.09,37.44Zm22.07,21.1c-1.27-9.64-11.75-21-18.76-20.34C653.35,49.3,658.48,56,669.16,58.54Z" transform="translate(-3.82 -4.99)"/><path class="cls-1" d="M643.22,37.64c-.17.58-.44,1.54-.74,2.48-1.5,4.65-3.27,9.16-6.44,13a25.14,25.14,0,0,1-12.35,7.81,17.17,17.17,0,0,1-3.36.76,2.22,2.22,0,0,1-2.43-2.76c1.68-5.67,3.56-11.25,7.54-15.84A25.23,25.23,0,0,1,637,35.77a30.46,30.46,0,0,1,3.11-.86C641.87,34.52,643.23,35.57,643.22,37.64ZM621,58.65c4.91-1.26,9.11-3.25,12.34-6.89,3.47-3.9,5.22-8.67,6.76-13.73a6.82,6.82,0,0,0-.88.11,26.84,26.84,0,0,0-7.91,3.6C625.4,45.78,623.13,52,621,58.65Z" transform="translate(-3.82 -4.99)"/><path class="cls-1" d="M256,109.93a31.77,31.77,0,0,1-8.57-3.1c-5.76-3.07-9.28-8-11.57-13.94-.8-2.08-1.49-4.21-2.16-6.34-.76-2.37.66-3.89,3.07-3.33,5.34,1.23,10.17,3.45,14,7.51a31.28,31.28,0,0,1,6.43,11.36q.84,2.37,1.53,4.79C259.25,108.59,258.1,110,256,109.93ZM236.82,86.29c1.09,9.52,11.26,20.5,18.78,20.35C252.38,95.1,247.28,88.72,236.82,86.29Z" transform="translate(-3.82 -4.99)"/><path class="cls-1" d="M36.08,32.67a2.31,2.31,0,0,1-2.39-2.93c1.56-5.29,3.32-10.5,6.83-14.9,3.82-4.81,9-7.39,14.82-8.8a5.3,5.3,0,0,1,1.76-.2,2.22,2.22,0,0,1,1.83,2.95c-1.77,6.08-3.83,12.05-8.4,16.69-3.84,3.9-8.66,6-14,7.14A3.83,3.83,0,0,1,36.08,32.67ZM55.74,8.92c-5.17,1.36-9.61,3.57-12.9,7.72-3,3.8-4.63,8.22-6,12.92C47.81,26.87,52.77,20.13,55.74,8.92Z" transform="translate(-3.82 -4.99)"/><path class="cls-1" d="M901.63,58.58c0,2-1.24,3-3.06,2.55A45.6,45.6,0,0,1,892.11,59c-6.33-2.69-10.45-7.54-13-13.8-1-2.35-1.78-4.77-2.56-7.2s.61-4.07,3.23-3.46a27.64,27.64,0,0,1,12.59,6.26,27.37,27.37,0,0,1,6.86,10.52c.86,2.18,1.54,4.44,2.29,6.66A3.06,3.06,0,0,1,901.63,58.58Zm-22-21c.95,9.44,10,19.32,18.72,20.43C897.36,48.6,888.54,38.94,879.61,37.59Z" transform="translate(-3.82 -4.99)"/><path class="cls-1" d="M773.53,138.43c-2,0-3.22-1.31-2.79-2.8,1.88-6.38,4-12.65,9-17.39a26.64,26.64,0,0,1,13.32-6.58,2.33,2.33,0,0,1,2.91,3c-1.39,4.62-2.94,9.16-5.68,13.22-3.63,5.38-8.84,8.37-14.93,10.07C774.65,138.17,773.91,138.33,773.53,138.43Zm19.26-23.77c-4.93,1.31-9.25,3.41-12.51,7.28s-4.91,8.46-6.39,13.27C782.42,134.4,791.57,124.42,792.79,114.66Z" transform="translate(-3.82 -4.99)"/><path class="cls-1" d="M516,138.73c-1.67-.59-4.16-1.31-6.52-2.33-7.34-3.19-11.34-9.25-13.87-16.51-.52-1.5-1-3-1.48-4.53-.71-2.41.66-3.85,3.1-3.34,9.94,2.11,16.49,8.06,19.91,17.56.72,2,1.39,4,2,6C519.72,137.3,518.62,138.76,516,138.73Zm-18.9-23.59c1.61,5.22,3.42,10.24,7.25,14.22A23.16,23.16,0,0,0,516,135.6C514.82,125.94,505.48,115.77,497.11,115.14Z" transform="translate(-3.82 -4.99)"/><path class="cls-1" d="M182.9,115c-.45,1.34-1,3.28-1.73,5.18-1.61,4.47-3.74,8.64-7.27,12a26.93,26.93,0,0,1-13.34,6.57c-2.1.44-3.43-1-2.81-3.17,1.67-5.65,3.62-11.18,7.65-15.67a25.3,25.3,0,0,1,12.17-7.26,15.47,15.47,0,0,1,2.91-.65C182,111.79,182.92,112.74,182.9,115Zm-3.21.14c-10.45,2.32-15.81,9-18.78,20.38C169,135,178.05,125.22,179.69,115.1Z" transform="translate(-3.82 -4.99)"/><path class="cls-1" d="M190,111.89c1.57.54,3.95,1.22,6.21,2.17,7.19,3,11.35,8.77,13.94,15.87.64,1.75,1.17,3.55,1.78,5.31a2.59,2.59,0,0,1-.41,2.81,2.7,2.7,0,0,1-2.78.55c-10.06-2.22-16.65-8.29-20-18-.65-1.88-1.3-3.76-1.87-5.66C186.41,113.31,187.51,111.88,190,111.89Zm.06,3.23c2,10.62,10.33,19.59,18.75,20.37C207.8,126.05,198.59,116,190.09,115.12Z" transform="translate(-3.82 -4.99)"/><path class="cls-1" d="M418.78,32.35c-1.92,0-3.18-1.31-2.76-2.74,1.84-6.26,3.91-12.43,8.73-17.16a27,27,0,0,1,13.7-6.89,2.27,2.27,0,0,1,2.84,2.87c-1.53,5.38-3.35,10.65-6.94,15.09s-8.2,6.87-13.51,8.34C420,32.08,419.22,32.25,418.78,32.35Zm19.3-23.62c-8.83,1.16-17.82,11-18.73,20.37C427.41,28.62,436.32,19,438.08,8.73Z" transform="translate(-3.82 -4.99)"/><path class="cls-1" d="M134.91,58.83c0,2-1.13,3-2.94,2.57a28.29,28.29,0,0,1-11.7-5.2c-4.46-3.46-7-8.18-8.89-13.36-.54-1.5-1-3-1.5-4.53-.82-2.64.51-4.11,3.18-3.52a27.12,27.12,0,0,1,12.79,6.39,26.85,26.85,0,0,1,6.59,10.16c.86,2.19,1.57,4.44,2.33,6.66A4.35,4.35,0,0,1,134.91,58.83Zm-3.14-.54c-3-11.55-11.24-20.43-18.84-20.36C115.86,49.3,121.32,56,131.77,58.29Z" transform="translate(-3.82 -4.99)"/><path class="cls-1" d="M82.87,61.46c-1.7,0-2.86-1.19-2.42-2.75C82.45,51.64,84.89,44.79,91,40a29,29,0,0,1,11.78-5.32,2.34,2.34,0,0,1,3,2.78c-1.65,5.72-3.56,11.36-7.61,15.93s-9.05,6.81-14.76,8A4,4,0,0,1,82.87,61.46Zm19.57-23.73c-4.72,1.21-8.87,3.21-12.1,6.81-3.51,3.92-5.22,8.73-6.76,13.71C92.18,57.35,101.57,47.13,102.44,37.73Z" transform="translate(-3.82 -4.99)"/><path class="cls-1" d="M36.84,34.53c1.69.59,4.2,1.29,6.55,2.32,6.27,2.74,10.33,7.62,12.86,13.85.94,2.33,1.75,4.72,2.51,7.11s-.57,4-3.17,3.42c-10.15-2.19-16.7-8.38-20-18.1-.61-1.77-1.22-3.55-1.76-5.34S34.25,34.56,36.84,34.53ZM55.67,58.17c-1-9.46-10.28-19.55-18.71-20.4C37.81,47,47,57.07,55.67,58.17Z" transform="translate(-3.82 -4.99)"/><path class="cls-1" d="M773.21,82.57c2.51.9,5.07,1.65,7.5,2.73,6.67,2.94,10.61,8.36,13.15,15,.75,2,1.39,4,2,6,.72,2.26-.72,3.87-3,3.35-9-2-15.65-7-19.18-15.67-1.06-2.62-2-5.31-2.83-8A2.6,2.6,0,0,1,773.21,82.57ZM774,86c1.24,9.78,10.46,19.78,18.89,20.51-1.56-5-3.28-9.87-6.86-13.8C782.82,89.13,778.7,87.19,774,86Z" transform="translate(-3.82 -4.99)"/><path class="cls-1" d="M802.5,109.7c-1.74,0-3-1.22-2.53-2.79,2-7.12,4.5-14,10.65-18.81a28.26,28.26,0,0,1,11.84-5.22,2.3,2.3,0,0,1,2.8,2.76c-1.65,5.74-3.56,11.38-7.61,16s-9.06,6.81-14.77,8.06A1.6,1.6,0,0,1,802.5,109.7Zm.68-3.08c4.83-1.24,9.05-3.29,12.29-7,3.41-3.89,5.11-8.62,6.63-13.53C813.76,86.72,804.85,96.38,803.18,106.62Z" transform="translate(-3.82 -4.99)"/><path class="cls-1" d="M693.83,135.82c.46-1.42,1-3.36,1.74-5.27,1.78-4.89,4.16-9.42,8.25-12.83a28.56,28.56,0,0,1,12.7-5.79,2.27,2.27,0,0,1,2.61,2.53c-2.31,8.58-5.42,16.74-14,21.16a51.83,51.83,0,0,1-8.49,3.1C695,139.24,693.78,138.08,693.83,135.82Zm22-20.58c-7.86.2-18.29,11.56-18.73,20.3C705,135.25,713.69,125.86,715.88,115.24Z" transform="translate(-3.82 -4.99)"/><path class="cls-1" d="M438.56,138.25a30.9,30.9,0,0,1-8.61-3.1c-6.47-3.45-10-9.2-12.3-15.85q-.81-2.31-1.5-4.66a2.36,2.36,0,0,1,2.93-3.15c9.9,2.1,16.62,7.88,20.08,17.4.73,2,1.43,4.05,2.06,6.1S440.73,138.33,438.56,138.25ZM419.3,114.63c1.23,9.69,10.51,19.75,18.73,20.39C437.18,125.74,428.16,115.87,419.3,114.63Z" transform="translate(-3.82 -4.99)"/><path class="cls-1" d="M288,8.68c-.12.44-.31,1.21-.55,2-1.61,5-3.47,9.94-7.05,14-4,4.57-9.28,6.89-15.09,8.14a2.23,2.23,0,0,1-2.52-2.87,86.28,86.28,0,0,1,3.19-9c3.65-8.5,10.36-13.18,19.25-15C286.89,5.61,288.06,6.67,288,8.68Zm-3.31.52c-7.6.05-17.86,11.19-18.67,20.27C273.84,29.27,284,18.25,284.71,9.2Z" transform="translate(-3.82 -4.99)"/><path class="cls-1" d="M182.91,29.81c0,2.34-1.25,3.46-3,2.93a53.16,53.16,0,0,1-8.48-3.14c-6.29-3.18-9.7-8.8-12-15.2q-.85-2.36-1.58-4.76a2.76,2.76,0,0,1,.33-2.93c.86-.93,1.9-.8,3-.54,5.26,1.28,10,3.49,13.76,7.52a30.51,30.51,0,0,1,6.22,10.93C181.86,26.53,182.46,28.47,182.91,29.81Zm-3.26-.14c-.82-9.26-11.23-20.51-18.78-20.4C164.13,20.91,169.05,27.05,179.65,29.67Z" transform="translate(-3.82 -4.99)"/><path class="cls-1" d="M467.85,6c1.58.53,3.93,1.18,6.17,2.11,7.17,3,11.38,8.64,14,15.71.71,1.94,1.39,3.9,2,5.89a2.35,2.35,0,0,1-2.83,3.12c-7.76-1.7-14.22-5.43-17.93-12.71A96.9,96.9,0,0,1,464.83,9C464.25,7.39,465.39,6,467.85,6ZM468,9.19c1.55,10,11.5,20.7,18.74,20.29C485.8,20.17,476.87,10.46,468,9.19Z" transform="translate(-3.82 -4.99)"/><path class="cls-1" d="M496.62,32.84c-1.85,0-3.05-1.21-2.65-2.66,2.25-8.2,5.22-16,13.09-20.62a30.24,30.24,0,0,1,9.11-3.5c2.27-.49,3.62,1.09,2.94,3.33a48,48,0,0,1-5.44,12.69c-3.63,5.51-8.89,8.66-15.16,10.3C497.78,32.57,497,32.73,496.62,32.84ZM516,9.09c-5.27,1.37-9.82,3.68-13.11,8-2.83,3.72-4.44,8-5.75,12.54C506,28.48,514.76,18.85,516,9.09Z" transform="translate(-3.82 -4.99)"/><path class="cls-1" d="M182.9,107.33c0,2-1.14,3-2.8,2.64-9.58-1.93-16.33-7.3-19.89-16.47-.86-2.23-1.59-4.52-2.37-6.78-.85-2.47.88-4,3.11-3.45,10,2.23,16.54,8.18,20,17.73.63,1.77,1.19,3.56,1.77,5.34A8.86,8.86,0,0,1,182.9,107.33ZM160.78,86.44c2,6.14,4.13,12,9.42,16.11a24.66,24.66,0,0,0,9.5,4.34C177.74,96.37,168.72,86.61,160.78,86.44Z" transform="translate(-3.82 -4.99)"/><path class="cls-1" d="M467.23,138.74a2.28,2.28,0,0,1-2.48-2.83c1.77-6,3.77-11.86,8.2-16.54a25.57,25.57,0,0,1,11.51-6.75,24.62,24.62,0,0,1,2.65-.7c1.91-.34,3.4,1,2.9,2.85-1.52,5.52-3.43,10.9-7.16,15.38-3.94,4.76-9.23,7.2-15.13,8.53A2.77,2.77,0,0,1,467.23,138.74Zm.8-3.11c5.17-1.36,9.67-3.6,13-7.82,2.93-3.76,4.56-8.11,5.89-12.72C478.05,116.23,469.19,125.92,468,135.63Z" transform="translate(-3.82 -4.99)"/><path class="cls-1" d="M109.65,114.37c0-1.83,1.12-2.83,2.78-2.5a33.77,33.77,0,0,1,4.81,1.37c7.74,2.73,12.59,8.3,15.42,15.81.74,2,1.4,4,2.05,6a2.78,2.78,0,0,1-.37,2.94c-.81.86-1.82.76-2.89.51a27.83,27.83,0,0,1-12.6-6.29,23.93,23.93,0,0,1-5.88-8.35c-1.23-2.81-2.16-5.75-3.2-8.63A3.82,3.82,0,0,1,109.65,114.37Zm3.07.55c2,6.28,4.16,12.29,9.58,16.36a23.52,23.52,0,0,0,9.41,4.22C128.52,123.83,123.48,117.54,112.72,114.92Z" transform="translate(-3.82 -4.99)"/><path class="cls-1" d="M82.8,138.66a2.16,2.16,0,0,1-2.36-2.61c2.41-8.93,5.79-17.26,14.85-21.58a43.64,43.64,0,0,1,7-2.48c2.58-.75,4.06.88,3.28,3.42-1.61,5.2-3.4,10.31-6.94,14.58-4,4.84-9.35,7.29-15.31,8.67A2.57,2.57,0,0,1,82.8,138.66Zm19.73-23.78c-5.24,1.41-9.77,3.63-13.06,7.89-2.91,3.77-4.54,8.1-5.88,12.74C94.36,133,99.48,126.24,102.53,114.88Z" transform="translate(-3.82 -4.99)"/><path class="cls-1" d="M901.63,135.8c0,1.91-1.27,2.95-2.92,2.6-9-2-15.81-6.79-19.39-15.54-1.05-2.57-2-5.22-2.83-7.86-.76-2.26.69-3.85,3-3.33,9.35,2.08,16,7.36,19.5,16.41.83,2.16,1.57,4.34,2.32,6.52A8.42,8.42,0,0,1,901.63,135.8Zm-3.19-.65c-1.59-5.32-3.5-10.42-7.44-14.41a23,23,0,0,0-11.46-6C881.14,124.83,890.22,134.68,898.44,135.15Z" transform="translate(-3.82 -4.99)"/><path class="cls-1" d="M134.9,86.12c-.44,1.33-1,3.27-1.72,5.17-1.63,4.55-3.79,8.79-7.41,12.13a27.13,27.13,0,0,1-13.28,6.47c-2,.41-3.34-1.11-2.74-3.17,1.66-5.77,3.68-11.42,7.85-16a25.39,25.39,0,0,1,12.05-7,18.84,18.84,0,0,1,2.54-.63C133.85,82.88,134.92,83.84,134.9,86.12Zm-22.13,20.75c4.93-1.27,9.22-3.32,12.48-7.11s5.05-8.57,6.53-13.48C121.22,88.68,116.22,94.85,112.77,106.87Z" transform="translate(-3.82 -4.99)"/><path class="cls-1" d="M102.59,110c-1.59-.54-3.93-1.2-6.17-2.13-7.11-2.95-11.3-8.58-13.9-15.59-.69-1.86-1.32-3.75-1.89-5.65-.74-2.47.66-3.88,3.16-3.35,10.14,2.19,16.65,8.39,20,18.06.66,1.87,1.3,3.76,1.85,5.67C106.14,108.58,105,109.93,102.59,110ZM83.75,86.31c.79,9.17,11.4,20.62,18.76,20.33C99.26,95.11,94.26,88.75,83.75,86.31Z" transform="translate(-3.82 -4.99)"/><path class="cls-1" d="M36.22,109.87a2.31,2.31,0,0,1-2.51-3c1.89-6.39,4-12.65,9.12-17.37a27,27,0,0,1,13.28-6.47A2.26,2.26,0,0,1,58.94,86c-1.54,5.29-3.33,10.5-6.84,14.9-4,5-9.45,7.57-15.55,9A1.53,1.53,0,0,1,36.22,109.87Zm.55-3.05c5-1.38,9.32-3.39,12.55-7.19s5-8.57,6.54-13.54c-5.1,1.29-9.44,3.43-12.7,7.33S38.27,101.83,36.77,106.82Z" transform="translate(-3.82 -4.99)"/><path class="cls-1" d="M182.9,37.66c-.39,1.21-.9,3-1.51,4.69-1.8,5.09-4.17,9.84-8.43,13.39a28.5,28.5,0,0,1-12.67,5.82,2.17,2.17,0,0,1-2.62-2.09A6.63,6.63,0,0,1,158,57.6c1.61-5.24,3.46-10.38,7.13-14.62,4.07-4.69,9.4-7.12,15.36-8.31C181.82,34.4,182.92,35.58,182.9,37.66Zm-3.13.14C175,39,170.82,41,167.6,44.56c-3.53,3.93-5.29,8.75-6.81,13.81C171.33,56,176.45,49.63,179.77,37.8Z" transform="translate(-3.82 -4.99)"/><path class="cls-1" d="M288,58.86a2.31,2.31,0,0,1-3.08,2.52,31.44,31.44,0,0,1-9-3.44c-5.6-3.21-8.85-8.26-11.08-14.1-.71-1.87-1.34-3.76-1.93-5.67-.77-2.51.67-4,3.23-3.39A27.54,27.54,0,0,1,279,41.2a22.48,22.48,0,0,1,5.4,7.54c1.35,3.06,2.39,6.25,3.55,9.39A2.64,2.64,0,0,1,288,58.86Zm-22-21c1.82,10.34,10.51,19.74,18.77,20.39C281.82,46.85,276.38,40.14,266,37.82Z" transform="translate(-3.82 -4.99)"/><path class="cls-1" d="M288,136c0,1.93-1.24,3-3,2.58-8.84-1.94-15.54-6.62-19.16-15.14-1.15-2.7-2-5.52-3-8.29-.74-2,.75-3.82,3.12-3.29,9.72,2.17,16.36,7.86,19.8,17.23.72,2,1.37,4,2,6A5.58,5.58,0,0,1,288,136Zm-22-21c1.77,10.23,11.36,20.6,18.78,20.29C282.66,124.73,274.42,115.83,266,115.05Z" transform="translate(-3.82 -4.99)"/><path class="cls-1" d="M643.22,30.31c0,1.91-1.24,2.95-2.91,2.61-10.3-2.07-17-8.2-20.47-18.05-.64-1.84-1.26-3.69-1.83-5.56a2.32,2.32,0,0,1,2.84-3.1q14.89,3,20.14,17.29c.71,1.94,1.34,3.91,2,5.87A8.08,8.08,0,0,1,643.22,30.31Zm-3.28-.56C638.3,19.67,628.78,9.4,621.17,9.43,623.16,19.85,631.5,28.94,639.94,29.75Z" transform="translate(-3.82 -4.99)"/><path class="cls-1" d="M335.78,29.51c0,2.12-1.31,3.22-3,2.78a47,47,0,0,1-6.25-2c-7.39-3.06-11.6-9-14.21-16.24-.62-1.72-1.18-3.47-1.72-5.22-.63-2.09.75-3.68,2.86-3.23a28.16,28.16,0,0,1,12.36,5.75c4.25,3.56,6.63,8.31,8.43,13.41C334.85,26.45,335.37,28.21,335.78,29.51ZM313.69,8.72c2.23,10.79,10.56,19.78,18.79,20.38C329.58,17.83,324.19,11,313.69,8.72Z" transform="translate(-3.82 -4.99)"/><path class="cls-1" d="M412.11,114.43c-.45,1.34-1.05,3.27-1.72,5.18a31.34,31.34,0,0,1-5.9,10.6c-3.63,4.09-8.31,6.35-13.49,7.73-.2.05-.4.06-.59.12a2.69,2.69,0,0,1-3-.52,2.75,2.75,0,0,1-.3-3c.93-2.67,1.82-5.36,2.93-8A23.11,23.11,0,0,1,401.82,114a54.58,54.58,0,0,1,7.32-2.54C410.83,111,412.11,112.1,412.11,114.43Zm-22,20.71A23.29,23.29,0,0,0,401.66,129c3.87-4,5.71-9,7.32-14.31C400.61,115.32,391.3,125.46,390.1,135.14Z" transform="translate(-3.82 -4.99)"/><path class="cls-1" d="M773.55,61.22c-2,0-3.24-1.29-2.81-2.76,1.84-6.3,4-12.48,8.84-17.23,3.82-3.71,8.51-5.69,13.6-6.83A2.31,2.31,0,0,1,796,37.33c-1.64,5.69-3.58,11.25-7.59,15.82a25.2,25.2,0,0,1-11.86,7.28C775.41,60.79,774.25,61,773.55,61.22Zm19.38-23.76c-5.11,1.29-9.38,3.42-12.62,7.24s-5,8.5-6.44,13.47c4.85-1.25,9-3.21,12.23-6.8C789.6,47.45,791.39,42.67,792.93,37.46Z" transform="translate(-3.82 -4.99)"/><path class="cls-1" d="M822.51,61.22a31.1,31.1,0,0,1-8.67-3.11c-6.36-3.39-9.8-9-12.17-15.54-.56-1.53-1-3.11-1.54-4.65a2.48,2.48,0,0,1,3.15-3.42c5.34,1.28,10.16,3.5,14,7.58a30.63,30.63,0,0,1,6.12,10.59c.67,1.83,1.27,3.69,1.81,5.56C825.68,59.92,824.55,61.27,822.51,61.22ZM803.1,37.64c1.59,5.15,3.38,10.1,7.11,14.06A23.38,23.38,0,0,0,822,58.12C820.73,48.35,811.4,38.2,803.1,37.64Z" transform="translate(-3.82 -4.99)"/><path class="cls-1" d="M335.79,107c0,1.84-1.32,2.92-2.87,2.58a27.66,27.66,0,0,1-13.63-6.81,24.74,24.74,0,0,1-5.72-8.47c-1.14-2.71-2.06-5.52-3-8.31-.69-2.12.79-3.61,3-3.14,9.85,2.1,16.53,7.86,20,17.33.71,2,1.34,3.92,2,5.88A9.36,9.36,0,0,1,335.79,107Zm-3.29-.66C331,96.43,320.89,85.52,313.71,86,316.32,97.15,324.39,105.86,332.5,106.29Z" transform="translate(-3.82 -4.99)"/><path class="cls-1" d="M412.11,29.69c0,2-1.26,3-3.1,2.61-8.65-1.94-15.26-6.54-18.89-14.83-1.21-2.77-2.18-5.66-3.12-8.54-.77-2.37.71-3.82,3.17-3.28q14.49,3.16,19.68,17.06c.74,2,1.38,4,2,6A7.81,7.81,0,0,1,412.11,29.69ZM390,8.65c2.46,11,11.1,20.37,18.82,20.41C406,18,400.88,11.26,390,8.65Z" transform="translate(-3.82 -4.99)"/><path class="cls-1" d="M725.82,34.79a30.38,30.38,0,0,1,9.91,3.88c5.4,3.34,8.48,8.41,10.63,14.17.66,1.79,1.25,3.61,1.81,5.44.68,2.22-.77,3.77-3,3.26-9.48-2.12-16.23-7.47-19.65-16.71-.86-2.32-1.67-4.65-2.41-7C722.54,36.1,723.72,34.71,725.82,34.79Zm19.24,23.6c-1.8-10.28-10.63-19.83-18.77-20.37C727.69,47.88,736.51,57.5,745.06,58.39Z" transform="translate(-3.82 -4.99)"/><path class="cls-1" d="M872.43,30a2.35,2.35,0,0,1-2.91,2.52,27.28,27.28,0,0,1-13.71-6.9,28.21,28.21,0,0,1-6.62-10.84c-.74-2-1.41-4.06-2-6.12a2.24,2.24,0,0,1,2.63-2.91c8.63,1.7,15.27,6.13,19,14.26,1.34,2.92,2.29,6,3.39,9.05A5.57,5.57,0,0,1,872.43,30ZM850.25,8.88c2,6.31,4.21,12.38,9.78,16.42a24.26,24.26,0,0,0,9.19,4.09C866.55,18,859,9.83,850.25,8.88Z" transform="translate(-3.82 -4.99)"/><path class="cls-1" d="M109.66,30c0-.22.15-.77.31-1.3,1.64-5.24,3.48-10.39,7.17-14.62,4.07-4.65,9.4-7,15.32-8.24a2.09,2.09,0,0,1,2.42,2.06,6.76,6.76,0,0,1-.3,2c-1.51,4.94-3.27,9.77-6.55,13.87-4.07,5.09-9.6,7.65-15.79,9C110.82,33.08,109.64,31.91,109.66,30Zm3.25-.58c7.46.2,17.87-11.11,18.7-20.3C123.43,9.73,114.64,19.27,112.91,29.45Z" transform="translate(-3.82 -4.99)"/><path class="cls-1" d="M236.6,5.83c1.87.67,4.44,1.41,6.86,2.48,6.52,2.89,10.5,8.14,13,14.61.83,2.15,1.54,4.36,2.23,6.56a2.38,2.38,0,0,1-3,3.18,27.82,27.82,0,0,1-13-6.42,25.65,25.65,0,0,1-6.21-9.13c-1.07-2.53-1.92-5.15-2.79-7.76C233.06,7.46,234.14,5.8,236.6,5.83Zm18.92,23.65C254.68,20.37,244,8.83,236.81,9.22,238.22,19,247.72,29.27,255.52,29.48Z" transform="translate(-3.82 -4.99)"/><path class="cls-1" d="M412.11,106.93c0,1.95-1.25,2.89-2.89,2.56q-14.91-3-20.16-17.3c-.72-2-1.42-4-2-6-.73-2.41.61-3.87,3.08-3.34,8.89,1.94,15.45,6.84,19,15.36,1,2.5,1.86,5.09,2.77,7.65A6.61,6.61,0,0,1,412.11,106.93Zm-3.27-.67C407.36,96.4,397.38,85.64,390.07,86,392.6,97,401.25,106.32,408.84,106.26Z" transform="translate(-3.82 -4.99)"/><path class="cls-1" d="M265.19,109.94c-1.58,0-2.84-1.22-2.46-2.6,1.68-6.19,3.78-12.21,8.36-17,3.85-4,8.71-6.09,14-7.24a2.27,2.27,0,0,1,2.83,3c-1.82,6.31-4,12.48-8.93,17.17a27.34,27.34,0,0,1-13.32,6.6A2.86,2.86,0,0,1,265.19,109.94Zm19.54-23.61c-8.47.86-17.2,10.37-18.72,20.39C274.55,105.79,283.82,95.7,284.73,86.33Z" transform="translate(-3.82 -4.99)"/><path class="cls-1" d="M693.83,58.66c.39-1.21.89-2.88,1.47-4.53,1.66-4.69,3.76-9.14,7.46-12.64a27.07,27.07,0,0,1,13.42-6.65c1.87-.4,3.37,1,2.9,2.7-1.58,5.7-3.51,11.25-7.48,15.85A25.37,25.37,0,0,1,699.12,61a20.67,20.67,0,0,1-2.55.64C694.89,61.86,693.77,60.83,693.83,58.66Zm3.2-.23C706,57.1,714.89,47.34,715.8,38,705.23,40.39,700.14,47.05,697,58.43Z" transform="translate(-3.82 -4.99)"/><path class="cls-1" d="M748.34,136.27a2.3,2.3,0,0,1-2.78,2.5c-9.93-2-16.72-7.64-20.25-17.15-.79-2.12-1.38-4.33-2.23-6.43a2.53,2.53,0,0,1,3-3.19A29.38,29.38,0,0,1,739,118.35a25.16,25.16,0,0,1,6.36,9.32c1,2.49,1.85,5.08,2.75,7.64A6.37,6.37,0,0,1,748.34,136.27Zm-3.26-.71c-2.06-10.51-11.24-20.41-18.78-20.3C727.52,124.82,737,135.11,745.08,135.56Z" transform="translate(-3.82 -4.99)"/><path class="cls-1" d="M696.66,6c1.14.34,2.83.78,4.48,1.34C709,10.06,714,15.69,716.85,23.32c.76,2.05,1.41,4.14,2.12,6.21a2.43,2.43,0,0,1-3,3.3c-9-2-15.71-7-19.24-15.72-1-2.5-1.9-5.06-2.75-7.63C693.34,7.57,694.32,6.07,696.66,6Zm.42,3.17c1.33,9.87,10.51,19.82,18.77,20.45C712.74,18,707.6,11.81,697.08,9.21Z" transform="translate(-3.82 -4.99)"/><path class="cls-1" d="M725.8,32.9c-1.93,0-3.23-1.38-2.82-2.75,1.63-5.43,3.39-10.82,7.06-15.32a25.29,25.29,0,0,1,12.84-8.08c.8-.24,1.61-.49,2.42-.66,2-.38,3.48,1,3,2.88-1.56,5.55-3.46,11-7.24,15.47a25.07,25.07,0,0,1-12.17,7.66C727.72,32.46,726.55,32.71,725.8,32.9ZM745,9.18c-4.83,1.2-9,3.29-12.27,7-3.39,3.89-5.11,8.62-6.59,13.54C735,28.58,744,18.79,745,9.18Z" transform="translate(-3.82 -4.99)"/><path class="cls-1" d="M236.19,138.68c-1.9,0-3.05-1.25-2.64-2.74,2.34-8.45,5.42-16.49,13.79-20.89a44.88,44.88,0,0,1,8.24-3.1c2.37-.7,3.81,1,3.08,3.34a49.7,49.7,0,0,1-5,12c-3.46,5.56-8.55,8.89-14.74,10.69C237.89,138.28,236.84,138.51,236.19,138.68Zm.62-3.22c8.84-1.25,17.85-11.12,18.71-20.42C247,116,238.15,125.58,236.81,135.46Z" transform="translate(-3.82 -4.99)"/><path class="cls-1" d="M412.1,37.21c-.38,1.18-.9,2.9-1.49,4.58-1.63,4.67-3.76,9.05-7.41,12.55-3.87,3.71-8.63,5.62-13.76,6.77A2.14,2.14,0,0,1,386.88,59a9,9,0,0,1,.48-2.44c1.6-5.17,3.51-10.21,7.2-14.32,3.89-4.31,8.89-6.67,14.48-7.84C411,33.94,412.12,34.89,412.1,37.21Zm-22,20.63c8.41-.73,17.5-10.64,18.76-20.35C400.79,38,392.16,47.28,390.07,57.84Z" transform="translate(-3.82 -4.99)"/><path class="cls-1" d="M676.13,72.18A7.79,7.79,0,1,1,683.84,80,7.69,7.69,0,0,1,676.13,72.18Zm12.72-.08a4.93,4.93,0,1,0-9.86,0,4.93,4.93,0,1,0,9.86,0Z" transform="translate(-3.82 -4.99)"/><path class="cls-1" d="M460.59,71.54a7.51,7.51,0,0,1-7.8,7.79A7.64,7.64,0,0,1,445,71.48a7.82,7.82,0,0,1,7.85-7.82A7.67,7.67,0,0,1,460.59,71.54Zm-2.86-.07a5.09,5.09,0,0,0-4.85-5,5.19,5.19,0,0,0-5,5,5.07,5.07,0,0,0,5,5A5,5,0,0,0,457.73,71.47Z" transform="translate(-3.82 -4.99)"/><path class="cls-1" d="M146.53,64.06a7.83,7.83,0,1,1-.34,15.65,7.83,7.83,0,0,1,.34-15.65Zm-5.06,7.79a5,5,0,1,0,9.94,0,5.21,5.21,0,0,0-4.89-5A5.15,5.15,0,0,0,141.47,71.85Z" transform="translate(-3.82 -4.99)"/><path class="cls-1" d="M905.33,71.62a7.79,7.79,0,1,1,7.73,7.85A7.71,7.71,0,0,1,905.33,71.62Zm2.86,0a5,5,0,0,0,4.78,5,5,5,0,1,0-4.78-5Z" transform="translate(-3.82 -4.99)"/><path class="cls-1" d="M530.68,79.71a7.59,7.59,0,0,1-7.75-7.7,7.83,7.83,0,1,1,15.65-.1C538.6,76.55,534.67,80.05,530.68,79.71Zm.11-2.86A5,5,0,0,0,535.7,72a5,5,0,1,0-9.91,0A4.92,4.92,0,0,0,530.79,76.85Z" transform="translate(-3.82 -4.99)"/><path class="cls-1" d="M844.57,71.81a7.82,7.82,0,1,1-7.68-8A7.77,7.77,0,0,1,844.57,71.81Zm-7.9,4.8a5.09,5.09,0,0,0,5-4.91,5,5,0,0,0-9.91-.14A5.06,5.06,0,0,0,836.67,76.61Z" transform="translate(-3.82 -4.99)"/><path class="cls-1" d="M767.55,72a7.62,7.62,0,0,1-7.82,7.87A7.82,7.82,0,0,1,752,72.09a7.65,7.65,0,0,1,7.77-7.8A7.49,7.49,0,0,1,767.55,72Zm-7.75-4.85a5,5,0,0,0-5,4.81,5.16,5.16,0,0,0,4.9,5.05,4.93,4.93,0,0,0,5-4.92A4.82,4.82,0,0,0,759.8,67.15Z" transform="translate(-3.82 -4.99)"/><path class="cls-1" d="M606.74,64.29a7.51,7.51,0,0,1,7.79,7.79,7.67,7.67,0,0,1-7.86,7.8A7.85,7.85,0,0,1,598.85,72,7.73,7.73,0,0,1,606.74,64.29Zm0,2.86a5.06,5.06,0,0,0-5,4.8A5.19,5.19,0,0,0,606.64,77a5.11,5.11,0,0,0,5-4.93A5,5,0,0,0,606.7,67.15Z" transform="translate(-3.82 -4.99)"/><path class="cls-1" d="M223.63,79.71c-3.94.31-7.84-3.17-7.83-7.73a7.81,7.81,0,1,1,15.61,0A7.6,7.6,0,0,1,223.63,79.71Zm-.07-2.86a4.82,4.82,0,0,0,5-4.86,5,5,0,0,0-4.9-5,5.17,5.17,0,0,0-5,5A4.92,4.92,0,0,0,223.56,76.85Z" transform="translate(-3.82 -4.99)"/><path class="cls-1" d="M70.52,64.05a7.62,7.62,0,0,1,7.75,7.82,7.8,7.8,0,0,1-15.6,0A7.6,7.6,0,0,1,70.52,64.05Zm0,2.86a4.91,4.91,0,0,0-5,4.9,5,5,0,0,0,4.93,5,5.09,5.09,0,0,0,4.93-5A5,5,0,0,0,70.51,66.91Z" transform="translate(-3.82 -4.99)"/><path class="cls-1" d="M368.64,71.42a7.82,7.82,0,1,1,15.63.17,7.82,7.82,0,1,1-15.63-.17Zm7.72,5a5,5,0,0,0,5-4.75,5.09,5.09,0,0,0-4.89-5.17,5.16,5.16,0,0,0-5,4.84A5.05,5.05,0,0,0,376.36,76.44Z" transform="translate(-3.82 -4.99)"/><path class="cls-1" d="M299.47,79.71a7.82,7.82,0,1,1,.11-15.64,7.82,7.82,0,1,1-.11,15.64Zm0-2.87a5.14,5.14,0,0,0,5-5,5.25,5.25,0,0,0-5-5,5.14,5.14,0,0,0-4.92,4.93A5,5,0,0,0,299.51,76.84Z" transform="translate(-3.82 -4.99)"/></svg>