<svg id="Layer_1" data-name="Layer 1" xmlns="http://www.w3.org/2000/svg" width="4.01in" height="4.01in" viewBox="0 0 289 289"><defs><style>.cls-1{fill:none;stroke:#231f20;stroke-miterlimit:10;}</style></defs><path class="cls-1" d="M416.05,277.12H414.4a129.49,129.49,0,0,0-30.12-77.05l9.86-9.86a8.71,8.71,0,0,0,0-12.27l-5.46-5.46a8.71,8.71,0,0,0-12.27,0l-10,10a129.5,129.5,0,0,0-76.79-28.94V150.7A8.71,8.71,0,0,0,281,142h-.46a8.7,8.7,0,0,0-8.67,8.68V154a129.61,129.61,0,0,0-73.47,32l-13.44-13.44a8.69,8.69,0,0,0-12.27,0l-5.46,5.46a8.7,8.7,0,0,0,0,12.26l14.07,14.07a129.31,129.31,0,0,0-26.65,72.72h-9.21a8.7,8.7,0,0,0-8.67,8.67v.47a8.7,8.7,0,0,0,8.67,8.67H155a129.39,129.39,0,0,0,28.65,70.61l-16.29,16.3a8.68,8.68,0,0,0,0,12.26l5.46,5.47a8.7,8.7,0,0,0,12.26,0l16.19-16.19a129.44,129.44,0,0,0,70.6,29.54v8.43a8.69,8.69,0,0,0,8.67,8.67H281a8.7,8.7,0,0,0,8.68-8.67v-7.92a129.36,129.36,0,0,0,74.09-26.81l12.82,12.82a8.7,8.7,0,0,0,12.26,0l5.47-5.46a8.71,8.71,0,0,0,0-12.27L382,369.49a129.45,129.45,0,0,0,32-74.56h2a8.69,8.69,0,0,0,8.67-8.67v-.47A8.69,8.69,0,0,0,416.05,277.12Zm-27.7,0H339.59a59.09,59.09,0,0,0-8.91-23.46l35.11-35.11A103.58,103.58,0,0,1,388.35,277.12ZM347.9,201l-35,35a59.12,59.12,0,0,0-23.3-8.82V179.56A103.57,103.57,0,0,1,347.9,201Zm-76.08-20.78v46.94a59.39,59.39,0,0,0-23.46,8.91l-31.57-31.57A103.57,103.57,0,0,1,271.82,180.21Zm-72,42.78,30.82,30.83a59.2,59.2,0,0,0-8.81,23.3h-41.2A103.51,103.51,0,0,1,199.84,223Zm-18.76,71.94h40.77a59.28,59.28,0,0,0,8.91,23.45L202.12,347A103.46,103.46,0,0,1,181.08,294.93Zm38.63,70,28.81-28.81a59,59,0,0,0,23.3,8.81v41.87A103.58,103.58,0,0,1,219.71,364.89Zm69.92,22.51V344.89A59,59,0,0,0,313.08,336L345.14,368A103.51,103.51,0,0,1,289.63,387.4Zm74-36.34-32.83-32.83a59.1,59.1,0,0,0,8.81-23.3h48.33A103.72,103.72,0,0,1,363.61,351.06Z" transform="translate(-136.22 -141.52)"/></svg>