<svg id="firstAid" xmlns="http://www.w3.org/2000/svg" width="2.97in" height="0.97in" viewBox="0 0 213.62 69.77"><defs><style>.cls-1{fill:none;stroke:#000;stroke-miterlimit:10;}</style></defs><path class="cls-1" d="M355.2,256.12c-1.42,1.32-2.74,2.58-4.09,3.81-5.71,5.24-14.55,2.78-17.4-4.29A23.76,23.76,0,0,1,332.39,245a50,50,0,0,1,4.39-17.57,19.49,19.49,0,0,1,2.06-3.5c3.26-4.4,7.85-4.92,12.06-1.42,1.31,1.1,2.55,2.27,4,3.59.16-1.8.38-3.36.42-4.93.19-7.32.34-14.63.5-21.94,0-1.27.31-1.59,1.61-1.65a4.38,4.38,0,0,1,4.59,4.72c-.17,2.58-.67,5.15-.9,7.73-.39,4.29-.8,8.59-1,12.9q-.6,14-.93,27.91a34.25,34.25,0,0,0,1.53,11.84c.26.77-.46,1.49-1.47,1.53a4.24,4.24,0,0,1-3.68-3.36C355.5,259.28,355.34,257.69,355.2,256.12ZM355,237a13.51,13.51,0,0,0-3.14-9.53,5.48,5.48,0,0,0-9,.19,10.77,10.77,0,0,0-1.4,2.22,44.55,44.55,0,0,0-4.08,20.36,12.68,12.68,0,0,0,2.15,6.89,5.18,5.18,0,0,0,5.42,2.26c3-.51,4.81-2.57,6.1-5.1C353.76,249.14,354.79,243.55,355,237Z" transform="translate(-148.94 -196.36)"/><path class="cls-1" d="M306.51,258.77a20.42,20.42,0,0,1-7.51,3.31,15.93,15.93,0,0,1-13.82-3.39c-3-2.47-3.54-6.3-1-9.24,3.56-4.14,8-6.87,13.67-6.89,2.52,0,5,0,7.55,0,.88,0,1.3-.32,1.33-1.13.14-4,.17-8.11-1.63-11.86a6.23,6.23,0,0,0-10.31-1.72,15.45,15.45,0,0,0-4.9,11c0,1.17-.5,1.45-1.58,1a3.66,3.66,0,0,1-2.31-3.69A21.75,21.75,0,0,1,291.22,224c2.31-2.58,5.42-2.66,8.57-2.05a16.06,16.06,0,0,1,9,5.07,10.44,10.44,0,0,1,2.75,7.22q.06,11.22.16,22.43c0,2.23,0,4.47.09,6.71,0,1,.06,2-1.28,2.16-1.73.28-3.08-.28-3.42-1.62a11.51,11.51,0,0,1-.18-2.5c0-.85,0-1.71,0-2.57Zm-5.79-13.34,0,.25c-.44,0-.88,0-1.32,0-3.17.31-6.25.92-8.75,3.1a5.64,5.64,0,0,0-1.89,5.73c.44,2.06,2.08,3.08,4,3.59,4.6,1.25,8.48-.24,11.85-3.36a7.34,7.34,0,0,0,2.29-5.12,3.06,3.06,0,0,0-2.05-3.3A32.07,32.07,0,0,0,300.72,245.43Z" transform="translate(-148.94 -196.36)"/><path class="cls-1" d="M234.67,234.58c-.43,2.43-.88,4.85-1.3,7.28-.15.88-.69,1.5-1.5,1.41a22.57,22.57,0,0,1-3.86-.92c-.13,0-.24-.71-.11-1,2-4.06,1.78-8.3.9-12.54-.62-3-2.4-4.54-4.92-4.86a4.57,4.57,0,0,0-4.52,1.89,15.42,15.42,0,0,0-3.15,10.1c.17,3.35,2.1,5.89,4.65,7.79,3.29,2.45,6.81,4.6,10.21,6.91a46,46,0,0,1,4.43,3.27c1.64,1.45,1.69,3,.34,4.76-1.55,2-3.77,2.92-6.05,3.68-5.68,1.88-11,1.25-15.66-2.65-1.81-1.5-3.62-3-5.31-4.66a2.41,2.41,0,0,1-.53-3.26,3.4,3.4,0,0,1,3.24-1.06c.21.05.39.31.53.51a15.77,15.77,0,0,0,2.14,3,24.58,24.58,0,0,0,9.63,5.18,10.61,10.61,0,0,0,4.59.15c2.29-.44,2.84-2.53,1.14-4.1a34.13,34.13,0,0,0-4.24-3.1c-2.56-1.71-5.27-3.21-7.72-5-7.64-5.73-8.47-14.25-4.53-21.67a17,17,0,0,1,2-3,7.15,7.15,0,0,1,8.2-2.33,21.34,21.34,0,0,1,8.32,5.07c2.11,2,2.51,4.64,2.77,7.33,0,.6,0,1.2,0,1.8Z" transform="translate(-148.94 -196.36)"/><path class="cls-1" d="M175.4,205.63a4.26,4.26,0,0,0-3.92-4.08,4.94,4.94,0,0,0-5.24,2.33,24.83,24.83,0,0,0-3.4,9A59.48,59.48,0,0,0,161.37,226l2.39.12c1,0,2,0,3,.11a2.4,2.4,0,0,1,2.08,3.64,1.48,1.48,0,0,1-1,.66c-1.7.22-3.41.41-5.11.48-1.12.05-1.66.37-1.64,1.6.08,8,.07,15.89.19,23.84a22.58,22.58,0,0,0,.73,4.11,2,2,0,0,1-1.22,2.64c-1.44.6-3,.39-3.54-.69a9.45,9.45,0,0,1-1-3.52c-.13-5.87-.11-11.74-.13-17.61,0-3.24,0-6.47,0-9.86h-4.24c-1.48,0-2.12-.43-2.34-1.52a2.4,2.4,0,0,1,1.62-3,20.06,20.06,0,0,1,3.56-.32c.59,0,1.19,0,1.93,0,.17-2.4.34-4.74.52-7.07a50.79,50.79,0,0,1,2.41-12.8,17.45,17.45,0,0,1,4.27-7.12,11.23,11.23,0,0,1,12-1.87,5.79,5.79,0,0,1,3.16,6.27,2.31,2.31,0,0,1-1.31,1.33A7.65,7.65,0,0,1,175.4,205.63Z" transform="translate(-148.94 -196.36)"/><path class="cls-1" d="M250.48,227.87c1.74-.09,3.37-.19,5-.24s2.55.46,2.75,1.66a2.64,2.64,0,0,1-2,3.12c-1.74.43-3.53.69-5.3,1-.76.11-1.09.39-1.08,1.22.07,6.63,0,13.27.19,19.9a42.4,42.4,0,0,0,.78,5.2,2.63,2.63,0,0,1-2,3.11c-1.08.36-2-.12-2.75-1.53a15.58,15.58,0,0,1-1.61-7.18c0-6.16,0-12.32,0-18.47V234c-1.35.05-2.65.06-3.93.18-2,.19-2.87-.18-3.17-1.49a2.71,2.71,0,0,1,2.16-3.35c1.71-.44,3.51-.58,5.42-.88.23-3.27.48-6.69.72-10.11.12-1.71.28-3.43.34-5.14a9.3,9.3,0,0,0-.24-2.58,1.44,1.44,0,0,1,.78-1.79c1.92-1.14,4.86.19,4.88,2.41,0,2.7-.37,5.41-.59,8.11-.18,2.19-.41,4.37-.56,6.56A12.29,12.29,0,0,0,250.48,227.87Z" transform="translate(-148.94 -196.36)"/><path class="cls-1" d="M194.05,227c.71-1.06,1.4-2.11,2.12-3.16,2.56-3.74,6.8-3.94,9.63-.41a25.44,25.44,0,0,1,2.33,3.48,3.27,3.27,0,0,1-1,4.36c-1.18.85-2.26.34-2.5-1.1a13.83,13.83,0,0,0-.77-3,3.9,3.9,0,0,0-3.61-2.36c-1.48-.12-2.25.92-2.88,2a34.72,34.72,0,0,0-4,12.1,77.55,77.55,0,0,0-.22,17.23,10.89,10.89,0,0,0,.77,2.62c.6,1.75,0,2.79-1.84,3.09-2.6.42-4.44-1.18-3.92-3.67.75-3.63.3-7.24.2-10.86-.2-7.47-.5-14.93-.73-22.4,0-.94-.11-2,1-2.5,1.32-.59,3.75-.36,4.44.48a2.88,2.88,0,0,1,.53,1.41c.12.86.13,1.74.18,2.61Z" transform="translate(-148.94 -196.36)"/><path class="cls-1" d="M174.89,241.05c0-5.55,0-11.1,0-16.66a1.36,1.36,0,0,1,1.17-1.58,5,5,0,0,1,4.68,1.16,2.35,2.35,0,0,1,.47,1.84c-.28,2.13-.76,4.24-1.08,6.37a27.09,27.09,0,0,0-.37,3.92c0,5.88-.07,11.75,0,17.63a64.35,64.35,0,0,0,.66,6.77c.17,1.3-.21,1.77-1.52,1.64-2.73-.26-4-1.65-4-4.54C174.87,252.08,174.89,246.57,174.89,241.05Z" transform="translate(-148.94 -196.36)"/><path class="cls-1" d="M319.57,241.13c0-5.59,0-11.18,0-16.77a1.35,1.35,0,0,1,1.2-1.56,5.19,5.19,0,0,1,4.59,1.12,1.72,1.72,0,0,1,.51,1.35c-.2,1.82-.57,3.62-.81,5.43a49.92,49.92,0,0,0-.6,5.82c-.08,5.91-.09,11.82,0,17.73a49.41,49.41,0,0,0,.64,6.18c.19,1.37-.19,1.86-1.58,1.7-2.71-.3-3.91-1.62-3.92-4.46C319.55,252.16,319.57,246.65,319.57,241.13Z" transform="translate(-148.94 -196.36)"/><path class="cls-1" d="M180,214.08c-3.13,0-5.55-3-4.59-5.67a3.1,3.1,0,0,1,1.34-1.56,4.64,4.64,0,0,1,5,1,4.2,4.2,0,0,1,1.07,4.51C182.44,213.51,181.46,214.08,180,214.08Z" transform="translate(-148.94 -196.36)"/><path class="cls-1" d="M319.81,209.59c0-2,1.09-3.05,3.16-3.07A4.33,4.33,0,0,1,327.5,212a3,3,0,0,1-1.46,1.84C323.38,215,319.77,212.51,319.81,209.59Z" transform="translate(-148.94 -196.36)"/></svg>