<svg id="hair_body" data-name="hair + body" xmlns="http://www.w3.org/2000/svg" width="4.5in" height="1.22in" viewBox="0 0 323.99 87.8"><defs><style>.cls-1{fill:none;stroke:#000;stroke-miterlimit:10;}</style></defs><path class="cls-1" d="M409.71,247.81c-.71.61-1.32,1.07-1.85,1.6-4.58,4.53-12.49,2.76-15.68-1.95a17.7,17.7,0,0,1-3.1-10.16c0-7.47.17-14.94.33-22.41,0-2.18,1.17-3.18,3.34-3.21q.3,0,.6,0c2.52,0,2.54.28,2.16,2.75a94,94,0,0,0-1.19,10.95c-.17,4.7-.06,9.42.18,14.12a12.56,12.56,0,0,0,1.45,4.89c2.13,4.23,7.34,4.68,10.3,1a21.23,21.23,0,0,0,4-9.9,39.2,39.2,0,0,0,.47-5.84c.13-4.75.16-9.51.27-14.26,0-1.74.8-2.45,2.54-2.5a8.89,8.89,0,0,1,1.54.13c2,.32,2.45,1,2.06,3a97.7,97.7,0,0,0-2.28,22.12c.2,7.67.05,15.35,0,23s-5,13.09-12.81,13.36A20,20,0,0,1,387.45,269a4.19,4.19,0,0,1-1.59-3.71,2.13,2.13,0,0,1,1.43-2,2.48,2.48,0,0,1,2.86.6c.56.63,1.15,1.22,1.72,1.84,3.35,3.67,7.54,4.64,12.24,3.58,3.64-.82,5.48-3.28,5.93-7.48a39.19,39.19,0,0,0-.16-10.87A27.79,27.79,0,0,1,409.71,247.81Z" transform="translate(-93.76 -187.17)"/><path class="cls-1" d="M378,246.53c-1.19,1-2.47,2-3.64,3.17-6.28,6-15.73,3.07-18.3-5a28.22,28.22,0,0,1-.69-11.88,47.92,47.92,0,0,1,4.56-15.93,18.63,18.63,0,0,1,2.53-3.76,7,7,0,0,1,9.29-1.65,33.63,33.63,0,0,1,4.06,3.14c.58.47,1.12,1,1.89,1.7.16-1.81.38-3.37.42-4.94.2-7.27.35-14.54.5-21.81,0-1.48.26-1.74,1.73-1.76a4.3,4.3,0,0,1,4.47,4.68c-.17,2.58-.66,5.15-.9,7.73-.38,4.25-.79,8.51-1,12.77-.4,9.47-.73,18.93-.94,28.4a32.91,32.91,0,0,0,1.52,11.47c.27.78-.42,1.49-1.45,1.54a4.24,4.24,0,0,1-3.7-3.34C378.25,249.42,378.1,247.83,378,246.53Zm-.34-18.87a25.22,25.22,0,0,0,0-2.75,12.43,12.43,0,0,0-3.36-7.63,5.46,5.46,0,0,0-8.7.63,9.07,9.07,0,0,0-1.3,2.14c-.92,2.38-1.86,4.76-2.55,7.21A35.11,35.11,0,0,0,360.39,242a14.68,14.68,0,0,0,1.19,4c1.86,4,6.1,4.9,9.51,2.07a13.22,13.22,0,0,0,3.7-5.52A38.86,38.86,0,0,0,377.64,227.66Z" transform="translate(-93.76 -187.17)"/><path class="cls-1" d="M290.41,189.35a4.07,4.07,0,0,1,5,4.38c-.08,2.15-.27,4.31-.5,6.45-.6,5.64-1.59,11.25-1.22,17.21a8.1,8.1,0,0,0,.93-.94c.54-.74,1-1.53,1.52-2.3,2.37-3.56,5.33-4.69,9.41-3.34,5,1.65,7.89,5.4,9.44,10.25,1.09,3.39,1,6.94,1,10.46,0,5-.64,9.9-2.86,14.46-1.84,3.76-4.71,6.2-9,6.23a19.9,19.9,0,0,1-5.14-1c-1.57-.41-3.08-1.06-4.84-1.67,0,1,0,1.84,0,2.68,0,1,.49,2.27-1.12,2.61a3,3,0,0,1-3.4-2,24,24,0,0,1-.71-5q-.06-9,.12-18c.12-6.15.4-12.3.61-18.45l.72-21.69C290.34,189.64,290.39,189.49,290.41,189.35Zm20.51,41.9c0-.72,0-1.44,0-2.16-.22-3.72-.66-7.41-2.37-10.8-1.9-3.75-5.7-4.64-8.83-1.84a15.9,15.9,0,0,0-3.56,5,30.56,30.56,0,0,0-2.72,15.64,17.78,17.78,0,0,0,2.62,8.25,6.86,6.86,0,0,0,7.2,3.46c2.86-.43,4.34-2.52,5.42-4.92A29.54,29.54,0,0,0,310.92,231.25Z" transform="translate(-93.76 -187.17)"/><path class="cls-1" d="M99.51,216.35c.91-.69,1.51-1.12,2.1-1.59a6,6,0,0,1,5.16-1.28c3.64.76,7.17,1.76,9.67,4.8a16.48,16.48,0,0,1,3.42,8.57,53.57,53.57,0,0,1,.44,6.57c.06,6.4,0,12.8,0,19.2,0,.66-.15,1.8-.45,1.88a7.67,7.67,0,0,1-3.33.2c-.87-.17-1.26-1-1.26-2,0-6.23,0-12.47-.2-18.7a35.65,35.65,0,0,0-1.92-11.3,13.72,13.72,0,0,0-1.81-3.48,4.8,4.8,0,0,0-7.26-.9,12.42,12.42,0,0,0-4.09,7.92c-1,5.79-.68,11.63-.49,17.45.07,2.15.53,4.28.75,6.42.1.92.43,2-.72,2.55A3.4,3.4,0,0,1,96,252.1a5.24,5.24,0,0,1-1.77-4c.08-8.76.2-17.51.3-26.26.07-6.56.1-13.12.17-19.67,0-3.64.1-7.28.14-10.91a9.3,9.3,0,0,0-.16-1.18c-.23-1.78.85-2.82,2.49-2.15a11.37,11.37,0,0,1,3.52,2.39,3,3,0,0,1,.37,2.23c-.29,2.22-.65,4.43-1.13,6.61-.88,4-.41,8-.45,11.95C99.49,212.72,99.51,214.38,99.51,216.35Z" transform="translate(-93.76 -187.17)"/><path class="cls-1" d="M149.24,249a63.17,63.17,0,0,1-5.94,2.67,15.91,15.91,0,0,1-14.82-2.2c-4.14-2.92-4.57-7.37-1-10.94,3-3,6.56-5.33,10.92-5.75a76.87,76.87,0,0,1,9.11-.06c1.21,0,1.7-.43,1.71-1.54a31.29,31.29,0,0,0-1.05-10c-1.13-3.58-3.41-5.26-6.86-5.16a5.7,5.7,0,0,0-3.86,1.71,15.26,15.26,0,0,0-5.08,11.13c0,1.22-.54,1.53-1.67,1a3.71,3.71,0,0,1-2.25-4,23.67,23.67,0,0,1,4.46-11c2.39-3.23,5.76-3.59,9.39-2.88a16,16,0,0,1,8.6,4.68,10.49,10.49,0,0,1,3.09,7.56c0,9.11.14,18.22.23,27.34,0,.84.11,1.68,0,2.51a1.76,1.76,0,0,1-.57,1.21,2.8,2.8,0,0,1-4.29-2.11c-.06-1,0-1.92,0-2.88C149.38,249.92,149.29,249.41,149.24,249Zm-10.93-.22a13.61,13.61,0,0,0,8.86-4.1,7.08,7.08,0,0,0,2.05-4.34c.24-2.43-.71-3.85-3.09-4.31a16.86,16.86,0,0,0-8.85.66,15,15,0,0,0-4,2.06,5.49,5.49,0,0,0-2.11,5.75c.42,2.16,2.1,3.12,4,3.71A23.75,23.75,0,0,0,138.31,248.8Z" transform="translate(-93.76 -187.17)"/><path class="cls-1" d="M350.55,233.07a28.24,28.24,0,0,1-4.2,15.07,13,13,0,0,1-13.15,6.32c-5.61-.61-9.18-3.86-11-9-2.22-6.28-2-12.66-.31-19a29,29,0,0,1,5.83-11.95c2.07-2.39,4.59-4.05,7.89-3.86a9.26,9.26,0,0,1,3.5,1c6,3.07,9.43,8.11,10.65,14.66C350.18,228.53,350.3,230.81,350.55,233.07Zm-24.71,2.7a25.56,25.56,0,0,0,1.83,9.74c1.36,3,3.45,5.09,6.93,5.3a8.21,8.21,0,0,0,7.68-4,17.33,17.33,0,0,0,1.56-2.95c2.09-4.92,2.33-10.07,1.75-15.3a21.62,21.62,0,0,0-2.87-9.42c-2.46-3.86-7.12-4.66-10.49-1.57a17.9,17.9,0,0,0-3.66,5.1A29.51,29.51,0,0,0,325.84,235.77Z" transform="translate(-93.76 -187.17)"/><path class="cls-1" d="M239,222.59h-1.41c-5.4,0-10.8,0-16.2,0a1.4,1.4,0,0,1-1.63-1.28,3.82,3.82,0,0,1,.55-3.2,2.16,2.16,0,0,1,2.09-1.12c3,.24,6,.52,9.08.66,2.43.1,4.87,0,7.45,0,0-.48.06-.94.06-1.4,0-5.6,0-11.2,0-16.8a1.35,1.35,0,0,1,1.22-1.56,5.17,5.17,0,0,1,4.51,1.05,2.31,2.31,0,0,1,.58,1.78c-.38,2.77-1.07,5.51-1.29,8.28s-.05,5.66-.05,8.53a1.54,1.54,0,0,0,.46.15c5.31-.05,10.63-.09,15.94-.19a18.74,18.74,0,0,0,3-.45c.94-.17,1.34.2,1.37,1.13.07,2.76-1.46,4.33-4.41,4.35-5,0-9.91,0-14.87,0h-1.31c-.08.17-.17.27-.17.37,0,5,0,10.07.08,15.11a21.38,21.38,0,0,0,.56,3.42c.16.92-.25,1.44-1.18,1.44-2.78,0-4.36-1.56-4.37-4.41,0-4.84,0-9.68,0-14.52Z" transform="translate(-93.76 -187.17)"/><path class="cls-1" d="M181.17,217.15c.73-1.09,1.43-2.2,2.19-3.27,2.58-3.66,6.79-3.82,9.56-.32a23,23,0,0,1,2.41,3.7,3.19,3.19,0,0,1-1.23,4.27,1.41,1.41,0,0,1-2.27-1.1,16.28,16.28,0,0,0-.65-2.78A4,4,0,0,0,188,215a2.54,2.54,0,0,0-3,1.32,66.61,66.61,0,0,0-3.12,7.22c-2,5.65-1.93,11.54-1.8,17.42,0,1.32,0,2.65.15,3.95a20.92,20.92,0,0,0,.87,3.82c.61,1.9.06,2.94-1.9,3.23-2.63.39-4.31-1.11-3.8-3.75.81-4.23.17-8.45.1-12.66-.11-6.91-.45-13.81-.64-20.72-.06-2.1.51-2.54,2.92-2.58,2.14,0,3,.67,3.07,2.6,0,.74.06,1.48.1,2.22Z" transform="translate(-93.76 -187.17)"/><path class="cls-1" d="M162.09,231.3c0-5.6,0-11.2,0-16.8a1.37,1.37,0,0,1,1.19-1.58,5.17,5.17,0,0,1,4.58,1.15,1.84,1.84,0,0,1,.51,1.46c-.36,2.57-.84,5.12-1.25,7.68a13.77,13.77,0,0,0-.16,2c0,6.6-.05,13.19,0,19.79a42.12,42.12,0,0,0,.61,5.58c.19,1.28-.14,1.74-1.4,1.64-2.83-.21-4.07-1.54-4.07-4.4C162.08,242.33,162.09,236.81,162.09,231.3Z" transform="translate(-93.76 -187.17)"/><path class="cls-1" d="M162.33,199.72c0-2.07,1-3,3.12-3.05a4.32,4.32,0,0,1,4.63,5,2.48,2.48,0,0,1-2.6,2.55A4.68,4.68,0,0,1,162.33,199.72Z" transform="translate(-93.76 -187.17)"/></svg>