<svg id="kids" xmlns="http://www.w3.org/2000/svg" width="1.55in" height="0.99in" viewBox="0 0 111.76 71.41"><defs><style>.cls-1{fill:none;stroke:#000;stroke-miterlimit:10;}</style></defs><path class="cls-1" d="M272.17,224.93c.19-5.55.42-11.09.57-16.64.09-3.36.1-6.72.07-10.07,0-1,.43-1.36,1.31-1.49a4.33,4.33,0,0,1,4.91,4.34,36.4,36.4,0,0,1-.6,6.07c-1.12,6.29-1.17,12.65-1.44,19-.29,7-.62,14.05-.76,21.08-.11,4.92,0,9.84,1.55,14.6.24.74-.37,1.41-1.33,1.5a4.15,4.15,0,0,1-3.78-3.22c-.14-1.62-.31-3.24-.5-5.19l-1,1.11a18.88,18.88,0,0,1-5.85,4.89c-5.32,2.58-11.85-.1-14.44-5.87a19.57,19.57,0,0,1-1.54-8.3,48.58,48.58,0,0,1,4.87-20.95,16.67,16.67,0,0,1,2.45-3.67c2.67-3.07,6.1-3.66,9.58-1.57a39.48,39.48,0,0,1,4.39,3.51c.39.32.75.67,1.13,1Zm-17.81,21.45a19.33,19.33,0,0,0,1.36,8.38c2,4.21,6.45,5.19,9.82,2a14.49,14.49,0,0,0,3.06-4.37A38.34,38.34,0,0,0,272,234.64a12.73,12.73,0,0,0-3.05-8,5.56,5.56,0,0,0-9,.13,11.64,11.64,0,0,0-1.39,2.22A46.08,46.08,0,0,0,254.36,246.38Z" transform="translate(-199.87 -195.32)"/><path class="cls-1" d="M207.6,243.88c-1.25,1.32-2.13,2.5-1.88,4.26a21.27,21.27,0,0,1,0,3.48,18,18,0,0,0,1,7.29c.7,1.73-.33,2.94-2.21,2.93a3.26,3.26,0,0,1-3.54-3.53c0-6.5-.42-13,.51-19.51a11.56,11.56,0,0,0,.07-1.56q0-13.06,0-26.14a42,42,0,0,0-1-10.83c-.33-1.26-.35-2.52,1-3.39s3-1.5,4.71-.6a1.5,1.5,0,0,1,.9,1.86c-1.31,4.82-1,9.76-1.05,14.66-.17,7.63-.24,15.27-.33,22.9a15.08,15.08,0,0,0,.17,1.7,14.28,14.28,0,0,0,1.79-1.22q6.24-5.85,12.44-11.76c2-1.84,3.85-3.73,5.84-5.52a2,2,0,0,1,3-.11c.94.79,1.65,2.86,1.19,3.68a3,3,0,0,1-.88.78,105.79,105.79,0,0,0-15,13.05c-3.71,4-3.21,4-.25,7.55C218.45,249,223,254.06,227.55,259a33.34,33.34,0,0,0,5.24,4c.7.51.79,1.14.13,1.72-2.3,2-4,2.16-6.21,0-2.85-2.84-5.47-5.92-8.15-8.93s-5.3-6.08-8-9.08C209.69,245.68,208.65,244.85,207.6,243.88Z" transform="translate(-199.87 -195.32)"/><path class="cls-1" d="M285.86,249.85a19.26,19.26,0,0,0,2.2,3,24.27,24.27,0,0,0,11.45,5.93,7.92,7.92,0,0,0,3.42-.18,2.24,2.24,0,0,0,1.06-4,34.16,34.16,0,0,0-4.32-3.19c-2.62-1.76-5.39-3.3-7.9-5.2-7.36-5.56-8.27-13.87-4.56-21.18a17.88,17.88,0,0,1,2.65-3.82,6.84,6.84,0,0,1,7.34-2,20.67,20.67,0,0,1,8.84,5.32c2.11,2.07,2.45,4.77,2.65,7.5a27.54,27.54,0,0,1-.94,8.66,1.89,1.89,0,0,1-2.11,1.65,5.22,5.22,0,0,1-1.19-.09c-2.5-.58-2.52-.84-1.7-3.2a17.47,17.47,0,0,0-.27-12.86c-1.75-4.14-6.7-4.5-9.21-.77a15.43,15.43,0,0,0-2.73,9.63,9.59,9.59,0,0,0,4,7.11c3.31,2.55,6.88,4.77,10.32,7.16a60.28,60.28,0,0,1,5,3.67c1.54,1.32,1.63,2.82.42,4.46a7.23,7.23,0,0,1-2,1.89c-5,3.06-10.38,4.24-15.87,1.8-2.71-1.21-5-3.4-7.42-5.2a17.84,17.84,0,0,1-2-1.92,2.49,2.49,0,0,1-.57-3,2.43,2.43,0,0,1,2.49-1.31Z" transform="translate(-199.87 -195.32)"/><path class="cls-1" d="M236.59,240.26c0-5.59,0-11.19,0-16.79a1.36,1.36,0,0,1,1.2-1.58,5.09,5.09,0,0,1,4.58,1.15,2.1,2.1,0,0,1,.53,1.69c-.32,2.33-.8,4.64-1.17,7a16.79,16.79,0,0,0-.23,2.74c0,6.64-.06,13.28,0,19.92a43.74,43.74,0,0,0,.63,5.45c.14,1-.19,1.42-1.19,1.42-2.83,0-4.33-1.47-4.34-4.4C236.58,251.3,236.59,245.78,236.59,240.26Z" transform="translate(-199.87 -195.32)"/><path class="cls-1" d="M240.07,205.66a4.34,4.34,0,0,1,4.55,5.14,2.52,2.52,0,0,1-2.45,2.34c-2.52.24-5-1.56-5.3-3.82S237.69,205.66,240.07,205.66Z" transform="translate(-199.87 -195.32)"/></svg>