<svg id="medicine" xmlns="http://www.w3.org/2000/svg" width="3.3in" height="0.94in" viewBox="0 0 237.85 67.67"><defs><style>.cls-1{fill:none;stroke:#000;stroke-miterlimit:10;}</style></defs><path class="cls-1" d="M141.88,234.14c1-2.33,2-4.68,3.1-7a19.73,19.73,0,0,1,2.39-4c2.36-2.87,5.66-2.81,8.14,0a23.21,23.21,0,0,1,4,7.33c.1.25.2.51.39,1a12.18,12.18,0,0,0,.72-1.18c.71-1.56,1.37-3.15,2.09-4.71a27.89,27.89,0,0,1,1.76-3.39,5.19,5.19,0,0,1,7.7-1.52,15.86,15.86,0,0,1,5.92,7.8,41.91,41.91,0,0,1,2.36,14.47c.08,6.07,0,12.15.06,18.23,0,1.46-.9,1.67-1.81,2.09a2.7,2.7,0,0,1-2.93-.34c-.22-.17-.21-.73-.21-1.11,0-4.36.16-8.73,0-13.08-.27-5.66-.73-11.31-1.33-16.94a18.48,18.48,0,0,0-1.67-5.59c-1.39-3-3.8-3.18-5.79-.47-1.86,2.53-2.61,5.54-3.48,8.49-1.95,6.59-1.77,13.35-1.64,20.11a18.57,18.57,0,0,0,.73,3.38c.26,1.27-.12,1.9-1.46,2.68a2,2,0,0,1-2.71-.31,4.32,4.32,0,0,1-1.51-3.36c.06-6,0-11.92,0-17.88a33.33,33.33,0,0,0-1.9-10.69c-1.17-3.42-2.49-3.64-4.82-.86a33.36,33.36,0,0,0-7.41,18.39,47.73,47.73,0,0,0,.35,10.75A25.31,25.31,0,0,1,143,260a2,2,0,0,1-2,2.25,2.15,2.15,0,0,1-2.6-1.87,72.93,72.93,0,0,1-1-8.8c-.15-7-.09-13.92,0-20.88,0-2.42.34-4.85.53-7.27A2.44,2.44,0,0,1,138,223c.42-1.64,1-2.22,2-2.09a3,3,0,0,1,2.51,2.77c-.21,2.63-.57,5.24-.86,7.86-.1.84-.18,1.68-.27,2.52Z" transform="translate(-136.83 -197.24)"/><path class="cls-1" d="M240.86,256c-1.1,1.17-2,2.18-3,3.11a12,12,0,0,1-6.35,3.64c-5.53.91-10.48-2.22-12.46-7.84a25.54,25.54,0,0,1-.9-11,48.58,48.58,0,0,1,4.05-15.7,22.5,22.5,0,0,1,3-4.88,7.05,7.05,0,0,1,9.85-1.63,66.52,66.52,0,0,1,5.59,4.44c.16-1.92.41-3.79.46-5.66.17-7,.28-14,.41-21,0-1.33.35-1.68,1.67-1.76a4.33,4.33,0,0,1,4.53,4.4c-.1,2.5-.58,5-.78,7.49-.46,5.85-.93,11.7-1.24,17.56-.36,7.06-.64,14.13-.78,21.19-.1,4.87,0,9.76,1.55,14.47.27.83-.61,1.63-1.67,1.55a4.24,4.24,0,0,1-3.45-3.58C241.24,259.31,241.05,257.8,240.86,256Zm-.17-17.66c0-5.09-1-8.2-3.05-10.65s-6.35-3.69-9.13.27a17.31,17.31,0,0,0-1.91,3.44,47.2,47.2,0,0,0-3.54,16.78,16.6,16.6,0,0,0,1.57,8c1.81,3.58,5.66,4.64,8.83,2.17A13.25,13.25,0,0,0,237,254,36.78,36.78,0,0,0,240.69,238.35Z" transform="translate(-136.83 -197.24)"/><path class="cls-1" d="M186.27,247.5c.3-7.81,1.59-14.52,4.69-20.78,2.83-5.72,6.68-6.87,12.28-3.76a23.59,23.59,0,0,1,6.83,5.58c3.15,3.81,3.64,8.17,1.15,12.48-2.88,5-7.14,8-13,8.28a9.12,9.12,0,0,1-3-.73c-.9-.29-1.76-.74-2.68-1-.75-.18-1.28.23-1.16,1.07a32.52,32.52,0,0,0,.94,5.87c1.29,3.93,4.85,5.36,9.18,4,3-.93,5.06-3,7-5.29.71-.87,1.38-1.76,2.1-2.62.47-.56,1-1,1.85-.75a2,2,0,0,1,1.4,1.77,6.4,6.4,0,0,1-1.68,5.19,18.92,18.92,0,0,1-6.89,4.66,15.49,15.49,0,0,1-9.13,1.19c-4.89-.84-8.13-4.14-9.15-9.51C186.55,251,186.42,248.82,186.27,247.5Zm21.07-12.16a10.93,10.93,0,0,0-1.43-5.5c-2.61-4.67-7.59-4.89-10.56-.42a17.46,17.46,0,0,0-2.85,9.27c-.14,4.76,3.78,7.71,8.36,6.36C204.53,244,207.31,239.79,207.34,235.34Z" transform="translate(-136.83 -197.24)"/><path class="cls-1" d="M351.69,249.9c.13.91.21,1.87.39,2.81,1,5.2,4.65,7.39,9.72,5.83a13.29,13.29,0,0,0,6.09-4.29c1-1.18,2-2.42,3-3.61.47-.56,1-1.06,1.85-.78a2,2,0,0,1,1.43,1.88,6.37,6.37,0,0,1-1.38,4.71c-3.56,4.74-11.86,7.55-17.6,5.94-4.68-1.3-7-4.73-7.88-9.2-1.36-6.57-.5-13.05,1.36-19.4.77-2.63,1.94-5.14,2.95-7.69a7.72,7.72,0,0,1,.74-1.23c2.29-3.39,4.94-4.35,8.79-3a20.77,20.77,0,0,1,10.3,8.07c2.56,3.78,2.08,7.76-.12,11.43-2.88,4.81-7.14,7.69-12.9,7.92a7.29,7.29,0,0,1-2.51-.59c-.82-.28-1.57-.79-2.41-1-1.3-.41-1.78,0-1.78,1.34Zm16-14.71a11,11,0,0,0-2.34-6.7,5.47,5.47,0,0,0-8.39-.58,13.13,13.13,0,0,0-3.63,7.29,15.28,15.28,0,0,0-.15,5.79c1.06,4.6,7.1,5.9,10.87,2.48A11,11,0,0,0,367.66,235.19Z" transform="translate(-136.83 -197.24)"/><path class="cls-1" d="M317.32,231.84c.62-1,1.21-2.1,1.87-3.13a49.43,49.43,0,0,1,3.49-5.26,5.79,5.79,0,0,1,6.44-1.75,13.47,13.47,0,0,1,9.6,8.57,45.52,45.52,0,0,1,2.75,15.26c.11,5.23,0,10.48.1,15.71a1.76,1.76,0,0,1-2.6,1.81l-.45-.17c-1.83-.76-1.77-.76-1.84-2.77-.21-6.59-.36-13.18-.75-19.76a33.48,33.48,0,0,0-2.32-11c-2.14-5.16-5.57-5.69-9.18-1.43-4.52,5.34-6.71,11.61-7.44,18.49a48.21,48.21,0,0,0,.61,11.82c.13.95.18,1.91.23,2.86a1.4,1.4,0,0,1-1.33,1.56A3,3,0,0,1,313,261a10.67,10.67,0,0,1-.75-3.6c-.07-7.6-.15-15.2,0-22.8a62.93,62.93,0,0,0-.51-9.9,3.51,3.51,0,0,1,2.55-3.71,2.11,2.11,0,0,1,2.67,2.15c-.07,2.44-.14,4.87-.2,7.31,0,.43.05.85.08,1.28Z" transform="translate(-136.83 -197.24)"/><path class="cls-1" d="M269.51,247.16a68.69,68.69,0,0,0,1.52,7.58c1.23,3.93,4.25,5.84,7.87,5.36a6.32,6.32,0,0,0,2-.56c3.93-2,7.26-4.64,9-8.87a6.47,6.47,0,0,1,.55-1.19c.5-.71,1.27-1.06,1.93-.4,1.27,1.23,2.26,2.82,1.15,4.58-3.23,5.17-7.36,9.19-13.82,9.79-7.21.67-12.51-3.09-14.46-10.17a28.2,28.2,0,0,1-.29-12.13A49,49,0,0,1,269.66,226a19.94,19.94,0,0,1,3-4.16,6,6,0,0,1,6.36-1.71,22.52,22.52,0,0,1,8.73,4.85,6.46,6.46,0,0,1,2,4.1,34.11,34.11,0,0,1-.17,11.09A8.36,8.36,0,0,1,289,242a2.53,2.53,0,0,1-4.51.66,1.47,1.47,0,0,1-.23-1.3c1.35-2,1.13-4.23,1.06-6.39a34.29,34.29,0,0,0-.79-7.23c-1-3.93-4.28-4.86-7.45-2.3a13.5,13.5,0,0,0-3.77,5.47,42.82,42.82,0,0,0-3.48,16.17Z" transform="translate(-136.83 -197.24)"/><path class="cls-1" d="M299,241.18c0-5.55,0-11.11,0-16.66a1.36,1.36,0,0,1,1.19-1.57,5.12,5.12,0,0,1,4.6,1.12,2.28,2.28,0,0,1,.53,1.81c-.27,2.13-.75,4.24-1.07,6.37a28.75,28.75,0,0,0-.37,4c0,5.52-.09,11,0,16.55.05,2.66.41,5.32.68,8,.12,1.13-.1,1.47-1.21,1.47-2.79,0-4.32-1.52-4.33-4.43C299,252.3,299,246.74,299,241.18Z" transform="translate(-136.83 -197.24)"/><path class="cls-1" d="M253.65,241.24c0-5.6,0-11.19,0-16.79a1.29,1.29,0,0,1,1.14-1.48,5.16,5.16,0,0,1,4.7,1.14,2,2,0,0,1,.49,1.6c-.3,2.17-.76,4.32-1.08,6.48a29,29,0,0,0-.37,4.05c0,5.63-.09,11.27,0,16.9.05,2.54.39,5.08.67,7.61.13,1.2-.09,1.54-1.28,1.52-2.75,0-4.24-1.53-4.25-4.37C253.64,252.34,253.65,246.79,253.65,241.24Z" transform="translate(-136.83 -197.24)"/><path class="cls-1" d="M302.47,206.7a4.39,4.39,0,0,1,4.54,5.46,2.51,2.51,0,0,1-2,2,5.06,5.06,0,0,1-5.68-3.48A3,3,0,0,1,302.47,206.7Z" transform="translate(-136.83 -197.24)"/><path class="cls-1" d="M257,206.7c3.26,0,5.47,2.67,4.51,5.62a3,3,0,0,1-1.41,1.63c-2.6,1.19-6.21-1.22-6.25-4.06C253.87,207.8,254.94,206.72,257,206.7Z" transform="translate(-136.83 -197.24)"/></svg>