<svg id="misc" xmlns="http://www.w3.org/2000/svg" width="5.28in" height="0.97in" viewBox="0 0 379.9 69.73"><defs><style>.cls-1{fill:none;stroke:#000;stroke-miterlimit:10;}</style></defs><path class="cls-1" d="M62.07,384.54c.9-2,1.7-4.12,2.72-6.09a27.85,27.85,0,0,1,3.3-5.36c1.9-2.2,4.61-2.17,6.83-.26s3.18,4.27,4.24,6.73c.3.7.54,1.42.92,2.42.57-1.09,1.07-2,1.49-2.88.79-1.75,1.44-3.56,2.34-5.24A9.71,9.71,0,0,1,86.2,371c1.85-1.5,4.26-1.34,6.43.26a17.72,17.72,0,0,1,6.45,10.09,48.14,48.14,0,0,1,1.56,12.58c0,5.88,0,11.76.06,17.64,0,1.45-.91,1.68-1.82,2.11a2.7,2.7,0,0,1-2.93-.34c-.22-.17-.2-.73-.21-1.11,0-5,.06-10-.07-15-.15-6-.33-11.92-1.9-17.71a14.74,14.74,0,0,0-1.79-4,2.45,2.45,0,0,0-4.09-.39,12.69,12.69,0,0,0-2.45,3.63,45.16,45.16,0,0,0-3.66,16.88c0,2.31-.09,4.64,0,6.95a37.9,37.9,0,0,0,.63,5.08c.31,1.65,0,2.42-1.51,3.21-1.17.59-2.09.44-3-.85a5.46,5.46,0,0,1-1.06-2.8c-.09-6.12,0-12.24-.06-18.36a31.15,31.15,0,0,0-2-10.55c-1.15-3.14-2.42-3.33-4.58-.76a32.43,32.43,0,0,0-7.63,20.74c-.09,3.49.4,7,.6,10.51a8.91,8.91,0,0,1-.1,2.13,2,2,0,0,1-2.2,1.79,2.21,2.21,0,0,1-2.33-1.82,61.36,61.36,0,0,1-1-8c-.11-8.16,0-16.32,0-24.47a28,28,0,0,1,.59-5c.19-1,.4-2.26,1.89-2.21a3.17,3.17,0,0,1,2.67,2.93c-.09,1.63-.34,3.26-.54,4.88s-.41,3.09-.59,4.64a3.29,3.29,0,0,0,.09.76Z" transform="translate(-57.06 -346.93)"/><path class="cls-1" d="M264.41,409.19a21.26,21.26,0,0,1-7.72,3.44,16.08,16.08,0,0,1-13.37-3c-3.63-2.73-4.13-6.88-1-10.18,3.68-3.9,8.07-6.51,13.7-6.36,2.35.07,4.71,0,7.07,0,1,0,1.34-.44,1.37-1.25.09-3.64.07-7.3-1.23-10.77-1.95-5.21-7.36-6.32-11.18-2.27a14.91,14.91,0,0,0-4.42,10.45c0,1.29-.56,1.61-1.74,1a3.76,3.76,0,0,1-2.24-3.74,24.51,24.51,0,0,1,4.48-11.11c2.3-3.16,5.56-3.66,9.12-3a15.93,15.93,0,0,1,9.72,5.67,10,10,0,0,1,2.3,6.42q.13,14.7.24,29.38c0,1.78-.27,2.13-1.74,2.2-1.88.09-3-.68-3.07-2.23-.07-1.07-.06-2.15-.11-3.23C264.55,410.27,264.49,409.85,264.41,409.19ZM259,396.14c-3.92.17-7.14.66-9.95,2.58a6,6,0,0,0-2.7,6.2c.64,2.59,2.69,3.58,5,4,4.55.76,8.3-.89,11.37-4.2a6.72,6.72,0,0,0,1.73-4.61,3.14,3.14,0,0,0-2.43-3.4A26.7,26.7,0,0,0,259,396.14Z" transform="translate(-57.06 -346.93)"/><path class="cls-1" d="M397.41,409.2a12.51,12.51,0,0,1-9,5,7.14,7.14,0,0,1-3.77-.67c-5-2.46-7.12-6.71-7.16-12.17,0-6.47-.13-13-.19-19.42,0-2.44,0-4.88-.05-7.31a2,2,0,0,1,1.48-2.07c2.82-.95,4.53.22,4.47,3.17q-.22,10.84-.55,21.69a17.1,17.1,0,0,0,1.85,8.8c2.17,4.06,6.2,4.57,9.29,1.1a17.15,17.15,0,0,0,3.82-8.91,42.41,42.41,0,0,0,.5-6c.08-3.15,0-6.32,0-9.47a14.84,14.84,0,0,0-.78-5.4c-.85-2.3,0-3.47,2.43-3.81,2.86-.39,4.41.83,4.26,3.66-.21,4.23-.76,8.44-.89,12.67s.06,8.7.12,13.05c0,2.75.17,5.5.11,8.26,0,2.15-.62,2.78-2.1,2.9-1.85.15-2.93-.7-3.36-2.64Z" transform="translate(-57.06 -346.93)"/><path class="cls-1" d="M199.11,413.28c-8.14,0-12.37-3.75-13.34-10.82a44.05,44.05,0,0,1,4.42-25.71c2.54-5.21,6.18-6.31,11.39-3.75a22.7,22.7,0,0,1,8.14,6.74c2.79,3.69,2.66,7.66.61,11.51A15.79,15.79,0,0,1,198,399.76a7,7,0,0,1-4.22-1c-3-1.5-3.51-1.17-3.26,2.14a16.85,16.85,0,0,0,.45,2.83c1.19,4.74,4.54,6.64,9.25,5.3a13.85,13.85,0,0,0,6.9-4.94c.85-1,1.67-2,2.49-3.08.49-.62,1.17-1.06,1.85-.66a2.88,2.88,0,0,1,1.33,1.64,5.91,5.91,0,0,1-1.91,5.55C207.22,411.07,202.87,413.12,199.11,413.28Zm7.26-27a11.67,11.67,0,0,0-1.79-6.7c-2.43-3.8-6.94-4-9.7-.48a16.1,16.1,0,0,0-3.14,7.8,13.43,13.43,0,0,0-.15,3.22c.56,4.95,5.71,7.28,10,4.51A10.25,10.25,0,0,0,206.37,386.32Z" transform="translate(-57.06 -346.93)"/><path class="cls-1" d="M311.15,398.12a50.89,50.89,0,0,1,4.23-20.18,17.32,17.32,0,0,1,2-3.38c2.06-2.71,4.35-3.49,7.6-2.45A20,20,0,0,1,336.27,381c2.4,3.93,1.51,7.91-.84,11.52a15.63,15.63,0,0,1-11,7.18A6.62,6.62,0,0,1,320,399a10.92,10.92,0,0,0-2.43-1c-.8-.21-1.46.06-1.35,1.09a35.83,35.83,0,0,0,.6,5c1.12,4.43,4.59,6.25,9.15,5a14,14,0,0,0,6.91-4.93c.87-1,1.64-2.19,2.59-3.14a2.1,2.1,0,0,1,1.74-.59,2.3,2.3,0,0,1,1.31,1.48,5.51,5.51,0,0,1-1.54,5.3c-4.68,4.65-10.2,7.16-16.91,5.72-5-1.07-7.4-4.73-8.34-9.45C311.36,401.36,311.28,399.23,311.15,398.12Zm21-12.31a11.05,11.05,0,0,0-1.44-5.62c-2.53-4.56-7.49-4.83-10.42-.52a16.71,16.71,0,0,0-2.92,10.19,5.94,5.94,0,0,0,5.05,5.83,7.42,7.42,0,0,0,6.72-2.4A10.85,10.85,0,0,0,332.17,385.81Z" transform="translate(-57.06 -346.93)"/><path class="cls-1" d="M411.5,401.2a7.42,7.42,0,0,0,3.34,4.41,25.21,25.21,0,0,0,9.55,4.57,9.29,9.29,0,0,0,3.89-.12,2.2,2.2,0,0,0,1-3.95,40.09,40.09,0,0,0-4.52-3.32c-3-2.12-6.4-3.89-9.13-6.35-8.17-7.35-5.62-17.87-.69-23.48a7,7,0,0,1,7.85-2.11,20.51,20.51,0,0,1,8.83,5.54,8.49,8.49,0,0,1,2,4.4,25.66,25.66,0,0,1-.64,11.62,1.86,1.86,0,0,1-1.62,1.5,5.21,5.21,0,0,1-4.13-1.44c2.3-4.3,2.16-8.84,1-13.39a7.19,7.19,0,0,0-1.8-3.17,5,5,0,0,0-7.64.69,15.31,15.31,0,0,0-3,10.51,8,8,0,0,0,2.62,5.26,67.26,67.26,0,0,0,6.61,5.3c2.51,1.78,5.2,3.3,7.76,5a16.42,16.42,0,0,1,2.49,2.06,2.71,2.71,0,0,1,.5,3.8,8.07,8.07,0,0,1-2.47,2.53c-4.7,2.78-9.69,3.85-15,1.95a7.77,7.77,0,0,1-2.16-1c-2.47-1.89-4.89-3.85-7.3-5.82a5.29,5.29,0,0,1-1.06-1.29,2.25,2.25,0,0,1,1.37-3.41A17.85,17.85,0,0,1,411.5,401.2Z" transform="translate(-57.06 -346.93)"/><path class="cls-1" d="M121.48,401.61a24.75,24.75,0,0,0,3,3.46,23.87,23.87,0,0,0,10.18,5.11,9.29,9.29,0,0,0,3.89-.12,2.2,2.2,0,0,0,1-3.95,30.7,30.7,0,0,0-4.33-3.18c-3.42-2.15-7-4.07-9.88-6.95-7.4-7.33-5-17.7,0-23.21a7,7,0,0,1,7.69-1.93,21.21,21.21,0,0,1,8.52,5.2c2,1.88,2.43,4.35,2.65,6.89a27.53,27.53,0,0,1-.89,9.38c-.3,1.1-1,1.69-1.9,1.6a15.23,15.23,0,0,1-3.51-1c-.15-.05-.26-.71-.13-1,2.06-4.06,1.78-8.31.9-12.54-.64-3.09-2.48-4.67-5.14-4.9a4.56,4.56,0,0,0-3.45,1.06c-3.57,2.93-5.1,10.72-2.85,14.7a16.82,16.82,0,0,0,5.38,5.56c2.78,1.87,5.65,3.61,8.45,5.47a41.57,41.57,0,0,1,4.41,3.27,2.94,2.94,0,0,1,.43,4.38,8.09,8.09,0,0,1-2.34,2.18c-4.74,2.74-9.82,4-15,1.76-2.66-1.12-5-3.15-7.34-4.87a20.81,20.81,0,0,1-2.59-2.47,2.43,2.43,0,0,1-.59-2.86,2.52,2.52,0,0,1,2.44-1.41c.43,0,.87,0,1.3,0Z" transform="translate(-57.06 -346.93)"/><path class="cls-1" d="M281.81,382.26l1.77-2.88a49.28,49.28,0,0,1,3.17-5.05c1.94-2.44,4.48-3,7.52-2.08,5.72,1.76,8.53,5.95,10,11.4A49.26,49.26,0,0,1,306,396.2c.05,5.19,0,10.39,0,15.59,0,1.55-.81,2.15-2.31,1.72l-.24-.06c-2.19-.74-2.22-.87-2.3-3.19-.2-6.67-.28-13.35-.78-20a61.51,61.51,0,0,0-2.1-10,8.66,8.66,0,0,0-1.56-2.93c-1.56-2.09-3.8-2.51-5.71-.76a28.78,28.78,0,0,0-4.74,5.64,31.8,31.8,0,0,0-4.84,17.43c0,3.54.55,7.07.85,10.61,0,.08,0,.16,0,.24-.05.91.39,2-.82,2.51A3.11,3.11,0,0,1,278,412a8,8,0,0,1-1-2.63,13.52,13.52,0,0,1-.22-3c0-8,.17-16.07.15-24.11,0-2.62-.39-5.25-.58-7.87-.12-1.57,1.09-2.2,2.14-2.9a1.81,1.81,0,0,1,2.41.3,2.35,2.35,0,0,1,.65,1.51c0,2.6-.09,5.19-.14,7.78a6.78,6.78,0,0,0,.11,1Z" transform="translate(-57.06 -346.93)"/><path class="cls-1" d="M372.66,392.67c-.05,6-1.09,11-3.84,15.53-4.61,7.62-12.33,7.88-17.69,5.5-3.91-1.74-6.11-5.06-7.11-9a34.36,34.36,0,0,1,5.12-28.79,10.8,10.8,0,0,1,6.7-4.73,6.93,6.93,0,0,1,4.55.43c7,3.25,10.67,8.89,11.81,16.35C372.47,389.75,372.55,391.59,372.66,392.67Zm-4.55.51c-.07-1.06-.1-2.26-.23-3.45-.38-3.55-1-7.06-2.94-10.14-2.44-3.85-6.92-4.64-10.4-1.69a14.66,14.66,0,0,0-3.22,4.1,27.59,27.59,0,0,0-3.22,13,25,25,0,0,0,1.81,11,8.27,8.27,0,0,0,4.87,4.83c3.77,1.26,7.63-.24,10-4C367.31,402.72,368,398.09,368.11,393.18Z" transform="translate(-57.06 -346.93)"/><path class="cls-1" d="M177.19,384.67c-.42,2.5-.66,5.06-1.32,7.5-.6,2.21-2.56,2.65-4.29,1.12a1.78,1.78,0,0,1-.43-1.61,7.18,7.18,0,0,0,1-4.38c-.11-2.82-.2-5.66-.57-8.46-.25-1.87-1-3.72-3.19-4.22s-4,.54-5.41,2.12a20.18,20.18,0,0,0-3.93,7.47c-1.86,5.68-3,11.48-2,17.45a16.74,16.74,0,0,0,2.07,5.79,6.4,6.4,0,0,0,8.48,2.52c4.08-1.9,7.42-4.67,9.19-9a5.18,5.18,0,0,1,.58-1.18,1.22,1.22,0,0,1,1.87-.35,3.63,3.63,0,0,1,1.13,4.61c-3.36,5.42-7.75,9.49-14.52,9.87-6.95.39-12.14-3.68-13.88-10.71a29.78,29.78,0,0,1,0-12.61,48.47,48.47,0,0,1,4.86-14.72,17,17,0,0,1,2.71-3.62,5.94,5.94,0,0,1,6.24-1.75,22.49,22.49,0,0,1,9,5c1.84,1.66,1.86,4,2.11,6.19a27.65,27.65,0,0,1,0,2.88Z" transform="translate(-57.06 -346.93)"/><path class="cls-1" d="M230,378.65c0-7.95,0-15.9,0-23.86a26.89,26.89,0,0,0-.51-4.64,1.81,1.81,0,0,1,1.2-2.23,3.91,3.91,0,0,1,3.78,0c1.68.91,2.36,2.06,1.82,3.84-2.08,6.8-2,13.8-2.1,20.78-.07,6-.24,12,0,18,.19,5.61.79,11.22,1.27,16.82a11.87,11.87,0,0,0,.74,2.63c.54,1.59.17,2.91-1,3.42a2.44,2.44,0,0,1-3.52-1.46,20,20,0,0,1-1.41-5.53c-.31-4.38-.38-8.77-.43-13.16-.07-4.88,0-9.75,0-14.63Z" transform="translate(-57.06 -346.93)"/><path class="cls-1" d="M217.62,378.37c0-7.36,0-14.72,0-22.07,0-2.23-.36-4.46-.45-6.69a1.83,1.83,0,0,1,.64-1.34,3.89,3.89,0,0,1,4.8,0,2.86,2.86,0,0,1,1.39,3.17c-.53,2.62-1.23,5.22-1.51,7.86-.4,3.65-.61,7.33-.66,11-.09,7.83-.19,15.68,0,23.51.14,4.78.85,9.54,1.35,14.31a7.46,7.46,0,0,0,.57,1.81c.6,1.65.22,3-1,3.52a2.47,2.47,0,0,1-3.58-1.58,27,27,0,0,1-1.47-6.62c-.3-4.42-.29-8.87-.33-13.3s0-9,0-13.56Z" transform="translate(-57.06 -346.93)"/><path class="cls-1" d="M108,391.64c0-5.55,0-11.11,0-16.66a1.43,1.43,0,0,1,1.28-1.64,5.06,5.06,0,0,1,4.57,1.18,2.32,2.32,0,0,1,.48,1.82c-.37,2.65-1.08,5.26-1.27,7.91-.25,3.5-.15,7-.15,10.55,0,4.31,0,8.63.12,12.94a22.39,22.39,0,0,0,.52,3.43c.21,1.16-.17,1.6-1.37,1.54-2.74-.14-4.14-1.63-4.15-4.52C108,402.67,108,397.16,108,391.64Z" transform="translate(-57.06 -346.93)"/><path class="cls-1" d="M111.53,357.08A4.36,4.36,0,0,1,116,362.6a2.86,2.86,0,0,1-1.23,1.64,4.19,4.19,0,0,1-4.5-.56,4,4,0,0,1-1.94-4C108.53,357.89,109.57,357.06,111.53,357.08Z" transform="translate(-57.06 -346.93)"/></svg>