<svg id="travel" xmlns="http://www.w3.org/2000/svg" width="2.08in" height="0.97in" viewBox="0 0 149.65 69.71"><defs><style>.cls-1{fill:none;stroke:#000;stroke-miterlimit:10;}</style></defs><path class="cls-1" d="M251.54,258.36a19.27,19.27,0,0,1-10.79,3.85,15.31,15.31,0,0,1-10.91-3.86c-3.08-2.71-3.35-6.57-.54-9.55,3.7-3.93,8.07-6.63,13.77-6.42,2.36.08,4.72,0,7.08,0,.95,0,1.36-.41,1.38-1.23.11-3.76.11-7.54-1.32-11.1-2-4.85-7.22-6-10.86-2.21a14.61,14.61,0,0,0-4.6,10.6c0,1.36-.6,1.69-1.82,1.06a3.73,3.73,0,0,1-2.13-4.14,25.84,25.84,0,0,1,2.9-8.32c2.56-4.88,5.92-6.44,11.3-5.24a16.41,16.41,0,0,1,7.91,4.27,10.85,10.85,0,0,1,3.46,8.13c0,9.6.14,19.19.23,28.78,0,1.91-.32,2.36-1.92,2.41-1.79.06-2.84-.81-2.91-2.44,0-.84,0-1.68,0-2.52C251.72,259.83,251.63,259.21,251.54,258.36Zm-11.16.1a14.08,14.08,0,0,0,8.78-3.74,7.92,7.92,0,0,0,2.31-4.1c.56-2.72-.42-4.39-3.13-4.92a17.78,17.78,0,0,0-8.29.49A10.64,10.64,0,0,0,235,249c-2.9,3.08-1.94,7.33,2,8.75A25.24,25.24,0,0,0,240.38,258.46Z" transform="translate(-180.93 -196.22)"/><path class="cls-1" d="M291.3,247.28a51.58,51.58,0,0,1,4.14-19.85,18.51,18.51,0,0,1,1.9-3.32c2.14-3,4.57-3.88,8-2.72a20.4,20.4,0,0,1,11.12,8.85c2,3.27,1.61,6.76-.06,10a15.48,15.48,0,0,1-13.6,8.8,5.63,5.63,0,0,1-2.15-.61c-.89-.34-1.73-.85-2.63-1.13-1.15-.36-1.74.09-1.65,1.25a30.6,30.6,0,0,0,.53,4.39c1,4.61,4.4,6.6,9,5.42a13.57,13.57,0,0,0,7-4.8c.93-1.1,1.75-2.3,2.74-3.32a2.06,2.06,0,0,1,1.71-.61,2.52,2.52,0,0,1,1.37,1.54,5.34,5.34,0,0,1-1.45,5.1c-4.59,4.68-10,7.22-16.73,5.92-5.21-1-7.66-4.72-8.63-9.58C291.52,250.56,291.44,248.47,291.3,247.28Zm21-12.43a9.73,9.73,0,0,0-2.3-6.65,7.12,7.12,0,0,0-3.08-2.09c-2.5-.79-4.57.25-6.09,2.27a17,17,0,0,0-3.29,9.35c-.18,2.78.56,5.13,3.1,6.5a6.59,6.59,0,0,0,7.53-.74A10.38,10.38,0,0,0,312.33,234.85Z" transform="translate(-180.93 -196.22)"/><path class="cls-1" d="M288.93,226.44a70.12,70.12,0,0,1-3.18,19.07c-1.08,3.79-2.44,7.51-3.83,11.2a13.58,13.58,0,0,1-2.18,3.55c-1.64,2.05-3.57,2.35-5.86,1.05a12.54,12.54,0,0,1-4.33-4.56A55,55,0,0,1,263.86,243c-1.71-5.91-3.18-11.88-3.34-18.08a11.42,11.42,0,0,1,0-1.43,2.48,2.48,0,0,1,3.67-2,7.66,7.66,0,0,1,1.58,1.06,1.29,1.29,0,0,1,.41,1c-.64,3.91,0,7.74.81,11.53a79.34,79.34,0,0,0,6,17.78,15.71,15.71,0,0,0,1.54,2.55,1.47,1.47,0,0,0,2.53.23,7.81,7.81,0,0,0,1.53-2.11,39.68,39.68,0,0,0,3.22-10.87A108.3,108.3,0,0,0,284,223.32a2.61,2.61,0,0,1,2.24-2.28,2.17,2.17,0,0,1,2.52,1.7,4,4,0,0,1,.17.82C289,224.52,288.93,225.48,288.93,226.44Z" transform="translate(-180.93 -196.22)"/><path class="cls-1" d="M189.09,228.52c.27-3.76.53-7.34.78-10.92.12-1.71.26-3.42.34-5.14a5.72,5.72,0,0,0-.17-1.75,1.69,1.69,0,0,1,1.39-2.37c2.38-.53,4.36.95,4.21,3.38-.24,3.78-.72,7.55-1.07,11.32-.1,1.15-.08,2.31-.11,3.47,0,.82.27,1.23,1.21,1.12,1.27-.15,2.55-.17,3.83-.23,1.67-.08,2.64.46,2.86,1.56a2.72,2.72,0,0,1-2.09,3.29,45.69,45.69,0,0,1-5,.85c-1,.13-1.37.54-1.35,1.62.1,6.39.07,12.78.22,19.17.05,1.94.55,3.86.78,5.8a2.55,2.55,0,0,1-1.95,2.89c-1.06.36-2-.07-2.7-1.4a15.69,15.69,0,0,1-1.68-7.52c0-6.11,0-12.23,0-18.34,0-1.52-.08-1.61-1.63-1.54-1,.05-2.07.18-3.11.24a2,2,0,0,1-2.26-1.16,2.34,2.34,0,0,1,.78-3,21,21,0,0,1,4.39-1.33A10.73,10.73,0,0,1,189.09,228.52Z" transform="translate(-180.93 -196.22)"/><path class="cls-1" d="M323.6,228.25c0-7.67,0-15.34,0-23a54,54,0,0,0-.48-6,1.74,1.74,0,0,1,1.1-2.07,4.23,4.23,0,0,1,5.06.81,2.69,2.69,0,0,1,.69,2.78c-2.41,7.89-2.09,16-2.16,24.12-.07,6.83-.08,13.67.15,20.49.12,3.94.74,7.86,1.19,11.78a10.64,10.64,0,0,0,.69,2.16c.51,1.53.12,2.81-1,3.3a2.54,2.54,0,0,1-3.51-1.33,17.65,17.65,0,0,1-1.67-7.91c-.1-8.38,0-16.77,0-25.16Z" transform="translate(-180.93 -196.22)"/><path class="cls-1" d="M213.16,227.12c.93-1.4,1.64-2.5,2.39-3.58,2.49-3.59,6.75-3.8,9.49-.41a25.38,25.38,0,0,1,2.41,3.57,3.19,3.19,0,0,1-.89,4.26,2,2,0,0,1-1.62.34,2.68,2.68,0,0,1-.94-1.47,25.47,25.47,0,0,0-.85-3c-1.4-2.81-4.77-3-6.37-.34a33.37,33.37,0,0,0-4.06,12.21c-.89,5.68-.61,11.4-.23,17.11a8.7,8.7,0,0,0,.67,2.4c.8,2.17.08,3.31-2.23,3.44s-3.9-1.37-3.44-3.62c.79-3.78.32-7.56.22-11.34-.2-7.27-.51-14.54-.74-21.81,0-1-.21-2.2.93-2.62a4.55,4.55,0,0,1,4.27.22,2.51,2.51,0,0,1,.75,1.52A29.33,29.33,0,0,1,213.16,227.12Z" transform="translate(-180.93 -196.22)"/></svg>